<?xml version="1.0" encoding="UTF-8"?>
<svg width="369.83" height="317.6" fill="none" stroke-linecap="square" stroke-miterlimit="10" version="1.1" viewBox="0 0 369.83 317.6" xmlns="http://www.w3.org/2000/svg">
 <defs>
  <clipPath id="clipPath65">
   <path d="m0 0h960v540h-960z"/>
  </clipPath>
  <clipPath id="clipPath66">
   <path d="m0 0h960v540h-960z"/>
  </clipPath>
  <clipPath id="clipPath67">
   <path d="m0 0h960v540h-960z"/>
  </clipPath>
  <clipPath id="clipPath68">
   <path d="m0 0h960v540h-960z"/>
  </clipPath>
  <clipPath id="clipPath69">
   <path d="m0 0h960v540h-960z"/>
  </clipPath>
  <clipPath id="clipPath70">
   <path d="m0 0h960v540h-960z"/>
  </clipPath>
  <clipPath id="clipPath71">
   <path d="m0 0h960v540h-960z"/>
  </clipPath>
  <clipPath id="clipPath78">
   <path d="m0 0h960v540h-960z"/>
  </clipPath>
  <clipPath id="clipPath79">
   <path d="m0 0h960v540h-960z"/>
  </clipPath>
  <clipPath id="clipPath80">
   <path d="m0 0h960v540h-960z"/>
  </clipPath>
  <clipPath id="clipPath81">
   <path d="m0 0h960v540h-960z"/>
  </clipPath>
  <clipPath id="clipPath84">
   <path d="m0 0h960v540h-960z"/>
  </clipPath>
  <clipPath id="clipPath85">
   <path d="m0 0h960v540h-960z"/>
  </clipPath>
  <clipPath id="clipPath86">
   <path d="m0 0h960v540h-960z"/>
  </clipPath>
  <clipPath id="clipPath87">
   <path d="m0 0h960v540h-960z"/>
  </clipPath>
  <clipPath id="clipPath88">
   <path d="m0 0h960v540h-960z"/>
  </clipPath>
  <clipPath id="clipPath89">
   <path d="m0 0h960v540h-960z"/>
  </clipPath>
  <clipPath id="clipPath90">
   <path d="m0 0h960v540h-960z"/>
  </clipPath>
  <clipPath id="clipPath92">
   <path d="m0 0h960v540h-960z"/>
  </clipPath>
  <clipPath id="clipPath93">
   <path d="m0 0h960v540h-960z"/>
  </clipPath>
  <clipPath id="clipPath94">
   <path d="m0 0h960v540h-960z"/>
  </clipPath>
  <clipPath id="clipPath95">
   <path d="m0 0h960v540h-960z"/>
  </clipPath>
  <clipPath id="clipPath96">
   <path d="m0 0h960v540h-960z"/>
  </clipPath>
  <clipPath id="clipPath97">
   <path d="m0 0h960v540h-960z"/>
  </clipPath>
  <clipPath id="clipPath98">
   <path d="m0 0h960v540h-960z"/>
  </clipPath>
  <clipPath id="clipPath99">
   <path d="m0 0h960v540h-960z"/>
  </clipPath>
  <clipPath id="clipPath100">
   <path d="m0 0h960v540h-960z"/>
  </clipPath>
  <clipPath id="clipPath101">
   <path d="m0 0h960v540h-960z"/>
  </clipPath>
  <clipPath id="clipPath102">
   <path d="m0 0h960v540h-960z"/>
  </clipPath>
  <clipPath id="clipPath103">
   <path d="m0 0h960v540h-960z"/>
  </clipPath>
  <clipPath id="clipPath104">
   <path d="m0 0h960v540h-960z"/>
  </clipPath>
  <clipPath id="clipPath105">
   <path d="m0 0h960v540h-960z"/>
  </clipPath>
  <clipPath id="clipPath106">
   <path d="m0 0h960v540h-960z"/>
  </clipPath>
  <clipPath id="clipPath107">
   <path d="m0 0h960v540h-960z"/>
  </clipPath>
  <clipPath id="clipPath108">
   <path d="m0 0h960v540h-960z"/>
  </clipPath>
  <clipPath id="clipPath109">
   <path d="m0 0h960v540h-960z"/>
  </clipPath>
  <clipPath id="clipPath110">
   <path d="m0 0h960v540h-960z"/>
  </clipPath>
  <clipPath id="clipPath111">
   <path d="m0 0h960v540h-960z"/>
  </clipPath>
  <clipPath id="clipPath112">
   <path d="m0 0h960v540h-960z"/>
  </clipPath>
  <clipPath id="clipPath113">
   <path d="m0 0h960v540h-960z"/>
  </clipPath>
  <clipPath id="clipPath114">
   <path d="m0 0h960v540h-960z"/>
  </clipPath>
  <clipPath id="clipPath115">
   <path d="m0 0h960v540h-960z"/>
  </clipPath>
  <clipPath id="clipPath116">
   <path d="m0 0h960v540h-960z"/>
  </clipPath>
  <clipPath id="clipPath117">
   <path d="m0 0h960v540h-960z"/>
  </clipPath>
  <clipPath id="clipPath118">
   <path d="m0 0h960v540h-960z"/>
  </clipPath>
  <clipPath id="clipPath119">
   <path d="m0 0h960v540h-960z"/>
  </clipPath>
  <clipPath id="clipPath120">
   <path d="m0 0h960v540h-960z"/>
  </clipPath>
 </defs>
 <g fill-rule="evenodd">
  <path transform="translate(-136.4 -172.22)" d="m137.9 369.87c0-13.084 10.607-23.691 23.691-23.691h319.45c6.2832 0 12.309 2.496 16.752 6.9389 4.4429 4.4429 6.9388 10.469 6.9388 16.752v94.76c0 13.084-10.607 23.691-23.691 23.691h-319.45c-13.084 0-23.691-10.607-23.691-23.691z" clip-path="url(#clipPath120)" fill="#9dc6f4"/>
  <path transform="translate(-136.4 -172.22)" d="m137.9 369.87c0-13.084 10.607-23.691 23.691-23.691h319.45c6.2832 0 12.309 2.496 16.752 6.9389 4.4429 4.4429 6.9388 10.469 6.9388 16.752v94.76c0 13.084-10.607 23.691-23.691 23.691h-319.45c-13.084 0-23.691-10.607-23.691-23.691z" clip-path="url(#clipPath119)" stroke="#004065" stroke-linecap="butt" stroke-linejoin="round" stroke-width="3"/>
  <path transform="translate(-136.4 -172.22)" d="m188.43 370.18h288.38v55.024h-288.38z" clip-path="url(#clipPath118)" fill="#cfd8dc"/>
  <path transform="translate(-136.4 -172.22)" d="m188.43 370.18h288.38v55.024h-288.38z" clip-path="url(#clipPath117)" stroke="#004065" stroke-linecap="butt" stroke-linejoin="round"/>
  <path transform="translate(-136.4 -172.22)" d="m194.37 377h40.346v40.346h-40.346z" clip-path="url(#clipPath116)" fill="#cfd8dc"/>
  <path transform="translate(-136.4 -172.22)" d="m194.37 377h40.346v40.346h-40.346z" clip-path="url(#clipPath115)" stroke="#004065" stroke-linecap="butt" stroke-linejoin="round" stroke-width="3"/>
  <path transform="translate(-136.4 -172.22)" d="m242.37 377h40.346v40.346h-40.346z" clip-path="url(#clipPath114)" fill="#cfd8dc"/>
  <path transform="translate(-136.4 -172.22)" d="m242.37 377h40.346v40.346h-40.346z" clip-path="url(#clipPath113)" stroke="#004065" stroke-linecap="butt" stroke-linejoin="round" stroke-width="3"/>
  <path transform="translate(-136.4 -172.22)" d="m290.37 377h40.346v40.346h-40.346z" clip-path="url(#clipPath112)" fill="#cfd8dc"/>
  <path transform="translate(-136.4 -172.22)" d="m290.37 377h40.346v40.346h-40.346z" clip-path="url(#clipPath111)" stroke="#004065" stroke-linecap="butt" stroke-linejoin="round" stroke-width="3"/>
  <path transform="translate(-136.4 -172.22)" d="m194.37 418.3h40.346v29.417h-40.346z" clip-path="url(#clipPath110)" fill="#000" fill-opacity="0"/>
 </g>
 <path transform="translate(-136.4 -172.22)" d="m210.14 438.63q0-2.3594 0.48437-3.7969 0.48438-1.4531 1.4375-2.2344 0.96875-0.78125 2.4219-0.78125 1.0781 0 1.8906 0.4375 0.8125 0.42187 1.3281 1.25 0.53125 0.8125 0.82812 1.9844 0.3125 1.1562 0.3125 3.1406 0 2.3594-0.48437 3.8125-0.48438 1.4375-1.4531 2.2344-0.95312 0.78125-2.4219 0.78125-1.9219 0-3.0312-1.3906-1.3125-1.6719-1.3125-5.4375zm1.6719 0q0 3.2969 0.76563 4.3906 0.78125 1.0781 1.9062 1.0781 1.1406 0 1.9062-1.0938 0.76562-1.0938 0.76562-4.375 0-3.2969-0.76562-4.375-0.76563-1.0781-1.9219-1.0781-1.125 0-1.7969 0.95313-0.85938 1.2188-0.85938 4.5z" clip-path="url(#clipPath109)" fill="#004065"/>
 <path transform="translate(-136.4 -172.22)" d="m242.37 418.3h40.346v29.417h-40.346z" clip-path="url(#clipPath108)" fill="#000" fill-opacity="0" fill-rule="evenodd"/>
 <path transform="translate(-136.4 -172.22)" d="m264.31 445.22h-1.6406v-10.453q-0.59375 0.5625-1.5625 1.1406-0.95312 0.5625-1.7188 0.84375v-1.5938q1.375-0.64063 2.4062-1.5625 1.0312-0.92188 1.4531-1.7812h1.0625z" clip-path="url(#clipPath107)" fill="#004065"/>
 <path transform="translate(-136.4 -172.22)" d="m290.37 418.3h40.346v29.417h-40.346z" clip-path="url(#clipPath106)" fill="#000" fill-opacity="0" fill-rule="evenodd"/>
 <path transform="translate(-136.4 -172.22)" d="m314.75 443.64v1.5781h-8.8281q-0.0156-0.59375 0.1875-1.1406 0.34375-0.90625 1.0781-1.7812 0.75-0.875 2.1562-2.0156 2.1719-1.7812 2.9375-2.8281 0.76562-1.0469 0.76562-1.9688 0-0.98437-0.70312-1.6406-0.6875-0.67188-1.8125-0.67188-1.1875 0-1.9062 0.71875-0.70313 0.70313-0.70313 1.9531l-1.6875-0.17188q0.17188-1.8906 1.2969-2.875 1.1406-0.98437 3.0312-0.98437 1.9219 0 3.0469 1.0625t1.125 2.6406q0 0.79688-0.32812 1.5781-0.32813 0.78125-1.0938 1.6406-0.75 0.84375-2.5312 2.3438-1.4688 1.2344-1.8906 1.6875-0.42187 0.4375-0.6875 0.875z" clip-path="url(#clipPath105)" fill="#004065"/>
 <g fill-rule="evenodd">
  <path transform="translate(-136.4 -172.22)" d="m338.37 377h40.346v40.346h-40.346z" clip-path="url(#clipPath104)" fill="#cfd8dc"/>
  <path transform="translate(-136.4 -172.22)" d="m338.37 377h40.346v40.346h-40.346z" clip-path="url(#clipPath103)" stroke="#004065" stroke-linecap="butt" stroke-linejoin="round" stroke-width="3"/>
  <path transform="translate(-136.4 -172.22)" d="m338.37 418.3h40.346v29.417h-40.346z" clip-path="url(#clipPath102)" fill="#000" fill-opacity="0"/>
 </g>
 <path transform="translate(-136.4 -172.22)" d="m354.14 441.69 1.6406-0.21875q0.28125 1.4062 0.95313 2.0156 0.6875 0.60938 1.6562 0.60938 1.1562 0 1.9531-0.79688 0.79688-0.79687 0.79688-1.9844 0-1.125-0.73438-1.8594-0.73437-0.73437-1.875-0.73437-0.46875 0-1.1562 0.17187l0.1875-1.4375q0.15625 0.0156 0.26563 0.0156 1.0469 0 1.875-0.54688 0.84375-0.54687 0.84375-1.6719 0-0.90625-0.60938-1.5-0.60937-0.59375-1.5781-0.59375-0.95313 0-1.5938 0.60937-0.64063 0.59375-0.8125 1.7969l-1.6406-0.29688q0.29688-1.6406 1.3594-2.5469t2.6562-0.90625q1.0938 0 2 0.46875 0.92187 0.46875 1.4062 1.2812 0.5 0.8125 0.5 1.7188 0 0.85937-0.46875 1.5781-0.46875 0.70313-1.375 1.125 1.1875 0.28125 1.8438 1.1406 0.65625 0.85937 0.65625 2.1562 0 1.7344-1.2812 2.9531-1.2656 1.2188-3.2188 1.2188-1.7656 0-2.9219-1.0469-1.1562-1.0469-1.3281-2.7188z" clip-path="url(#clipPath101)" fill="#004065"/>
 <path transform="translate(-136.4 -172.22)" d="m137.26 470.59v-116.28h55.024v116.28z" clip-path="url(#clipPath100)" fill="#000" fill-opacity="0" fill-rule="evenodd"/>
 <path transform="translate(-136.4 -172.22)" d="m161.46 451.64q-0.48437 0-0.76562 0.48437-0.28125 0.46875-0.5 1.5156-0.73438 3.5312-2.9844 3.5312-1.3125 0-2.1875-1.0938t-0.875-2.8438q0-1.875 0.89063-3 0.875-1.125 2.2812-1.125v2.625q-0.5625 0-0.92188 0.375-0.375 0.35937-0.375 1.125 0 0.67187 0.29688 1.0312 0.29687 0.35937 0.76562 0.35937 0.4375 0 0.70313-0.40625 0.26562-0.42187 0.46875-1.4062 0.1875-0.98437 0.4375-1.6562 0.76562-2.0781 2.6562-2.0781 1.3438 0 2.1875 1.1562 0.82812 1.1562 0.82812 2.9844 0 1.2344-0.4375 2.2031-0.45312 0.95312-1.2188 1.5-0.76562 0.54687-1.6719 0.54687v-2.4844q0.70312-0.0469 1.0781-0.53125 0.375-0.48438 0.375-1.2812 0-0.76563-0.28125-1.1406-0.29687-0.39062-0.75-0.39062zm-9.5625-7.4048h2.4219v-1.6875h1.9375v1.6875h4.9219q0.54688 0 0.78125-0.20312 0.23438-0.21875 0.23438-0.8125 0-0.4375-0.0625-0.78125h2q0.23437 0.78125 0.23437 1.5938 0 2.7812-2.7969 2.8281h-5.3125v1.4375h-1.9375v-1.4375h-2.4219zm4.8906-8.6944q-0.0625 0.53125-0.0625 0.9375 0 1.5 1 1.9688h6.4531v2.625h-9.8594v-2.4844l1.1719-0.0781q-1.3438-0.78125-1.3438-2.1875 0-0.4375 0.10938-0.82813zm6.3906-7.1798q1.1875 0.98437 1.1875 2.7031 0 1.5938-0.90625 2.4219-0.92187 0.82812-2.6719 0.84375h-6.4688v-2.625h6.375q1.5312 0 1.5312-1.4062 0-1.3438-0.92188-1.8438h-6.9844v-2.6406h9.8594v2.4844zm-0.9375-8.627q0-0.73437-0.39062-1.1875-0.40625-0.45312-1.0781-0.46875v-2.4688q1 0 1.8438 0.54688 0.82813 0.53125 1.2969 1.4688 0.45312 0.9375 0.45312 2.0625 0 2.1094-1.3438 3.3438-1.3438 1.2188-3.7188 1.2188h-0.17187q-2.2812 0-3.625-1.2188-1.3594-1.2188-1.3594-3.3281 0-1.8438 1.0469-2.9531 1.0469-1.125 2.7969-1.1406v2.4688q-0.76562 0.0156-1.2344 0.46875-0.48438 0.45313-0.48438 1.2031 0 0.92187 0.67188 1.3906 0.67187 0.46875 2.1719 0.46875h0.26563q1.5312 0 2.2031-0.45312 0.65625-0.46875 0.65625-1.4219zm-10.344-8.7758h2.4219v-1.6875h1.9375v1.6875h4.9219q0.54688 0 0.78125-0.20313 0.23438-0.21875 0.23438-0.8125 0-0.4375-0.0625-0.78125h2q0.23437 0.78125 0.23437 1.5938 0 2.7812-2.7969 2.8281h-5.3125v1.4375h-1.9375v-1.4375h-2.4219zm7.4375-16.684q2.2812 0 3.6562 1.0469 1.375 1.0312 1.375 2.7812 0 1.5-1.0469 2.4219h4.6562v2.625h-13.656v-2.4375l0.96875-0.0937q-1.1406-0.95313-1.1406-2.5 0-1.8125 1.3438-2.8281 1.3438-1.0156 3.7188-1.0156zm-0.1875 2.6406q-1.375 0-2.1094 0.48438-0.75 0.48437-0.75 1.4219 0 1.2344 0.9375 1.7031h4.0312q0.98437-0.48438 0.98437-1.7188 0-1.8906-3.0938-1.8906zm-2.3594-9.8001q-0.0625 0.53125-0.0625 0.9375 0 1.5 1 1.9688h6.4531v2.625h-9.8594v-2.4844l1.1719-0.0781q-1.3438-0.78125-1.3438-2.1875 0-0.4375 0.10938-0.82812zm2.375-0.52356q-1.4688 0-2.6094-0.5625-1.1562-0.57812-1.7812-1.6406t-0.625-2.4531q0-2 1.2188-3.2656 1.2188-1.2656 3.3125-1.4062l0.67188-0.0156q2.2656 0 3.6406 1.2656 1.375 1.2656 1.375 3.4062 0 2.125-1.3594 3.4062-1.375 1.2656-3.7344 1.2656zm0.1875-2.6406q1.4062 0 2.1562-0.53125 0.73437-0.53125 0.73437-1.5156 0-0.95312-0.73437-1.4844-0.73438-0.54688-2.3438-0.54688-1.375 0-2.125 0.54688-0.76563 0.53125-0.76563 1.5156 0 0.95313 0.75 1.4844t2.3281 0.53125zm2.8906-12.424q0-0.73438-0.39062-1.1875-0.40625-0.45313-1.0781-0.46875v-2.4688q1 0 1.8438 0.54687 0.82813 0.53125 1.2969 1.4688 0.45312 0.9375 0.45312 2.0625 0 2.1094-1.3438 3.3438-1.3438 1.2188-3.7188 1.2188h-0.17187q-2.2812 0-3.625-1.2188-1.3594-1.2188-1.3594-3.3281 0-1.8438 1.0469-2.9531 1.0469-1.125 2.7969-1.1406v2.4688q-0.76562 0.0156-1.2344 0.46875-0.48438 0.45312-0.48438 1.2031 0 0.92188 0.67188 1.3906 0.67187 0.46875 2.1719 0.46875h0.26563q1.5312 0 2.2031-0.45313 0.65625-0.46875 0.65625-1.4219z" clip-path="url(#clipPath99)" fill="#004065"/>
 <g fill-rule="evenodd">
  <path transform="translate(-134.28 -173.14)" d="m204.81 398.09c0-4.2095 3.4125-7.622 7.622-7.622 2.0215 0 3.9602 0.80304 5.3896 2.2324 1.4294 1.4294 2.2325 3.3681 2.2325 5.3896 0 4.2095-3.4125 7.622-7.6221 7.622-4.2095 0-7.622-3.4125-7.622-7.622z" clip-path="url(#clipPath98)" fill="#004065"/>
  <path transform="translate(-136.4 -172.22)" d="m212.43 390.46 2.6457-103.75" clip-path="url(#clipPath97)" fill="#000" fill-opacity="0"/>
  <path transform="rotate(-2.2342 -4269.7 3749.9)" d="m212.43 390.46 2.1868-85.754" clip-path="url(#clipPath96)" stroke="#004065" stroke-linecap="butt" stroke-linejoin="round" stroke-width="3"/>
  <path transform="rotate(-2.2342 -4269.7 3749.9)" d="m219.57 304.84-4.6065-13.736-5.3007 13.484z" clip-path="url(#clipPath95)" fill="#004065" stroke="#004065" stroke-linecap="butt" stroke-width="3"/>
 </g>
 <g fill="#039be5" fill-rule="evenodd">
  <path transform="translate(-136.4 -172.22)" d="m428.81 398.09c0-4.2095 3.4125-7.622 7.622-7.622 2.0215 0 3.9602 0.80304 5.3896 2.2324 1.4294 1.4294 2.2324 3.3681 2.2324 5.3896 0 4.2095-3.4125 7.622-7.622 7.622s-7.622-3.4125-7.622-7.622z" clip-path="url(#clipPath94)"/>
  <path transform="translate(-136.4 -172.22)" d="m452.81 398.09c0-4.2095 3.4125-7.622 7.622-7.622 2.0215 0 3.9602 0.80304 5.3896 2.2324 1.4294 1.4294 2.2324 3.3681 2.2324 5.3896 0 4.2095-3.4125 7.622-7.622 7.622s-7.622-3.4125-7.622-7.622z" clip-path="url(#clipPath93)"/>
  <path transform="translate(-136.4 -172.22)" d="m404.81 398.09c0-4.2095 3.4125-7.622 7.622-7.622 2.0215 0 3.9602 0.80304 5.3896 2.2324 1.4294 1.4294 2.2324 3.3681 2.2324 5.3896 0 4.2095-3.4125 7.622-7.622 7.622s-7.622-3.4125-7.622-7.622z" clip-path="url(#clipPath92)"/>
 </g>
 <path transform="translate(-136.4 -172.22)" d="m173.03 191.53c0-10.388 8.421-18.809 18.809-18.809h83.768c4.9884 0 9.7725 1.9816 13.3 5.509 3.5274 3.5273 5.509 8.3114 5.509 13.3v75.233c0 10.388-8.421 18.809-18.809 18.809h-83.768c-10.388 0-18.809-8.421-18.809-18.809z" clip-path="url(#clipPath90)" fill="#fff" fill-rule="evenodd" stroke="#004065"/>
 <g fill="#00517c">
  <path transform="translate(-136.4 -172.22)" d="m219.25 205.35v-14.312h9.6562v1.6875h-7.7656v4.4375h6.7188v1.6875h-6.7188v6.5zm11.904-12.297v-2.0156h1.7656v2.0156zm0 12.297v-10.375h1.7656v10.375zm4.3965 0v-14.312h1.75v14.312zm11.584-3.3438 1.8125 0.23437q-0.42188 1.5781-1.5938 2.4688-1.1562 0.875-2.9688 0.875-2.2656 0-3.6094-1.3906-1.3281-1.4062-1.3281-3.9375 0-2.625 1.3438-4.0625 1.3438-1.4531 3.5-1.4531 2.0781 0 3.3906 1.4219 1.3281 1.4062 1.3281 3.9844 0 0.15625-0.0156 0.46875h-7.7344q0.0937 1.7031 0.96875 2.6094 0.875 0.90625 2.1719 0.90625 0.96875 0 1.6406-0.5 0.6875-0.51563 1.0938-1.625zm-5.7812-2.8438h5.7969q-0.10937-1.2969-0.65625-1.9531-0.84375-1.0156-2.1875-1.0156-1.2031 0-2.0312 0.8125-0.82812 0.79687-0.92187 2.1562z" clip-path="url(#clipPath89)"/>
  <path transform="translate(-136.4 -172.22)" d="m211.29 224.75 1.7812-0.15625q0.125 1.0625 0.57812 1.75 0.46875 0.6875 1.4375 1.125 0.98438 0.42187 2.2188 0.42187 1.0781 0 1.9062-0.3125 0.82813-0.32812 1.2344-0.89062t0.40625-1.2344q0-0.67187-0.39063-1.1719-0.39062-0.5-1.2812-0.84375-0.57812-0.23438-2.5625-0.70313-1.9688-0.46875-2.75-0.89062-1.0312-0.53125-1.5312-1.3281-0.5-0.79687-0.5-1.7812 0-1.0938 0.60938-2.0312 0.60937-0.9375 1.7969-1.4219 1.1875-0.5 2.625-0.5 1.5938 0 2.8125 0.51562 1.2188 0.51563 1.8594 1.5156 0.65625 0.98437 0.70312 2.25l-1.8125 0.14062q-0.14062-1.3594-0.98437-2.0469-0.84375-0.70313-2.5-0.70313-1.7188 0-2.5156 0.64063-0.78125 0.625-0.78125 1.5 0 0.78125 0.5625 1.2812 0.54688 0.5 2.8594 1.0156 2.3125 0.51563 3.1719 0.90625 1.25 0.57813 1.8438 1.4688 0.59375 0.875 0.59375 2.0312 0 1.1406-0.65625 2.1562-0.65625 1.0156-1.8906 1.5781-1.2188 0.5625-2.75 0.5625-1.9375 0-3.25-0.5625-1.3125-0.57813-2.0625-1.7188-0.75-1.1406-0.78125-2.5625zm17.59 3.0156 0.25 1.5625q-0.73437 0.15625-1.3281 0.15625-0.95313 0-1.4844-0.29687-0.51562-0.3125-0.73437-0.79688-0.21875-0.5-0.21875-2.0781v-5.9688h-1.2812v-1.375h1.2812v-2.5625l1.75-1.0625v3.625h1.7656v1.375h-1.7656v6.0625q0 0.75 0.0937 0.96875 0.0937 0.20312 0.29687 0.34375 0.21875 0.125 0.60938 0.125 0.28125 0 0.76562-0.0781zm1.6973 1.5781v-10.375h1.5781v1.5781q0.60938-1.1094 1.125-1.4531 0.51563-0.35938 1.125-0.35938 0.89063 0 1.8125 0.5625l-0.60937 1.6406q-0.64063-0.39063-1.2812-0.39063-0.57813 0-1.0469 0.35938-0.45312 0.34375-0.65625 0.95312-0.28125 0.9375-0.28125 2.0469v5.4375zm13.473 0v-1.5312q-1.2031 1.7656-3.2812 1.7656-0.92188 0-1.7188-0.34375-0.79688-0.35937-1.1875-0.89062-0.375-0.53125-0.53125-1.3125-0.10938-0.51563-0.10938-1.6406v-6.4219h1.75v5.75q0 1.375 0.10938 1.8594 0.17187 0.6875 0.70312 1.0938 0.54688 0.39063 1.3281 0.39063 0.79687 0 1.4844-0.40625 0.70313-0.40625 0.98438-1.0938 0.29687-0.70313 0.29687-2.0312v-5.5625h1.75v10.375zm11.107-3.7969 1.7187 0.21875q-0.28125 1.7969-1.4531 2.8125-1.1562 1-2.8594 1-2.125 0-3.4219-1.3906-1.2969-1.3906-1.2969-3.9844 0-1.6875 0.54687-2.9375 0.5625-1.2656 1.7031-1.8906 1.1406-0.64063 2.4844-0.64063 1.6875 0 2.75 0.85938 1.0781 0.85937 1.3906 2.4219l-1.7187 0.26563q-0.23438-1.0469-0.85938-1.5625-0.625-0.53125-1.5-0.53125-1.3281 0-2.1562 0.95312-0.82812 0.95313-0.82812 3 0 2.0938 0.79687 3.0469 0.79688 0.9375 2.0938 0.9375 1.0312 0 1.7188-0.625 0.70313-0.64063 0.89063-1.9531zm7.0625 2.2188 0.25 1.5625q-0.73437 0.15625-1.3281 0.15625-0.95313 0-1.4844-0.29687-0.51562-0.3125-0.73437-0.79688-0.21875-0.5-0.21875-2.0781v-5.9688h-1.2812v-1.375h1.2812v-2.5625l1.75-1.0625v3.625h1.7656v1.375h-1.7656v6.0625q0 0.75 0.0937 0.96875 0.0937 0.20312 0.29687 0.34375 0.21875 0.125 0.60938 0.125 0.28125 0 0.76562-0.0781z" clip-path="url(#clipPath88)"/>
  <path transform="translate(-136.4 -172.22)" d="m190.54 267.35v-10.375h1.5781v1.5781q0.60937-1.1094 1.125-1.4531 0.51562-0.35938 1.125-0.35938 0.89062 0 1.8125 0.5625l-0.60938 1.6406q-0.64062-0.39063-1.2812-0.39063-0.57812 0-1.0469 0.35938-0.45313 0.34375-0.65625 0.95312-0.28125 0.9375-0.28125 2.0469v5.4375zm13.785-3.3438 1.8125 0.23437q-0.42188 1.5781-1.5938 2.4688-1.1562 0.875-2.9688 0.875-2.2656 0-3.6094-1.3906-1.3281-1.4062-1.3281-3.9375 0-2.625 1.3438-4.0625 1.3438-1.4531 3.5-1.4531 2.0781 0 3.3906 1.4219 1.3281 1.4062 1.3281 3.9844 0 0.15625-0.0156 0.46875h-7.7344q0.0937 1.7031 0.96875 2.6094 0.875 0.90625 2.1719 0.90625 0.96875 0 1.6406-0.5 0.6875-0.51563 1.0938-1.625zm-5.7812-2.8438h5.7969q-0.10937-1.2969-0.65625-1.9531-0.84375-1.0156-2.1875-1.0156-1.2031 0-2.0312 0.8125-0.82812 0.79687-0.92187 2.1562zm10.217 6.1875v-9h-1.5469v-1.375h1.5469v-1.0938q0-1.0469 0.1875-1.5625 0.25-0.6875 0.89063-1.1094 0.64062-0.42187 1.7969-0.42187 0.75 0 1.6406 0.17187l-0.26563 1.5312q-0.54687-0.0937-1.0312-0.0937-0.79687 0-1.1406 0.34375-0.32813 0.34375-0.32813 1.2812v0.95313h2.0312v1.375h-2.0312v9zm11.916-3.7969 1.7188 0.21875q-0.28125 1.7969-1.4531 2.8125-1.1562 1-2.8594 1-2.125 0-3.4219-1.3906-1.2969-1.3906-1.2969-3.9844 0-1.6875 0.54687-2.9375 0.5625-1.2656 1.7031-1.8906 1.1406-0.64063 2.4844-0.64063 1.6875 0 2.75 0.85938 1.0781 0.85937 1.3906 2.4219l-1.7188 0.26563q-0.23438-1.0469-0.85938-1.5625-0.625-0.53125-1.5-0.53125-1.3281 0-2.1562 0.95312-0.82812 0.95313-0.82812 3 0 2.0938 0.79687 3.0469 0.79688 0.9375 2.0938 0.9375 1.0312 0 1.7188-0.625 0.70313-0.64063 0.89063-1.9531zm2.5781-1.3906q0-2.875 1.5938-4.2656 1.3438-1.1562 3.2656-1.1562 2.1406 0 3.4844 1.4062 1.3594 1.4062 1.3594 3.875 0 2-0.59375 3.1562-0.59375 1.1406-1.75 1.7812-1.1406 0.625-2.5 0.625-2.1875 0-3.5312-1.3906-1.3281-1.4062-1.3281-4.0312zm1.7969 0q0 2 0.85937 2.9844 0.875 0.98438 2.2031 0.98438 1.3125 0 2.1719-0.98438 0.875-1 0.875-3.0469 0-1.9219-0.875-2.9062-0.875-1-2.1719-1-1.3281 0-2.2031 1-0.85937 0.98437-0.85937 2.9688zm16.764 5.1875v-1.5312q-1.2031 1.7656-3.2812 1.7656-0.92187 0-1.7188-0.34375-0.79687-0.35937-1.1875-0.89062-0.375-0.53125-0.53125-1.3125-0.10937-0.51563-0.10937-1.6406v-6.4219h1.75v5.75q0 1.375 0.10937 1.8594 0.17188 0.6875 0.70313 1.0938 0.54687 0.39063 1.3281 0.39063 0.79688 0 1.4844-0.40625 0.70312-0.40625 0.98437-1.0938 0.29688-0.70313 0.29688-2.0312v-5.5625h1.75v10.375zm4.3262 0v-10.375h1.5938v1.4844q1.1406-1.7188 3.2969-1.7188 0.9375 0 1.7188 0.34375 0.79687 0.32813 1.1875 0.875 0.39062 0.54688 0.54687 1.2969 0.0937 0.5 0.0937 1.7188v6.375h-1.7656v-6.3125q0-1.0781-0.20313-1.6094-0.20312-0.53125-0.73437-0.84375-0.51563-0.3125-1.2188-0.3125-1.125 0-1.9375 0.71875-0.8125 0.70313-0.8125 2.6875v5.6719zm14.967-1.5781 0.25 1.5625q-0.73438 0.15625-1.3281 0.15625-0.95312 0-1.4844-0.29687-0.51563-0.3125-0.73438-0.79688-0.21875-0.5-0.21875-2.0781v-5.9688h-1.2812v-1.375h1.2812v-2.5625l1.75-1.0625v3.625h1.7656v1.375h-1.7656v6.0625q0 0.75 0.0937 0.96875 0.0937 0.20312 0.29688 0.34375 0.21875 0.125 0.60937 0.125 0.28125 0 0.76563-0.0781zm16.02-0.10937v1.6875h-9.4531q-0.0156-0.64063 0.20313-1.2188 0.35937-0.96875 1.1562-1.9062 0.79687-0.9375 2.2969-2.1719 2.3438-1.9062 3.1562-3.0156 0.82813-1.125 0.82813-2.125 0-1.0469-0.75-1.7656t-1.9531-0.71875q-1.2656 0-2.0312 0.76563-0.76562 0.76562-0.76562 2.1094l-1.8125-0.1875q0.1875-2.0156 1.3906-3.0781 1.2188-1.0625 3.2656-1.0625 2.0469 0 3.25 1.1406 1.2031 1.1406 1.2031 2.8281 0 0.85937-0.35937 1.7031-0.34375 0.82813-1.1562 1.75-0.8125 0.90625-2.7031 2.5156-1.5938 1.3281-2.0469 1.7969-0.4375 0.46875-0.73438 0.95313z" clip-path="url(#clipPath87)"/>
 </g>
 <g fill-rule="evenodd">
  <path transform="translate(-136.4 -172.22)" d="m294.41 229.15h57.323" clip-path="url(#clipPath86)" fill="#000" fill-opacity="0"/>
  <path transform="translate(-136.4 -172.22)" d="m294.41 229.15h39.323" clip-path="url(#clipPath85)" stroke="#004065" stroke-linecap="butt" stroke-linejoin="round" stroke-width="3"/>
  <path transform="translate(-136.4 -172.22)" d="m333.73 234.1 13.614-4.9552-13.614-4.9552z" clip-path="url(#clipPath84)" fill="#004065" stroke="#004065" stroke-linecap="butt" stroke-width="3"/>
  <path transform="translate(-136.4 -172.22)" d="m252.81 398.09c0-4.2095 3.4125-7.622 7.622-7.622 2.0215 0 3.9602 0.80304 5.3896 2.2324 1.4294 1.4294 2.2324 3.3681 2.2324 5.3896 0 4.2095-3.4125 7.622-7.622 7.622s-7.622-3.4125-7.622-7.622z" clip-path="url(#clipPath81)" fill="#ffeb38"/>
  <path transform="translate(-136.4 -172.22)" d="m260.43 390.46-26.709-104.88" clip-path="url(#clipPath80)" fill="#000" fill-opacity="0"/>
  <path transform="rotate(2.163 4740.1 -3360.5)" d="m260.43 390.46-22.267-87.439" clip-path="url(#clipPath79)" stroke="#ffeb38" stroke-linecap="butt" stroke-linejoin="round" stroke-width="3"/>
  <path transform="rotate(2.163 4740.1 -3360.5)" d="m242.96 301.79-8.1617-11.97-1.4422 14.416z" clip-path="url(#clipPath78)" fill="#ffeb38" stroke="#ffeb38" stroke-linecap="butt" stroke-width="3"/>
  <path transform="translate(-136.4 -172.22)" d="m351.73 172.72h121.39v86.239l-26.611 26.611h-94.775z" clip-path="url(#clipPath71)" fill="#fff"/>
  <path transform="translate(-136.4 -172.22)" d="m446.51 285.57 5.3222-21.289 21.289-5.3222z" clip-path="url(#clipPath70)" fill="#cbcbcb"/>
  <path transform="translate(-136.4 -172.22)" d="m446.51 285.57 5.3222-21.289 21.289-5.3222-26.611 26.611h-94.775v-112.85h121.39v86.239" clip-path="url(#clipPath69)" fill="#000" fill-opacity="0"/>
  <path transform="translate(-136.4 -172.22)" d="m446.51 285.57 5.3222-21.289 21.289-5.3222-26.611 26.611h-94.775v-112.85h121.39v86.239" clip-path="url(#clipPath68)" stroke="#00517c" stroke-linecap="butt" stroke-linejoin="round"/>
 </g>
 <g fill="#00517c">
  <path transform="translate(-136.4 -172.22)" d="m389.26 192.04v-14.312h1.9062v14.312zm5.0098 0v-10.375h1.5938v1.4844q1.1406-1.7188 3.2969-1.7188 0.9375 0 1.7188 0.34375 0.79688 0.32813 1.1875 0.875 0.39063 0.54688 0.54688 1.2969 0.0937 0.5 0.0937 1.7188v6.375h-1.7656v-6.3125q0-1.0781-0.20312-1.6094-0.20313-0.53125-0.73438-0.84375-0.51562-0.3125-1.2188-0.3125-1.125 0-1.9375 0.71875-0.8125 0.70313-0.8125 2.6875v5.6719zm10.482-5.1875q0-2.875 1.5938-4.2656 1.3438-1.1562 3.2656-1.1562 2.1406 0 3.4844 1.4062 1.3594 1.4062 1.3594 3.875 0 2-0.59375 3.1562-0.59375 1.1406-1.75 1.7812-1.1406 0.625-2.5 0.625-2.1875 0-3.5312-1.3906-1.3281-1.4062-1.3281-4.0312zm1.7969 0q0 2 0.85938 2.9844 0.875 0.98438 2.2031 0.98438 1.3125 0 2.1719-0.98438 0.875-1 0.875-3.0469 0-1.9219-0.875-2.9062-0.875-1-2.1719-1-1.3281 0-2.2031 1-0.85938 0.98437-0.85938 2.9688zm16.701 5.1875v-1.3125q-0.98437 1.5469-2.9062 1.5469-1.2344 0-2.2812-0.6875-1.0312-0.6875-1.6094-1.9062-0.5625-1.2188-0.5625-2.8125 0-1.5625 0.51562-2.8281 0.51563-1.2656 1.5469-1.9375 1.0469-0.67188 2.3125-0.67188 0.9375 0 1.6719 0.40625 0.73438 0.39063 1.2031 1.0156v-5.125h1.7344v14.312zm-5.5625-5.1719q0 1.9844 0.84375 2.9688 0.84375 0.98438 1.9844 0.98438 1.1562 0 1.9531-0.9375 0.8125-0.9375 0.8125-2.875 0-2.125-0.82812-3.125-0.8125-1-2.0156-1-1.1719 0-1.9688 0.96875-0.78125 0.95312-0.78125 3.0156zm17.061 1.8281 1.8125 0.23437q-0.42187 1.5781-1.5938 2.4688-1.1562 0.875-2.9688 0.875-2.2656 0-3.6094-1.3906-1.3281-1.4062-1.3281-3.9375 0-2.625 1.3438-4.0625 1.3438-1.4531 3.5-1.4531 2.0781 0 3.3906 1.4219 1.3281 1.4062 1.3281 3.9844 0 0.15625-0.0156 0.46875h-7.7344q0.0937 1.7031 0.96875 2.6094 0.875 0.90625 2.1719 0.90625 0.96875 0 1.6406-0.5 0.6875-0.51563 1.0938-1.625zm-5.7812-2.8438h5.7969q-0.10938-1.2969-0.65625-1.9531-0.84375-1.0156-2.1875-1.0156-1.2031 0-2.0312 0.8125-0.82813 0.79687-0.92188 2.1562z" clip-path="url(#clipPath67)"/>
  <path transform="translate(-136.4 -172.22)" d="m387.22 211.45 1.7812-0.15625q0.125 1.0625 0.57812 1.75 0.46875 0.6875 1.4375 1.125 0.98438 0.42187 2.2188 0.42187 1.0781 0 1.9062-0.3125 0.82813-0.32812 1.2344-0.89062t0.40625-1.2344q0-0.67187-0.39063-1.1719-0.39062-0.5-1.2812-0.84375-0.57812-0.23438-2.5625-0.70313-1.9688-0.46875-2.75-0.89062-1.0312-0.53125-1.5312-1.3281-0.5-0.79687-0.5-1.7812 0-1.0938 0.60938-2.0312 0.60937-0.9375 1.7969-1.4219 1.1875-0.5 2.625-0.5 1.5938 0 2.8125 0.51562 1.2188 0.51563 1.8594 1.5156 0.65625 0.98437 0.70312 2.25l-1.8125 0.14062q-0.14062-1.3594-0.98437-2.0469-0.84375-0.70313-2.5-0.70313-1.7188 0-2.5156 0.64063-0.78125 0.625-0.78125 1.5 0 0.78125 0.5625 1.2812 0.54688 0.5 2.8594 1.0156 2.3125 0.51563 3.1719 0.90625 1.25 0.57813 1.8438 1.4688 0.59375 0.875 0.59375 2.0312 0 1.1406-0.65625 2.1562-0.65625 1.0156-1.8906 1.5781-1.2188 0.5625-2.75 0.5625-1.9375 0-3.25-0.5625-1.3125-0.57813-2.0625-1.7188-0.75-1.1406-0.78125-2.5625zm17.59 3.0156 0.25 1.5625q-0.73437 0.15625-1.3281 0.15625-0.95313 0-1.4844-0.29687-0.51562-0.3125-0.73437-0.79688-0.21875-0.5-0.21875-2.0781v-5.9688h-1.2812v-1.375h1.2812v-2.5625l1.75-1.0625v3.625h1.7656v1.375h-1.7656v6.0625q0 0.75 0.0937 0.96875 0.0937 0.20312 0.29687 0.34375 0.21875 0.125 0.60938 0.125 0.28125 0 0.76562-0.0781zm1.6973 1.5781v-10.375h1.5781v1.5781q0.60938-1.1094 1.125-1.4531 0.51563-0.35938 1.125-0.35938 0.89063 0 1.8125 0.5625l-0.60937 1.6406q-0.64063-0.39063-1.2812-0.39063-0.57813 0-1.0469 0.35938-0.45312 0.34375-0.65625 0.95312-0.28125 0.9375-0.28125 2.0469v5.4375zm13.473 0v-1.5312q-1.2031 1.7656-3.2812 1.7656-0.92188 0-1.7188-0.34375-0.79688-0.35937-1.1875-0.89062-0.375-0.53125-0.53125-1.3125-0.10938-0.51563-0.10938-1.6406v-6.4219h1.75v5.75q0 1.375 0.10938 1.8594 0.17187 0.6875 0.70312 1.0938 0.54688 0.39063 1.3281 0.39063 0.79687 0 1.4844-0.40625 0.70313-0.40625 0.98438-1.0938 0.29687-0.70313 0.29687-2.0312v-5.5625h1.75v10.375zm11.107-3.7969 1.7188 0.21875q-0.28125 1.7969-1.4531 2.8125-1.1562 1-2.8594 1-2.125 0-3.4219-1.3906-1.2969-1.3906-1.2969-3.9844 0-1.6875 0.54687-2.9375 0.5625-1.2656 1.7031-1.8906 1.1406-0.64063 2.4844-0.64063 1.6875 0 2.75 0.85938 1.0781 0.85937 1.3906 2.4219l-1.7188 0.26563q-0.23438-1.0469-0.85938-1.5625-0.625-0.53125-1.5-0.53125-1.3281 0-2.1562 0.95312-0.82812 0.95313-0.82812 3 0 2.0938 0.79687 3.0469 0.79688 0.9375 2.0938 0.9375 1.0312 0 1.7188-0.625 0.70313-0.64063 0.89063-1.9531zm7.0625 2.2188 0.25 1.5625q-0.73438 0.15625-1.3281 0.15625-0.95312 0-1.4844-0.29687-0.51563-0.3125-0.73438-0.79688-0.21875-0.5-0.21875-2.0781v-5.9688h-1.2812v-1.375h1.2812v-2.5625l1.75-1.0625v3.625h1.7656v1.375h-1.7656v6.0625q0 0.75 0.0937 0.96875 0.0937 0.20312 0.29688 0.34375 0.21875 0.125 0.60937 0.125 0.28125 0 0.76563-0.0781z" clip-path="url(#clipPath66)"/>
  <path transform="translate(-136.4 -172.22)" d="m369.25 254.04v-10.375h1.5781v1.5781q0.60937-1.1094 1.125-1.4531 0.51562-0.35938 1.125-0.35938 0.89062 0 1.8125 0.5625l-0.60938 1.6406q-0.64062-0.39063-1.2812-0.39063-0.57812 0-1.0469 0.35938-0.45313 0.34375-0.65625 0.95312-0.28125 0.9375-0.28125 2.0469v5.4375zm13.785-3.3438 1.8125 0.23437q-0.42188 1.5781-1.5938 2.4688-1.1562 0.875-2.9688 0.875-2.2656 0-3.6094-1.3906-1.3281-1.4062-1.3281-3.9375 0-2.625 1.3438-4.0625 1.3438-1.4531 3.5-1.4531 2.0781 0 3.3906 1.4219 1.3281 1.4062 1.3281 3.9844 0 0.15625-0.0156 0.46875h-7.7344q0.0937 1.7031 0.96875 2.6094 0.875 0.90625 2.1719 0.90625 0.96875 0 1.6406-0.5 0.6875-0.51563 1.0938-1.625zm-5.7812-2.8438h5.7969q-0.10937-1.2969-0.65625-1.9531-0.84375-1.0156-2.1875-1.0156-1.2031 0-2.0312 0.8125-0.82812 0.79687-0.92187 2.1562zm10.217 6.1875v-9h-1.5469v-1.375h1.5469v-1.0938q0-1.0469 0.1875-1.5625 0.25-0.6875 0.89063-1.1094 0.64062-0.42187 1.7969-0.42187 0.75 0 1.6406 0.17187l-0.26563 1.5312q-0.54687-0.0937-1.0312-0.0937-0.79687 0-1.1406 0.34375-0.32813 0.34375-0.32813 1.2812v0.95313h2.0312v1.375h-2.0312v9zm11.916-3.7969 1.7188 0.21875q-0.28125 1.7969-1.4531 2.8125-1.1562 1-2.8594 1-2.125 0-3.4219-1.3906-1.2969-1.3906-1.2969-3.9844 0-1.6875 0.54687-2.9375 0.5625-1.2656 1.7031-1.8906 1.1406-0.64063 2.4844-0.64063 1.6875 0 2.75 0.85938 1.0781 0.85937 1.3906 2.4219l-1.7188 0.26563q-0.23438-1.0469-0.85938-1.5625-0.625-0.53125-1.5-0.53125-1.3281 0-2.1562 0.95312-0.82812 0.95313-0.82812 3 0 2.0938 0.79687 3.0469 0.79688 0.9375 2.0938 0.9375 1.0312 0 1.7188-0.625 0.70313-0.64063 0.89063-1.9531zm2.5781-1.3906q0-2.875 1.5938-4.2656 1.3438-1.1562 3.2656-1.1562 2.1406 0 3.4844 1.4062 1.3594 1.4062 1.3594 3.875 0 2-0.59375 3.1562-0.59375 1.1406-1.75 1.7812-1.1406 0.625-2.5 0.625-2.1875 0-3.5312-1.3906-1.3281-1.4062-1.3281-4.0312zm1.7969 0q0 2 0.85937 2.9844 0.875 0.98438 2.2031 0.98438 1.3125 0 2.1719-0.98438 0.875-1 0.875-3.0469 0-1.9219-0.875-2.9062-0.875-1-2.1719-1-1.3281 0-2.2031 1-0.85937 0.98437-0.85937 2.9688zm16.764 5.1875v-1.5312q-1.2031 1.7656-3.2812 1.7656-0.92187 0-1.7188-0.34375-0.79687-0.35937-1.1875-0.89062-0.375-0.53125-0.53125-1.3125-0.10937-0.51563-0.10937-1.6406v-6.4219h1.75v5.75q0 1.375 0.10937 1.8594 0.17188 0.6875 0.70313 1.0938 0.54687 0.39063 1.3281 0.39063 0.79688 0 1.4844-0.40625 0.70312-0.40625 0.98437-1.0938 0.29688-0.70313 0.29688-2.0312v-5.5625h1.75v10.375zm4.3262 0v-10.375h1.5938v1.4844q1.1406-1.7188 3.2969-1.7188 0.9375 0 1.7188 0.34375 0.79687 0.32813 1.1875 0.875 0.39062 0.54688 0.54687 1.2969 0.0937 0.5 0.0937 1.7188v6.375h-1.7656v-6.3125q0-1.0781-0.20313-1.6094-0.20312-0.53125-0.73437-0.84375-0.51563-0.3125-1.2188-0.3125-1.125 0-1.9375 0.71875-0.8125 0.70313-0.8125 2.6875v5.6719zm14.967-1.5781 0.25 1.5625q-0.73438 0.15625-1.3281 0.15625-0.95312 0-1.4844-0.29687-0.51563-0.3125-0.73438-0.79688-0.21875-0.5-0.21875-2.0781v-5.9688h-1.2812v-1.375h1.2812v-2.5625l1.75-1.0625v3.625h1.7656v1.375h-1.7656v6.0625q0 0.75 0.0937 0.96875 0.0937 0.20312 0.29688 0.34375 0.21875 0.125 0.60937 0.125 0.28125 0 0.76563-0.0781zm13.41 1.5781h-1.7656v-11.203q-0.625 0.60938-1.6562 1.2188-1.0312 0.59375-1.8594 0.90625v-1.7031q1.4844-0.6875 2.5781-1.6719 1.1094-1 1.5625-1.9219h1.1406z" clip-path="url(#clipPath65)"/>
 </g>
</svg>
