<?xml version="1.0" encoding="UTF-8"?>
<svg width="946.79" height="343.85" fill="none" stroke-linecap="square" stroke-miterlimit="10" version="1.1" viewBox="0 0 946.79 343.85" xmlns="http://www.w3.org/2000/svg">
 <clipPath id="g2aac46444a9_1_93.0">
  <path d="m0 0h960v540h-960z"/>
 </clipPath>
 <g transform="translate(-7.5249 -167.75)" clip-path="url(#g2aac46444a9_1_93.0)">
  <g fill-rule="evenodd">
   <path d="m16.157 364.22c0-16.114 13.063-29.176 29.176-29.176h366.47c7.7381 0 15.159 3.0739 20.631 8.5456 5.4716 5.4716 8.5456 12.893 8.5456 20.631v116.7c0 16.114-13.063 29.176-29.176 29.176h-366.47c-16.114 0-29.176-13.063-29.176-29.176z" fill="#9dc6f4"/>
   <path d="m16.157 364.22c0-16.114 13.063-29.176 29.176-29.176h366.47c7.7381 0 15.159 3.0739 20.631 8.5456 5.4716 5.4716 8.5456 12.893 8.5456 20.631v116.7c0 16.114-13.063 29.176-29.176 29.176h-366.47c-16.114 0-29.176-13.063-29.176-29.176z" stroke="#004065" stroke-linecap="butt" stroke-linejoin="round" stroke-width="3"/>
   <path d="m66.696 168.25h885.29v116.69h-885.29z" fill="#cfd8dc" stroke="#000"/>
  </g>
  <g transform="translate(-7.8411 -.50393)">
   <path d="m82.181 191.34c0-9.8746 8.005-17.88 17.88-17.88h73.249c4.742 0 9.2897 1.8837 12.643 5.2368 3.3531 3.3531 5.2368 7.9008 5.2368 12.643v71.516c0 9.8746-8.005 17.88-17.88 17.88h-73.249c-9.8746 0-17.88-8.005-17.88-17.88z" fill="#fff" fill-rule="evenodd"/>
   <g fill="#004065">
    <path d="m119.32 210.14v-17.188h11.594v2.0312h-9.3125v5.3281h8.0625v2.0156h-8.0625v7.8125zm14.285-14.75v-2.4375h2.1094v2.4375zm0 14.75v-12.453h2.1094v12.453zm5.2695 0v-17.188h2.1094v17.188zm13.91-4.0156 2.1719 0.28125q-0.51562 1.9062-1.9062 2.9688-1.3906 1.0469-3.5625 1.0469-2.7344 0-4.3438-1.6719-1.5938-1.6875-1.5938-4.7344 0-3.1406 1.6094-4.875 1.625-1.7344 4.2031-1.7344 2.5 0 4.0781 1.7031 1.5938 1.7031 1.5938 4.7812 0 0.1875-0.0156 0.5625h-9.2812q0.10938 2.0469 1.1562 3.1406 1.0469 1.0938 2.6094 1.0938 1.1562 0 1.9688-0.60937 0.82812-0.60938 1.3125-1.9531zm-6.9375-3.4062h6.9531q-0.14062-1.5625-0.79687-2.3594-1-1.2188-2.6094-1.2188-1.4531 0-2.4531 0.98437-0.98438 0.96875-1.0938 2.5938z"/>
    <path d="m106.42 233.63 2.1406-0.1875q0.15625 1.2812 0.70313 2.1094 0.5625 0.82813 1.7344 1.3438 1.1719 0.5 2.6406 0.5 1.2969 0 2.2969-0.375 1-0.39062 1.4844-1.0625 0.48437-0.6875 0.48437-1.4844 0-0.79688-0.46875-1.4062-0.46875-0.60938-1.5469-1.0156-0.6875-0.26562-3.0625-0.82812-2.3594-0.57813-3.3125-1.0781-1.2344-0.64062-1.8438-1.5938-0.59375-0.96875-0.59375-2.1406 0-1.3125 0.73437-2.4375 0.75-1.125 2.1562-1.7031 1.4219-0.59375 3.1562-0.59375 1.9062 0 3.3594 0.60938 1.4688 0.60937 2.25 1.8125 0.79687 1.1875 0.84375 2.7031l-2.1719 0.17188q-0.17187-1.6406-1.1875-2.4688-1.0156-0.82813-3-0.82813-2.0625 0-3.0156 0.76563-0.9375 0.75-0.9375 1.8125 0 0.92187 0.67187 1.5156 0.65625 0.60938 3.4219 1.2344 2.7812 0.625 3.8125 1.0938 1.5 0.6875 2.2031 1.75 0.71875 1.0625 0.71875 2.4375t-0.78125 2.5938q-0.78125 1.2031-2.25 1.8906-1.4688 0.67188-3.3125 0.67188-2.3281 0-3.9062-0.67188-1.5781-0.6875-2.4844-2.0469-0.89063-1.375-0.9375-3.0938zm21.117 3.625 0.3125 1.8594q-0.89062 0.20313-1.5938 0.20313-1.1562 0-1.7969-0.35938-0.625-0.375-0.89063-0.96875-0.25-0.59375-0.25-2.4844v-7.1719h-1.5469v-1.6406h1.5469v-3.0781l2.0938-1.2656v4.3438h2.125v1.6406h-2.125v7.2812q0 0.90625 0.10938 1.1719 0.125 0.25 0.375 0.40625 0.25 0.14062 0.71875 0.14062 0.34375 0 0.92187-0.0781zm2.043 1.8906v-12.453h1.8906v1.8906q0.73437-1.3281 1.3438-1.75 0.625-0.42187 1.3594-0.42187 1.0625 0 2.1719 0.6875l-0.73438 1.9531q-0.76562-0.45312-1.5469-0.45312-0.6875 0-1.25 0.42187-0.54688 0.40625-0.78125 1.1406-0.34375 1.125-0.34375 2.4688v6.5156zm16.164 0v-1.8281q-1.4531 2.1094-3.9375 2.1094-1.1094 0-2.0625-0.42187-0.95313-0.42188-1.4219-1.0625-0.45312-0.64063-0.64062-1.5625-0.14063-0.625-0.14063-1.9688v-7.7188h2.1094v6.9062q0 1.6562 0.14062 2.2344 0.1875 0.82813 0.82813 1.3125 0.65625 0.46875 1.6094 0.46875 0.9375 0 1.7656-0.48437 0.84375-0.5 1.1875-1.3281 0.34375-0.84375 0.34375-2.4375v-6.6719h2.1094v12.453zm13.316-4.5625 2.0781 0.26563q-0.34375 2.1562-1.75 3.375-1.3906 1.2031-3.4375 1.2031-2.5469 0-4.1094-1.6719-1.5469-1.6719-1.5469-4.7812 0-2.0156 0.67187-3.5312 0.67188-1.5156 2.0312-2.2656 1.3594-0.76562 2.9688-0.76562 2.0312 0 3.3125 1.0312 1.2969 1.0312 1.6562 2.9062l-2.0469 0.32812q-0.29688-1.2656-1.0469-1.8906-0.73437-0.64063-1.7969-0.64063-1.5938 0-2.5938 1.1562-0.98438 1.1406-0.98438 3.6094 0 2.5 0.95313 3.6406 0.96875 1.1406 2.5156 1.1406 1.2344 0 2.0625-0.76563 0.84375-0.76562 1.0625-2.3438zm8.4844 2.6719 0.3125 1.8594q-0.89063 0.20313-1.5938 0.20313-1.1562 0-1.7969-0.35938-0.625-0.375-0.89062-0.96875-0.25-0.59375-0.25-2.4844v-7.1719h-1.5469v-1.6406h1.5469v-3.0781l2.0938-1.2656v4.3438h2.125v1.6406h-2.125v7.2812q0 0.90625 0.10937 1.1719 0.125 0.25 0.375 0.40625 0.25 0.14062 0.71875 0.14062 0.34375 0 0.92188-0.0781z"/>
    <path d="m107.82 263.02v-13.359h1.7656v13.359zm4.6833 0v-9.6719h1.4688v1.375q1.0625-1.5938 3.0781-1.5938 0.875 0 1.6094 0.3125 0.73438 0.3125 1.0938 0.82813 0.375 0.5 0.51563 1.2031 0.0937 0.45313 0.0937 1.5938v5.9531h-1.6406v-5.8906q0-1-0.20312-1.4844-0.1875-0.5-0.67188-0.79688-0.48437-0.29687-1.1406-0.29687-1.0469 0-1.8125 0.67187-0.75 0.65625-0.75 2.5156v5.2812zm16.641 0v-1.2188q-0.90625 1.4375-2.7031 1.4375-1.1562 0-2.125-0.64062-0.96875-0.64063-1.5-1.7812-0.53125-1.1406-0.53125-2.625 0-1.4531 0.48438-2.625 0.48437-1.1875 1.4375-1.8125 0.96875-0.625 2.1719-0.625 0.875 0 1.5469 0.375 0.68749 0.35937 1.1094 0.95312v-4.7969h1.6406v13.359zm-5.1719-4.8281q0 1.8594 0.78125 2.7812 0.78125 0.92187 1.8438 0.92187 1.0781 0 1.8281-0.875 0.75-0.89062 0.75-2.6875 0-1.9844-0.76563-2.9063-0.76561-0.9375-1.8906-0.9375-1.0781 0-1.8125 0.89063-0.73438 0.89064-0.73438 2.8125zm15.907 1.7188 1.6875 0.20312q-0.40625 1.4844-1.4844 2.3125-1.0781 0.8125-2.7656 0.8125-2.125 0-3.375-1.2969-1.2344-1.3125-1.2344-3.6719 0-2.4531 1.25-3.7969 1.2656-1.3438 3.2656-1.3438 1.9375 0 3.1562 1.3281 1.2344 1.3125 1.2344 3.7032 0 0.15625 0 0.4375h-7.2188q0.0937 1.5938 0.90625 2.4531 0.8125 0.84375 2.0156 0.84375 0.90625 0 1.5469-0.46875 0.64062-0.48437 1.0156-1.5156zm-5.3906-2.6562h5.4062q-0.10938-1.2188-0.625-1.8282-0.78125-0.95312-2.0312-0.95312-1.125 0-1.9062 0.76562-0.76563 0.75-0.84375 2.0156zm8.0476 5.7656 3.5312-5.0312-3.2656-4.6406h2.0469l1.4844 2.2656q0.42188 0.64064 0.67188 1.0782 0.40625-0.59375 0.73437-1.0625l1.6406-2.2812h1.9531l-3.3438 4.5469 3.5938 5.125h-2.0156l-1.9844-3-0.51562-0.8125-2.5469 3.8125zm15.152-6.5938q0-2.3594 0.48438-3.7969 0.48437-1.4531 1.4375-2.2344 0.96875-0.78125 2.4219-0.78125 1.0781 0 1.8906 0.4375 0.8125 0.42188 1.3281 1.25 0.53125 0.8125 0.82813 1.9844 0.3125 1.1562 0.3125 3.1406 0 2.3594-0.48438 3.8125-0.48437 1.4375-1.4531 2.2344-0.95313 0.78125-2.4219 0.78125-1.9219 0-3.0312-1.3906-1.3125-1.6719-1.3125-5.4375zm1.6719 0q0 3.2969 0.76562 4.3906 0.78125 1.0781 1.9062 1.0781 1.1406 0 1.9062-1.0938 0.76563-1.0938 0.76563-4.375 0-3.2969-0.76563-4.375-0.76562-1.0781-1.9219-1.0781-1.125 0-1.7969 0.95312-0.85937 1.2188-0.85937 4.5z"/>
   </g>
  </g>
  <g transform="translate(-5.5022 -.50393)">
   <path d="m206.67 191.34c0-9.8746 8.005-17.88 17.88-17.88h73.249c4.742 0 9.2897 1.8837 12.643 5.2368 3.3531 3.3531 5.2368 7.9008 5.2368 12.643v71.516c0 9.8746-8.005 17.88-17.88 17.88h-73.249c-9.8746 0-17.88-8.005-17.88-17.88z" fill="#fff" fill-rule="evenodd"/>
   <g fill="#00517c">
    <path d="m243.81 210.14v-17.188h11.594v2.0312h-9.3125v5.3281h8.0625v2.0156h-8.0625v7.8125zm14.285-14.75v-2.4375h2.1094v2.4375zm0 14.75v-12.453h2.1094v12.453zm5.2695 0v-17.188h2.1094v17.188zm13.91-4.0156 2.1719 0.28125q-0.51563 1.9062-1.9062 2.9688-1.3906 1.0469-3.5625 1.0469-2.7344 0-4.3438-1.6719-1.5938-1.6875-1.5938-4.7344 0-3.1406 1.6094-4.875 1.625-1.7344 4.2031-1.7344 2.5 0 4.0781 1.7031 1.5938 1.7031 1.5938 4.7812 0 0.1875-0.0156 0.5625h-9.2812q0.10937 2.0469 1.1562 3.1406 1.0469 1.0938 2.6094 1.0938 1.1562 0 1.9688-0.60937 0.82813-0.60938 1.3125-1.9531zm-6.9375-3.4062h6.9531q-0.14063-1.5625-0.79688-2.3594-1-1.2188-2.6094-1.2188-1.4531 0-2.4531 0.98437-0.98437 0.96875-1.0938 2.5938z"/>
    <path d="m230.91 233.63 2.1406-0.1875q0.15625 1.2812 0.70313 2.1094 0.5625 0.82813 1.7344 1.3438 1.1719 0.5 2.6406 0.5 1.2969 0 2.2969-0.375 1-0.39062 1.4844-1.0625 0.48437-0.6875 0.48437-1.4844 0-0.79688-0.46875-1.4062-0.46875-0.60938-1.5469-1.0156-0.6875-0.26562-3.0625-0.82812-2.3594-0.57813-3.3125-1.0781-1.2344-0.64062-1.8438-1.5938-0.59375-0.96875-0.59375-2.1406 0-1.3125 0.73437-2.4375 0.75-1.125 2.1562-1.7031 1.4219-0.59375 3.1562-0.59375 1.9062 0 3.3594 0.60938 1.4688 0.60937 2.25 1.8125 0.79687 1.1875 0.84375 2.7031l-2.1719 0.17188q-0.17187-1.6406-1.1875-2.4688-1.0156-0.82813-3-0.82813-2.0625 0-3.0156 0.76563-0.9375 0.75-0.9375 1.8125 0 0.92187 0.67187 1.5156 0.65625 0.60938 3.4219 1.2344 2.7812 0.625 3.8125 1.0938 1.5 0.6875 2.2031 1.75 0.71875 1.0625 0.71875 2.4375t-0.78125 2.5938q-0.78125 1.2031-2.25 1.8906-1.4688 0.67188-3.3125 0.67188-2.3281 0-3.9062-0.67188-1.5781-0.6875-2.4844-2.0469-0.89063-1.375-0.9375-3.0938zm21.117 3.625 0.3125 1.8594q-0.89063 0.20313-1.5938 0.20313-1.1562 0-1.7969-0.35938-0.625-0.375-0.89062-0.96875-0.25-0.59375-0.25-2.4844v-7.1719h-1.5469v-1.6406h1.5469v-3.0781l2.0938-1.2656v4.3438h2.125v1.6406h-2.125v7.2812q0 0.90625 0.10937 1.1719 0.125 0.25 0.375 0.40625 0.25 0.14062 0.71875 0.14062 0.34375 0 0.92188-0.0781zm2.043 1.8906v-12.453h1.8906v1.8906q0.73438-1.3281 1.3438-1.75 0.625-0.42187 1.3594-0.42187 1.0625 0 2.1719 0.6875l-0.73437 1.9531q-0.76563-0.45312-1.5469-0.45312-0.6875 0-1.25 0.42187-0.54687 0.40625-0.78125 1.1406-0.34375 1.125-0.34375 2.4688v6.5156zm16.164 0v-1.8281q-1.4531 2.1094-3.9375 2.1094-1.1094 0-2.0625-0.42187-0.95313-0.42188-1.4219-1.0625-0.45312-0.64063-0.64062-1.5625-0.14063-0.625-0.14063-1.9688v-7.7188h2.1094v6.9062q0 1.6562 0.14062 2.2344 0.1875 0.82813 0.82813 1.3125 0.65625 0.46875 1.6094 0.46875 0.9375 0 1.7656-0.48437 0.84375-0.5 1.1875-1.3281 0.34375-0.84375 0.34375-2.4375v-6.6719h2.1094v12.453zm13.316-4.5625 2.0781 0.26563q-0.34375 2.1562-1.75 3.375-1.3906 1.2031-3.4375 1.2031-2.5469 0-4.1094-1.6719-1.5469-1.6719-1.5469-4.7812 0-2.0156 0.67187-3.5312 0.67188-1.5156 2.0312-2.2656 1.3594-0.76562 2.9688-0.76562 2.0312 0 3.3125 1.0312 1.2969 1.0312 1.6562 2.9062l-2.0469 0.32812q-0.29688-1.2656-1.0469-1.8906-0.73437-0.64063-1.7969-0.64063-1.5938 0-2.5938 1.1562-0.98438 1.1406-0.98438 3.6094 0 2.5 0.95313 3.6406 0.96875 1.1406 2.5156 1.1406 1.2344 0 2.0625-0.76563 0.84375-0.76562 1.0625-2.3438zm8.4844 2.6719 0.3125 1.8594q-0.89063 0.20313-1.5938 0.20313-1.1562 0-1.7969-0.35938-0.625-0.375-0.89062-0.96875-0.25-0.59375-0.25-2.4844v-7.1719h-1.5469v-1.6406h1.5469v-3.0781l2.0938-1.2656v4.3438h2.125v1.6406h-2.125v7.2812q0 0.90625 0.10937 1.1719 0.125 0.25 0.375 0.40625 0.25 0.14062 0.71875 0.14062 0.34375 0 0.92188-0.0781z"/>
    <path d="m232.31 263.02v-13.359h1.7656v13.359zm4.6833 0v-9.6719h1.4688v1.375q1.0625-1.5938 3.0781-1.5938 0.875 0 1.6094 0.3125 0.73438 0.3125 1.0938 0.82813 0.375 0.5 0.51563 1.2031 0.0937 0.45313 0.0937 1.5938v5.9531h-1.6406v-5.8906q0-1-0.20312-1.4844-0.1875-0.5-0.67188-0.79688-0.48437-0.29687-1.1406-0.29687-1.0469 0-1.8125 0.67187-0.75 0.65625-0.75 2.5156v5.2812zm16.641 0v-1.2188q-0.90625 1.4375-2.7031 1.4375-1.1562 0-2.125-0.64062-0.96875-0.64063-1.5-1.7812-0.53125-1.1406-0.53125-2.625 0-1.4531 0.48438-2.625 0.48437-1.1875 1.4375-1.8125 0.96875-0.625 2.1719-0.625 0.875 0 1.5469 0.375 0.6875 0.35937 1.1094 0.95312v-4.7969h1.6406v13.359zm-5.1719-4.8281q0 1.8594 0.78125 2.7812 0.78125 0.92187 1.8438 0.92187 1.0781 0 1.8281-0.875 0.75-0.89062 0.75-2.6875 0-1.9844-0.76563-2.9063-0.76562-0.9375-1.8906-0.9375-1.0781 0-1.8125 0.89063-0.73438 0.89064-0.73438 2.8125zm15.907 1.7188 1.6875 0.20312q-0.40625 1.4844-1.4844 2.3125-1.0781 0.8125-2.7656 0.8125-2.125 0-3.375-1.2969-1.2344-1.3125-1.2344-3.6719 0-2.4531 1.25-3.7969 1.2656-1.3438 3.2656-1.3438 1.9375 0 3.1562 1.3281 1.2344 1.3125 1.2344 3.7032 0 0.15625 0 0.4375h-7.2188q0.0937 1.5938 0.90625 2.4531 0.8125 0.84375 2.0156 0.84375 0.90625 0 1.5469-0.46875 0.64063-0.48437 1.0156-1.5156zm-5.3906-2.6562h5.4062q-0.10937-1.2188-0.625-1.8282-0.78125-0.95312-2.0312-0.95312-1.125 0-1.9062 0.76562-0.76562 0.75-0.84375 2.0156zm8.0476 5.7656 3.5312-5.0312-3.2656-4.6406h2.0469l1.4844 2.2656q0.42188 0.64064 0.67188 1.0782 0.40625-0.59375 0.73437-1.0625l1.6406-2.2812h1.9531l-3.3438 4.5469 3.5938 5.125h-2.0156l-1.9844-3-0.51562-0.8125-2.5469 3.8125zm21.324 0h-1.6406v-10.453q-0.59375 0.5625-1.5625 1.1406-0.95313 0.5625-1.7188 0.84375v-1.5938q1.375-0.64063 2.4062-1.5625 1.0312-0.92188 1.4531-1.7812h1.0625z"/>
   </g>
  </g>
  <g transform="translate(-3.1711 -.50393)">
   <path d="m331.18 191.34c0-9.8746 8.005-17.88 17.88-17.88h73.249c4.742 0 9.2897 1.8837 12.643 5.2368 3.3531 3.3531 5.2368 7.9008 5.2368 12.643v71.516c0 9.8746-8.005 17.88-17.88 17.88h-73.249c-9.8746 0-17.88-8.005-17.88-17.88z" fill="#fff" fill-rule="evenodd"/>
   <g fill="#00517c">
    <path d="m368.31 210.14v-17.188h11.594v2.0312h-9.3125v5.3281h8.0625v2.0156h-8.0625v7.8125zm14.285-14.75v-2.4375h2.1094v2.4375zm0 14.75v-12.453h2.1094v12.453zm5.2695 0v-17.188h2.1094v17.188zm13.91-4.0156 2.1719 0.28125q-0.51563 1.9062-1.9062 2.9688-1.3906 1.0469-3.5625 1.0469-2.7344 0-4.3438-1.6719-1.5938-1.6875-1.5938-4.7344 0-3.1406 1.6094-4.875 1.625-1.7344 4.2031-1.7344 2.5 0 4.0781 1.7031 1.5938 1.7031 1.5938 4.7812 0 0.1875-0.0156 0.5625h-9.2812q0.10937 2.0469 1.1562 3.1406 1.0469 1.0938 2.6094 1.0938 1.1562 0 1.9688-0.60937 0.82813-0.60938 1.3125-1.9531zm-6.9375-3.4062h6.9531q-0.14063-1.5625-0.79688-2.3594-1-1.2188-2.6094-1.2188-1.4531 0-2.4531 0.98437-0.98437 0.96875-1.0938 2.5938z"/>
    <path d="m355.42 233.63 2.1406-0.1875q0.15625 1.2812 0.70313 2.1094 0.5625 0.82813 1.7344 1.3438 1.1719 0.5 2.6406 0.5 1.2969 0 2.2969-0.375 1-0.39062 1.4844-1.0625 0.48437-0.6875 0.48437-1.4844 0-0.79688-0.46875-1.4062-0.46875-0.60938-1.5469-1.0156-0.6875-0.26562-3.0625-0.82812-2.3594-0.57813-3.3125-1.0781-1.2344-0.64062-1.8438-1.5938-0.59375-0.96875-0.59375-2.1406 0-1.3125 0.73437-2.4375 0.75-1.125 2.1562-1.7031 1.4219-0.59375 3.1562-0.59375 1.9062 0 3.3594 0.60938 1.4688 0.60937 2.25 1.8125 0.79687 1.1875 0.84375 2.7031l-2.1719 0.17188q-0.17187-1.6406-1.1875-2.4688-1.0156-0.82813-3-0.82813-2.0625 0-3.0156 0.76563-0.9375 0.75-0.9375 1.8125 0 0.92187 0.67187 1.5156 0.65625 0.60938 3.4219 1.2344 2.7812 0.625 3.8125 1.0938 1.5 0.6875 2.2031 1.75 0.71875 1.0625 0.71875 2.4375t-0.78125 2.5938q-0.78125 1.2031-2.25 1.8906-1.4688 0.67188-3.3125 0.67188-2.3281 0-3.9062-0.67188-1.5781-0.6875-2.4844-2.0469-0.89063-1.375-0.9375-3.0938zm21.117 3.625 0.3125 1.8594q-0.89063 0.20313-1.5938 0.20313-1.1562 0-1.7969-0.35938-0.625-0.375-0.89062-0.96875-0.25-0.59375-0.25-2.4844v-7.1719h-1.5469v-1.6406h1.5469v-3.0781l2.0938-1.2656v4.3438h2.125v1.6406h-2.125v7.2812q0 0.90625 0.10937 1.1719 0.125 0.25 0.375 0.40625 0.25 0.14062 0.71875 0.14062 0.34375 0 0.92188-0.0781zm2.043 1.8906v-12.453h1.8906v1.8906q0.73438-1.3281 1.3438-1.75 0.625-0.42187 1.3594-0.42187 1.0625 0 2.1719 0.6875l-0.73437 1.9531q-0.76563-0.45312-1.5469-0.45312-0.6875 0-1.25 0.42187-0.54687 0.40625-0.78125 1.1406-0.34375 1.125-0.34375 2.4688v6.5156zm16.164 0v-1.8281q-1.4531 2.1094-3.9375 2.1094-1.1094 0-2.0625-0.42187-0.95313-0.42188-1.4219-1.0625-0.45312-0.64063-0.64062-1.5625-0.14063-0.625-0.14063-1.9688v-7.7188h2.1094v6.9062q0 1.6562 0.14062 2.2344 0.1875 0.82813 0.82813 1.3125 0.65625 0.46875 1.6094 0.46875 0.9375 0 1.7656-0.48437 0.84375-0.5 1.1875-1.3281 0.34375-0.84375 0.34375-2.4375v-6.6719h2.1094v12.453zm13.316-4.5625 2.0781 0.26563q-0.34375 2.1562-1.75 3.375-1.3906 1.2031-3.4375 1.2031-2.5469 0-4.1094-1.6719-1.5469-1.6719-1.5469-4.7812 0-2.0156 0.67187-3.5312 0.67188-1.5156 2.0312-2.2656 1.3594-0.76562 2.9688-0.76562 2.0312 0 3.3125 1.0312 1.2969 1.0312 1.6562 2.9062l-2.0469 0.32812q-0.29688-1.2656-1.0469-1.8906-0.73437-0.64063-1.7969-0.64063-1.5938 0-2.5938 1.1562-0.98438 1.1406-0.98438 3.6094 0 2.5 0.95313 3.6406 0.96875 1.1406 2.5156 1.1406 1.2344 0 2.0625-0.76563 0.84375-0.76562 1.0625-2.3438zm8.4844 2.6719 0.3125 1.8594q-0.89063 0.20313-1.5938 0.20313-1.1562 0-1.7969-0.35938-0.625-0.375-0.89062-0.96875-0.25-0.59375-0.25-2.4844v-7.1719h-1.5469v-1.6406h1.5469v-3.0781l2.0938-1.2656v4.3438h2.125v1.6406h-2.125v7.2812q0 0.90625 0.10937 1.1719 0.125 0.25 0.375 0.40625 0.25 0.14062 0.71875 0.14062 0.34375 0 0.92188-0.0781z"/>
    <path d="m356.82 263.02v-13.359h1.7656v13.359zm4.6833 0v-9.6719h1.4688v1.375q1.0625-1.5938 3.0781-1.5938 0.875 0 1.6094 0.3125 0.73437 0.3125 1.0938 0.82813 0.375 0.5 0.51562 1.2031 0.0937 0.45313 0.0937 1.5938v5.9531h-1.6406v-5.8906q0-1-0.20313-1.4844-0.1875-0.5-0.67187-0.79688-0.48438-0.29687-1.1406-0.29687-1.0469 0-1.8125 0.67187-0.75 0.65625-0.75 2.5156v5.2812zm16.641 0v-1.2188q-0.90625 1.4375-2.7031 1.4375-1.1562 0-2.125-0.64062-0.96875-0.64063-1.5-1.7812-0.53125-1.1406-0.53125-2.625 0-1.4531 0.48438-2.625 0.48437-1.1875 1.4375-1.8125 0.96875-0.625 2.1719-0.625 0.875 0 1.5469 0.375 0.6875 0.35937 1.1094 0.95312v-4.7969h1.6406v13.359zm-5.1719-4.8281q0 1.8594 0.78125 2.7812 0.78125 0.92187 1.8438 0.92187 1.0781 0 1.8281-0.875 0.75-0.89062 0.75-2.6875 0-1.9844-0.76563-2.9063-0.76562-0.9375-1.8906-0.9375-1.0781 0-1.8125 0.89063-0.73438 0.89064-0.73438 2.8125zm15.907 1.7188 1.6875 0.20312q-0.40625 1.4844-1.4844 2.3125-1.0781 0.8125-2.7656 0.8125-2.125 0-3.375-1.2969-1.2344-1.3125-1.2344-3.6719 0-2.4531 1.25-3.7969 1.2656-1.3438 3.2656-1.3438 1.9375 0 3.1562 1.3281 1.2344 1.3125 1.2344 3.7032 0 0.15625 0 0.4375h-7.2188q0.0937 1.5938 0.90625 2.4531 0.8125 0.84375 2.0156 0.84375 0.90625 0 1.5469-0.46875 0.64062-0.48437 1.0156-1.5156zm-5.3906-2.6562h5.4062q-0.10938-1.2188-0.625-1.8282-0.78125-0.95312-2.0312-0.95312-1.125 0-1.9062 0.76562-0.76563 0.75-0.84375 2.0156zm8.0476 5.7656 3.5312-5.0312-3.2656-4.6406h2.0469l1.4844 2.2656q0.42187 0.64064 0.67187 1.0782 0.40625-0.59375 0.73438-1.0625l1.6406-2.2812h1.9531l-3.3438 4.5469 3.5938 5.125h-2.0156l-1.9844-3-0.51563-0.8125-2.5469 3.8125zm23.761-1.5781v1.5781h-8.8281q-0.0156-0.59375 0.1875-1.1406 0.34375-0.90625 1.0781-1.7812 0.75-0.875 2.1562-2.0156 2.1719-1.7812 2.9375-2.8281 0.76562-1.0469 0.76562-1.9688 0-0.98438-0.70312-1.6406-0.6875-0.67187-1.8125-0.67187-1.1875 0-1.9062 0.71875-0.70313 0.70312-0.70313 1.9531l-1.6875-0.17187q0.17188-1.8906 1.2969-2.875 1.1406-0.98438 3.0312-0.98438 1.9219 0 3.0469 1.0625t1.125 2.6406q0 0.79687-0.32812 1.5781-0.32813 0.78125-1.0938 1.6406-0.75 0.84375-2.5312 2.3438-1.4688 1.2344-1.8906 1.6875-0.42187 0.4375-0.6875 0.875z"/>
   </g>
  </g>
  <g fill="#000">
   <path d="m8.1575 284.74v-116.28h55.024v116.28z" fill-opacity="0" fill-rule="evenodd"/>
   <path d="m33.343 241.78q0.95312 0.67187 1.4375 1.875 0.48438 1.2031 0.48438 2.8125 0 1.625-0.76562 2.8906-0.76562 1.25-2.1562 1.9375-1.4063 0.6875-3.2656 0.70313h-1.1562q-2.9844 0-4.6406-1.3906-1.6562-1.4062-1.6562-3.9375 0-2.0781 1.0625-3.3438 1.0625-1.2656 3.0156-1.5469v1.75q-2.625 0.48437-2.625 3.125 0 1.7656 1.2344 2.6719t3.5625 0.90625h1.0938q2.2344 0 3.5469-1.0156 1.3125-1.0156 1.3125-2.7656 0-0.98437-0.21875-1.7188-0.21875-0.73437-0.73438-1.2188h-2.9844v3.0781h-1.4219v-4.8125zm1.7344-4.489v1.6875h-14v-1.6875zm-5.0156-2.2462q-1.4531 0-2.6094-0.5625-1.1562-0.57812-1.7812-1.5938-0.625-1.0156-0.625-2.3125 0-2.0156 1.3906-3.25 1.3906-1.25 3.7031-1.25h0.125q1.4375 0 2.5781 0.54688 1.1406 0.54687 1.7812 1.5781 0.64062 1.0156 0.64062 2.3594 0 2-1.3906 3.25-1.4062 1.2344-3.7031 1.2344zm0.20312-1.6875q1.6406 0 2.6406-0.76562 0.98438-0.76563 0.98438-2.0312 0-1.2969-1-2.0469-1.0156-0.75-2.8281-0.75-1.625 0-2.625 0.76563-1.0156 0.76562-1.0156 2.0469 0 1.25 1 2.0156 0.98438 0.76562 2.8438 0.76562zm0-17.749q2.25 0 3.625 1.0469 1.375 1.0312 1.375 2.7812 0 1.875-1.3281 2.8906l1.1406 0.0781v1.5469h-14v-1.6719h5.2344q-1.2656-1.0312-1.2656-2.8125 0-1.7969 1.3594-2.8281 1.3438-1.0312 3.7031-1.0312zm-0.20312 1.6875q-1.7188 0-2.6562 0.67188-0.9375 0.65625-0.9375 1.9062 0 1.6719 1.5469 2.4062h4.2656q1.5469-0.78125 1.5469-2.4219 0-1.2188-0.9375-1.8906-0.9375-0.67188-2.8281-0.67188zm5.0156-9.8887q-0.29688 0.14062-1.0312 0.23437 1.2188 1.1719 1.2188 2.8125 0 1.4531-0.82812 2.3906-0.82812 0.92187-2.0938 0.92187-1.5313 0-2.375-1.1562-0.85938-1.1719-0.85938-3.2969v-1.6406h-0.78125q-0.89062 0-1.4062 0.53125-0.53125 0.51563-0.53125 1.5469 0 0.90625 0.46875 1.5156 0.45312 0.60938 1.0938 0.60938v1.7031q-0.73438 0-1.4219-0.51562-0.6875-0.53125-1.0781-1.4219-0.40625-0.90625-0.40625-1.9844 0-1.7031 0.85938-2.6719 0.84375-0.96875 2.3281-1h4.5313q1.3594 0 2.1719-0.34375h0.14062zm-1.2812 2.7969q0-0.79687-0.40625-1.5-0.42188-0.71875-1.0781-1.0312h-2.0156v1.3125q0 3.1094 1.8125 3.1094 0.79688 0 1.25-0.53125 0.4375-0.53125 0.4375-1.3594zm1.2812-8.6948v1.6875h-14v-1.6875z"/>
   <path d="m53.609 239.37v5.5469l3.4688 1.25v1.8125l-13.266-5.0625v-1.5312l13.266-5.0781v1.7969zm-1.4375 5.0312v-4.5156l-6.2031 2.2656zm-3.4375-14.389q-0.0625 0.39063-0.0625 0.84375 0 1.6562 1.4062 2.25h7v1.6719h-9.8594v-1.6406l1.1406-0.0156q-1.3125-0.82813-1.3125-2.3594 0-0.48437 0.125-0.75zm0-6.3129q-0.0625 0.39063-0.0625 0.84375 0 1.6562 1.4062 2.25h7v1.6719h-9.8594v-1.6406l1.1406-0.0156q-1.3125-0.82813-1.3125-2.3594 0-0.48437 0.125-0.75zm8.3438-7.2608q-0.29688 0.14062-1.0312 0.23437 1.2188 1.1719 1.2188 2.8125 0 1.4531-0.82812 2.3906-0.82812 0.92187-2.0938 0.92187-1.5312 0-2.375-1.1562-0.85938-1.1719-0.85938-3.2969v-1.6406h-0.78125q-0.89062 0-1.4062 0.53125-0.53125 0.51563-0.53125 1.5469 0 0.90625 0.46875 1.5156 0.45312 0.60938 1.0938 0.60938v1.7031q-0.73438 0-1.4219-0.51562-0.6875-0.53125-1.0781-1.4219-0.40625-0.90625-0.40625-1.9844 0-1.7031 0.85938-2.6719 0.84375-0.96875 2.3281-1h4.5312q1.3594 0 2.1719-0.34375h0.14062zm-1.2812 2.7969q0-0.79687-0.40625-1.5-0.42188-0.71875-1.0781-1.0312h-2.0156v1.3125q0 3.1094 1.8125 3.1094 0.79688 0 1.25-0.53125 0.4375-0.53125 0.4375-1.3594zm-1.1875-9.9488-7.3906-2.2969v-1.7969l11.375 3.9531q2.4688 0.92187 2.4688 2.9219l-0.03125 0.32813-0.125 0.625h-1.3594l0.03125-0.45313q0-0.85937-0.34375-1.3281-0.34375-0.48438-1.2656-0.79688l-1-0.375-9.75 3.5156v-1.8438z"/>
  </g>
  <g transform="translate(-4.3386 -.50393)">
   <path d="m459.18 191.34c0-9.8746 8.005-17.88 17.88-17.88h73.249c4.742 0 9.2897 1.8837 12.643 5.2368 3.3531 3.3531 5.2368 7.9008 5.2368 12.643v71.516c0 9.8746-8.005 17.88-17.88 17.88h-73.249c-9.8746 0-17.88-8.005-17.88-17.88z" fill="#558b2f" fill-rule="evenodd"/>
   <g fill="#fff">
    <path d="m496.31 210.14v-17.188h11.594v2.0312h-9.3125v5.3281h8.0625v2.0156h-8.0625v7.8125zm14.285-14.75v-2.4375h2.1094v2.4375zm0 14.75v-12.453h2.1094v12.453zm5.2696 0v-17.188h2.1094v17.188zm13.91-4.0156 2.1719 0.28125q-0.51563 1.9062-1.9062 2.9688-1.3906 1.0469-3.5625 1.0469-2.7344 0-4.3438-1.6719-1.5938-1.6875-1.5938-4.7344 0-3.1406 1.6094-4.875 1.625-1.7344 4.2031-1.7344 2.5 0 4.0781 1.7031 1.5938 1.7031 1.5938 4.7812 0 0.1875-0.0156 0.5625h-9.2812q0.10937 2.0469 1.1562 3.1406 1.0469 1.0938 2.6094 1.0938 1.1562 0 1.9688-0.60937 0.82813-0.60938 1.3125-1.9531zm-6.9375-3.4062h6.9531q-0.14063-1.5625-0.79688-2.3594-1-1.2188-2.6094-1.2188-1.4531 0-2.4531 0.98437-0.98437 0.96875-1.0938 2.5938z"/>
    <path d="m483.42 233.63 2.1406-0.1875q0.15625 1.2812 0.70313 2.1094 0.5625 0.82813 1.7344 1.3438 1.1719 0.5 2.6406 0.5 1.2969 0 2.2969-0.375 1-0.39062 1.4844-1.0625 0.48437-0.6875 0.48437-1.4844 0-0.79688-0.46875-1.4062-0.46875-0.60938-1.5469-1.0156-0.6875-0.26562-3.0625-0.82812-2.3594-0.57813-3.3125-1.0781-1.2344-0.64062-1.8438-1.5938-0.59375-0.96875-0.59375-2.1406 0-1.3125 0.73437-2.4375 0.75-1.125 2.1562-1.7031 1.4219-0.59375 3.1562-0.59375 1.9062 0 3.3594 0.60938 1.4688 0.60937 2.25 1.8125 0.79687 1.1875 0.84375 2.7031l-2.1719 0.17188q-0.17187-1.6406-1.1875-2.4688-1.0156-0.82813-3-0.82813-2.0625 0-3.0156 0.76563-0.9375 0.75-0.9375 1.8125 0 0.92187 0.67187 1.5156 0.65625 0.60938 3.4219 1.2344 2.7812 0.625 3.8125 1.0938 1.5 0.6875 2.2031 1.75 0.71875 1.0625 0.71875 2.4375t-0.78125 2.5938q-0.78125 1.2031-2.25 1.8906-1.4688 0.67188-3.3125 0.67188-2.3281 0-3.9062-0.67188-1.5781-0.6875-2.4844-2.0469-0.89063-1.375-0.9375-3.0938zm21.117 3.625 0.3125 1.8594q-0.89063 0.20313-1.5938 0.20313-1.1562 0-1.7969-0.35938-0.625-0.375-0.89062-0.96875-0.25-0.59375-0.25-2.4844v-7.1719h-1.5469v-1.6406h1.5469v-3.0781l2.0938-1.2656v4.3438h2.125v1.6406h-2.125v7.2812q0 0.90625 0.10937 1.1719 0.125 0.25 0.375 0.40625 0.25 0.14062 0.71875 0.14062 0.34375 0 0.92188-0.0781zm2.043 1.8906v-12.453h1.8906v1.8906q0.73438-1.3281 1.3438-1.75 0.625-0.42187 1.3594-0.42187 1.0625 0 2.1719 0.6875l-0.73437 1.9531q-0.76566-0.45312-1.5469-0.45312-0.6875 0-1.25 0.42187-0.54687 0.40625-0.78125 1.1406-0.34375 1.125-0.34375 2.4688v6.5156zm16.164 0v-1.8281q-1.4531 2.1094-3.9375 2.1094-1.1094 0-2.0625-0.42187-0.95313-0.42188-1.4219-1.0625-0.45312-0.64063-0.64062-1.5625-0.14063-0.625-0.14063-1.9688v-7.7188h2.1094v6.9062q0 1.6562 0.14062 2.2344 0.1875 0.82813 0.82813 1.3125 0.65625 0.46875 1.6094 0.46875 0.9375 0 1.7656-0.48437 0.84375-0.5 1.1875-1.3281 0.34375-0.84375 0.34375-2.4375v-6.6719h2.1094v12.453zm13.316-4.5625 2.0781 0.26563q-0.34375 2.1562-1.75 3.375-1.3906 1.2031-3.4375 1.2031-2.5469 0-4.1094-1.6719-1.5469-1.6719-1.5469-4.7812 0-2.0156 0.67188-3.5312 0.67187-1.5156 2.0312-2.2656 1.3594-0.76562 2.9688-0.76562 2.0312 0 3.3125 1.0312 1.2969 1.0312 1.6562 2.9062l-2.0469 0.32812q-0.29687-1.2656-1.0469-1.8906-0.73438-0.64063-1.7969-0.64063-1.5938 0-2.5938 1.1562-0.98437 1.1406-0.98437 3.6094 0 2.5 0.95312 3.6406 0.96875 1.1406 2.5156 1.1406 1.2344 0 2.0625-0.76563 0.84375-0.76562 1.0625-2.3438zm8.4844 2.6719 0.3125 1.8594q-0.89062 0.20313-1.5938 0.20313-1.1562 0-1.7969-0.35938-0.625-0.375-0.89063-0.96875-0.25-0.59375-0.25-2.4844v-7.1719h-1.5469v-1.6406h1.5469v-3.0781l2.0938-1.2656v4.3438h2.125v1.6406h-2.125v7.2812q0 0.90625 0.10938 1.1719 0.125 0.25 0.375 0.40625 0.25 0.14062 0.71875 0.14062 0.34375 0 0.92187-0.0781z"/>
    <path d="m484.82 263.02v-13.359h1.7656v13.359zm4.6833 0v-9.6719h1.4688v1.375q1.0625-1.5938 3.0781-1.5938 0.875 0 1.6094 0.3125 0.73437 0.3125 1.0938 0.82813 0.375 0.5 0.51562 1.2031 0.0937 0.45313 0.0937 1.5938v5.9531h-1.6406v-5.8906q0-1-0.20313-1.4844-0.1875-0.5-0.67187-0.79688-0.48438-0.29687-1.1406-0.29687-1.0469 0-1.8125 0.67187-0.75 0.65625-0.75 2.5156v5.2812zm16.641 0v-1.2188q-0.90625 1.4375-2.7031 1.4375-1.1562 0-2.125-0.64062-0.96875-0.64063-1.5-1.7812-0.53125-1.1406-0.53125-2.625 0-1.4531 0.48438-2.625 0.48437-1.1875 1.4375-1.8125 0.96875-0.625 2.1719-0.625 0.875 0 1.5469 0.375 0.6875 0.35937 1.1094 0.95312v-4.7969h1.6406v13.359zm-5.1719-4.8281q0 1.8594 0.78125 2.7812 0.78125 0.92187 1.8438 0.92187 1.0781 0 1.8281-0.875 0.75-0.89062 0.75-2.6875 0-1.9844-0.76563-2.9063-0.76562-0.9375-1.8906-0.9375-1.0781 0-1.8125 0.89063-0.73438 0.89064-0.73438 2.8125zm15.907 1.7188 1.6875 0.20312q-0.40625 1.4844-1.4844 2.3125-1.0781 0.8125-2.7656 0.8125-2.125 0-3.375-1.2969-1.2344-1.3125-1.2344-3.6719 0-2.4531 1.25-3.7969 1.2656-1.3438 3.2656-1.3438 1.9375 0 3.1562 1.3281 1.2344 1.3125 1.2344 3.7032 0 0.15625 0 0.4375h-7.2188q0.0937 1.5938 0.90628 2.4531 0.8125 0.84375 2.0156 0.84375 0.90625 0 1.5469-0.46875 0.64062-0.48437 1.0156-1.5156zm-5.3906-2.6562h5.4063q-0.10938-1.2188-0.625-1.8282-0.78125-0.95312-2.0312-0.95312-1.125 0-1.9062 0.76562-0.76566 0.75-0.84378 2.0156zm8.0476 5.7656 3.5312-5.0312-3.2656-4.6406h2.0469l1.4844 2.2656q0.42187 0.64064 0.67187 1.0782 0.40625-0.59375 0.73438-1.0625l1.6406-2.2812h1.9531l-3.3438 4.5469 3.5938 5.125h-2.0156l-1.9844-3-0.51563-0.8125-2.5469 3.8125zm15.152-3.5312 1.6406-0.21875q0.28125 1.4062 0.95312 2.0156 0.6875 0.60937 1.6562 0.60937 1.1562 0 1.9531-0.79687 0.79687-0.79688 0.79687-1.9844 0-1.125-0.73437-1.8594-0.73438-0.73438-1.875-0.73438-0.46875 0-1.1562 0.17188l0.1875-1.4375q0.15625 0.0156 0.26562 0.0156 1.0469 0 1.875-0.54687 0.84375-0.54688 0.84375-1.6719 0-0.90625-0.60937-1.5-0.60938-0.59375-1.5781-0.59375-0.95312 0-1.5938 0.60938-0.64062 0.59375-0.8125 1.7969l-1.6406-0.29687q0.29687-1.6406 1.3594-2.5469t2.6562-0.90625q1.0938 0 2 0.46875 0.92188 0.46875 1.4062 1.2812 0.5 0.8125 0.5 1.7188 0 0.85938-0.46875 1.5781-0.46875 0.70312-1.375 1.125 1.1875 0.28126 1.8438 1.1406t0.65625 2.1562q0 1.7344-1.2812 2.9531-1.2656 1.2188-3.2188 1.2188-1.7656 0-2.9219-1.0469-1.1562-1.0469-1.3281-2.7188z"/>
   </g>
  </g>
  <g transform="translate(-5.5061 -.50393)">
   <path d="m587.18 191.34c0-9.8746 8.005-17.88 17.88-17.88h73.249c4.742 0 9.2897 1.8837 12.643 5.2368 3.3531 3.3531 5.2368 7.9008 5.2368 12.643v71.516c0 9.8746-8.005 17.88-17.88 17.88h-73.249c-9.8746 0-17.88-8.005-17.88-17.88z" fill="#fff" fill-rule="evenodd"/>
   <g fill="#00517c">
    <path d="m624.31 210.14v-17.188h11.594v2.0312h-9.3125v5.3281h8.0625v2.0156h-8.0625v7.8125zm14.285-14.75v-2.4375h2.1094v2.4375zm0 14.75v-12.453h2.1094v12.453zm5.2695 0v-17.188h2.1094v17.188zm13.91-4.0156 2.1719 0.28125q-0.51563 1.9062-1.9062 2.9688-1.3906 1.0469-3.5625 1.0469-2.7344 0-4.3438-1.6719-1.5938-1.6875-1.5938-4.7344 0-3.1406 1.6094-4.875 1.625-1.7344 4.2031-1.7344 2.5 0 4.0781 1.7031 1.5938 1.7031 1.5938 4.7812 0 0.1875-0.0156 0.5625h-9.2812q0.10937 2.0469 1.1562 3.1406 1.0469 1.0938 2.6094 1.0938 1.1562 0 1.9688-0.60937 0.82813-0.60938 1.3125-1.9531zm-6.9375-3.4062h6.9531q-0.14063-1.5625-0.79688-2.3594-1-1.2188-2.6094-1.2188-1.4531 0-2.4531 0.98437-0.98437 0.96875-1.0938 2.5938z"/>
    <path d="m611.42 233.63 2.1406-0.1875q0.15625 1.2812 0.70312 2.1094 0.5625 0.82813 1.7344 1.3438 1.1719 0.5 2.6406 0.5 1.2969 0 2.2969-0.375 1-0.39062 1.4844-1.0625 0.48438-0.6875 0.48438-1.4844 0-0.79688-0.46875-1.4062-0.46875-0.60938-1.5469-1.0156-0.6875-0.26562-3.0625-0.82812-2.3594-0.57813-3.3125-1.0781-1.2344-0.64062-1.8438-1.5938-0.59375-0.96875-0.59375-2.1406 0-1.3125 0.73438-2.4375 0.75-1.125 2.1562-1.7031 1.4219-0.59375 3.1562-0.59375 1.9062 0 3.3594 0.60938 1.4688 0.60937 2.25 1.8125 0.79688 1.1875 0.84375 2.7031l-2.1719 0.17188q-0.17188-1.6406-1.1875-2.4688-1.0156-0.82813-3-0.82813-2.0625 0-3.0156 0.76563-0.9375 0.75-0.9375 1.8125 0 0.92187 0.67188 1.5156 0.65625 0.60938 3.4219 1.2344 2.7812 0.625 3.8125 1.0938 1.5 0.6875 2.2031 1.75 0.71875 1.0625 0.71875 2.4375t-0.78125 2.5938q-0.78125 1.2031-2.25 1.8906-1.4688 0.67188-3.3125 0.67188-2.3281 0-3.9062-0.67188-1.5781-0.6875-2.4844-2.0469-0.89062-1.375-0.9375-3.0938zm21.117 3.625 0.3125 1.8594q-0.89063 0.20313-1.5938 0.20313-1.1562 0-1.7969-0.35938-0.625-0.375-0.89062-0.96875-0.25-0.59375-0.25-2.4844v-7.1719h-1.5469v-1.6406h1.5469v-3.0781l2.0938-1.2656v4.3438h2.125v1.6406h-2.125v7.2812q0 0.90625 0.10937 1.1719 0.125 0.25 0.375 0.40625 0.25 0.14062 0.71875 0.14062 0.34375 0 0.92188-0.0781zm2.043 1.8906v-12.453h1.8906v1.8906q0.73438-1.3281 1.3438-1.75 0.625-0.42187 1.3594-0.42187 1.0625 0 2.1719 0.6875l-0.73437 1.9531q-0.76563-0.45312-1.5469-0.45312-0.6875 0-1.25 0.42187-0.54687 0.40625-0.78125 1.1406-0.34375 1.125-0.34375 2.4688v6.5156zm16.164 0v-1.8281q-1.4531 2.1094-3.9375 2.1094-1.1094 0-2.0625-0.42187-0.95313-0.42188-1.4219-1.0625-0.45312-0.64063-0.64062-1.5625-0.14063-0.625-0.14063-1.9688v-7.7188h2.1094v6.9062q0 1.6562 0.14062 2.2344 0.1875 0.82813 0.82813 1.3125 0.65625 0.46875 1.6094 0.46875 0.9375 0 1.7656-0.48437 0.84375-0.5 1.1875-1.3281 0.34375-0.84375 0.34375-2.4375v-6.6719h2.1094v12.453zm13.316-4.5625 2.0781 0.26563q-0.34375 2.1562-1.75 3.375-1.3906 1.2031-3.4375 1.2031-2.5469 0-4.1094-1.6719-1.5469-1.6719-1.5469-4.7812 0-2.0156 0.67187-3.5312 0.67188-1.5156 2.0312-2.2656 1.3594-0.76562 2.9688-0.76562 2.0312 0 3.3125 1.0312 1.2969 1.0312 1.6562 2.9062l-2.0469 0.32812q-0.29688-1.2656-1.0469-1.8906-0.73437-0.64063-1.7969-0.64063-1.5938 0-2.5938 1.1562-0.98438 1.1406-0.98438 3.6094 0 2.5 0.95313 3.6406 0.96875 1.1406 2.5156 1.1406 1.2344 0 2.0625-0.76563 0.84375-0.76562 1.0625-2.3438zm8.4844 2.6719 0.3125 1.8594q-0.89063 0.20313-1.5938 0.20313-1.1562 0-1.7969-0.35938-0.625-0.375-0.89062-0.96875-0.25-0.59375-0.25-2.4844v-7.1719h-1.5469v-1.6406h1.5469v-3.0781l2.0938-1.2656v4.3438h2.125v1.6406h-2.125v7.2812q0 0.90625 0.10937 1.1719 0.125 0.25 0.375 0.40625 0.25 0.14062 0.71875 0.14062 0.34375 0 0.92188-0.0781z"/>
    <path d="m612.82 263.02v-13.359h1.7656v13.359zm4.6833 0v-9.6719h1.4688v1.375q1.0625-1.5938 3.0781-1.5938 0.875 0 1.6094 0.3125 0.73437 0.3125 1.0938 0.82813 0.375 0.5 0.51562 1.2031 0.0937 0.45313 0.0937 1.5938v5.9531h-1.6406v-5.8906q0-1-0.20313-1.4844-0.1875-0.5-0.67187-0.79688-0.48438-0.29687-1.1406-0.29687-1.0469 0-1.8125 0.67187-0.75 0.65625-0.75 2.5156v5.2812zm16.641 0v-1.2188q-0.90625 1.4375-2.7031 1.4375-1.1562 0-2.125-0.64062-0.96875-0.64063-1.5-1.7812-0.53125-1.1406-0.53125-2.625 0-1.4531 0.48438-2.625 0.48437-1.1875 1.4375-1.8125 0.96875-0.625 2.1719-0.625 0.875 0 1.5469 0.375 0.6875 0.35937 1.1094 0.95312v-4.7969h1.6406v13.359zm-5.1719-4.8281q0 1.8594 0.78125 2.7812 0.78125 0.92187 1.8438 0.92187 1.0781 0 1.8281-0.875 0.75-0.89062 0.75-2.6875 0-1.9844-0.76563-2.9063-0.76562-0.9375-1.8906-0.9375-1.0781 0-1.8125 0.89063-0.73438 0.89064-0.73438 2.8125zm15.907 1.7188 1.6875 0.20312q-0.40625 1.4844-1.4844 2.3125-1.0781 0.8125-2.7656 0.8125-2.125 0-3.375-1.2969-1.2344-1.3125-1.2344-3.6719 0-2.4531 1.25-3.7969 1.2656-1.3438 3.2656-1.3438 1.9375 0 3.1562 1.3281 1.2344 1.3125 1.2344 3.7032 0 0.15625 0 0.4375h-7.2188q0.0937 1.5938 0.90625 2.4531 0.8125 0.84375 2.0156 0.84375 0.90625 0 1.5469-0.46875 0.64062-0.48437 1.0156-1.5156zm-5.3906-2.6562h5.4062q-0.10938-1.2188-0.625-1.8282-0.78125-0.95312-2.0312-0.95312-1.125 0-1.9062 0.76562-0.76563 0.75-0.84375 2.0156zm8.0475 5.7656 3.5312-5.0312-3.2656-4.6406h2.0469l1.4844 2.2656q0.42187 0.64064 0.67187 1.0782 0.40625-0.59375 0.73438-1.0625l1.6406-2.2812h1.9531l-3.3438 4.5469 3.5938 5.125h-2.0156l-1.9844-3-0.51563-0.8125-2.5469 3.8125zm20.402 0v-3.2031h-5.7969v-1.5l6.0938-8.6563h1.3438v8.6563h1.7969v1.5h-1.7969v3.2031zm0-4.7031v-6.0156l-4.1875 6.0156z"/>
   </g>
  </g>
  <g transform="translate(-6.6736 -.50393)">
   <path d="m715.18 191.34c0-9.8746 8.005-17.88 17.88-17.88h73.249c4.742 0 9.2897 1.8837 12.643 5.2368 3.3531 3.3531 5.2368 7.9008 5.2368 12.643v71.516c0 9.8746-8.005 17.88-17.88 17.88h-73.249c-9.8746 0-17.88-8.005-17.88-17.88z" fill="#fff" fill-rule="evenodd"/>
   <g fill="#00517c">
    <path d="m752.31 210.14v-17.188h11.594v2.0312h-9.3125v5.3281h8.0625v2.0156h-8.0625v7.8125zm14.285-14.75v-2.4375h2.1094v2.4375zm0 14.75v-12.453h2.1094v12.453zm5.2695 0v-17.188h2.1094v17.188zm13.91-4.0156 2.1719 0.28125q-0.51563 1.9062-1.9062 2.9688-1.3906 1.0469-3.5625 1.0469-2.7344 0-4.3438-1.6719-1.5938-1.6875-1.5938-4.7344 0-3.1406 1.6094-4.875 1.625-1.7344 4.2031-1.7344 2.5 0 4.0781 1.7031 1.5938 1.7031 1.5938 4.7812 0 0.1875-0.0156 0.5625h-9.2812q0.10937 2.0469 1.1562 3.1406 1.0469 1.0938 2.6094 1.0938 1.1562 0 1.9688-0.60937 0.82813-0.60938 1.3125-1.9531zm-6.9375-3.4062h6.9531q-0.14063-1.5625-0.79688-2.3594-1-1.2188-2.6094-1.2188-1.4531 0-2.4531 0.98437-0.98437 0.96875-1.0938 2.5938z"/>
    <path d="m739.42 233.63 2.1406-0.1875q0.15625 1.2812 0.70312 2.1094 0.5625 0.82813 1.7344 1.3438 1.1719 0.5 2.6406 0.5 1.2969 0 2.2969-0.375 1-0.39062 1.4844-1.0625 0.48438-0.6875 0.48438-1.4844 0-0.79688-0.46875-1.4062-0.46875-0.60938-1.5469-1.0156-0.6875-0.26562-3.0625-0.82812-2.3594-0.57813-3.3125-1.0781-1.2344-0.64062-1.8438-1.5938-0.59375-0.96875-0.59375-2.1406 0-1.3125 0.73438-2.4375 0.75-1.125 2.1562-1.7031 1.4219-0.59375 3.1562-0.59375 1.9062 0 3.3594 0.60938 1.4688 0.60937 2.25 1.8125 0.79688 1.1875 0.84375 2.7031l-2.1719 0.17188q-0.17188-1.6406-1.1875-2.4688-1.0156-0.82813-3-0.82813-2.0625 0-3.0156 0.76563-0.9375 0.75-0.9375 1.8125 0 0.92187 0.67188 1.5156 0.65625 0.60938 3.4219 1.2344 2.7812 0.625 3.8125 1.0938 1.5 0.6875 2.2031 1.75 0.71875 1.0625 0.71875 2.4375t-0.78125 2.5938q-0.78125 1.2031-2.25 1.8906-1.4688 0.67188-3.3125 0.67188-2.3281 0-3.9062-0.67188-1.5781-0.6875-2.4844-2.0469-0.89062-1.375-0.9375-3.0938zm21.117 3.625 0.3125 1.8594q-0.89063 0.20313-1.5938 0.20313-1.1562 0-1.7969-0.35938-0.625-0.375-0.89062-0.96875-0.25-0.59375-0.25-2.4844v-7.1719h-1.5469v-1.6406h1.5469v-3.0781l2.0938-1.2656v4.3438h2.125v1.6406h-2.125v7.2812q0 0.90625 0.10937 1.1719 0.125 0.25 0.375 0.40625 0.25 0.14062 0.71875 0.14062 0.34375 0 0.92188-0.0781zm2.043 1.8906v-12.453h1.8906v1.8906q0.73438-1.3281 1.3438-1.75 0.625-0.42187 1.3594-0.42187 1.0625 0 2.1719 0.6875l-0.73437 1.9531q-0.76563-0.45312-1.5469-0.45312-0.6875 0-1.25 0.42187-0.54687 0.40625-0.78125 1.1406-0.34375 1.125-0.34375 2.4688v6.5156zm16.164 0v-1.8281q-1.4531 2.1094-3.9375 2.1094-1.1094 0-2.0625-0.42187-0.95313-0.42188-1.4219-1.0625-0.45312-0.64063-0.64062-1.5625-0.14063-0.625-0.14063-1.9688v-7.7188h2.1094v6.9062q0 1.6562 0.14062 2.2344 0.1875 0.82813 0.82813 1.3125 0.65625 0.46875 1.6094 0.46875 0.9375 0 1.7656-0.48437 0.84375-0.5 1.1875-1.3281 0.34375-0.84375 0.34375-2.4375v-6.6719h2.1094v12.453zm13.316-4.5625 2.0781 0.26563q-0.34375 2.1562-1.75 3.375-1.3906 1.2031-3.4375 1.2031-2.5469 0-4.1094-1.6719-1.5469-1.6719-1.5469-4.7812 0-2.0156 0.67187-3.5312 0.67188-1.5156 2.0312-2.2656 1.3594-0.76562 2.9688-0.76562 2.0312 0 3.3125 1.0312 1.2969 1.0312 1.6562 2.9062l-2.0469 0.32812q-0.29688-1.2656-1.0469-1.8906-0.73437-0.64063-1.7969-0.64063-1.5938 0-2.5938 1.1562-0.98438 1.1406-0.98438 3.6094 0 2.5 0.95313 3.6406 0.96875 1.1406 2.5156 1.1406 1.2344 0 2.0625-0.76563 0.84375-0.76562 1.0625-2.3438zm8.4844 2.6719 0.3125 1.8594q-0.89063 0.20313-1.5938 0.20313-1.1562 0-1.7969-0.35938-0.625-0.375-0.89062-0.96875-0.25-0.59375-0.25-2.4844v-7.1719h-1.5469v-1.6406h1.5469v-3.0781l2.0938-1.2656v4.3438h2.125v1.6406h-2.125v7.2812q0 0.90625 0.10937 1.1719 0.125 0.25 0.375 0.40625 0.25 0.14062 0.71875 0.14062 0.34375 0 0.92188-0.0781z"/>
    <path d="m740.82 263.02v-13.359h1.7656v13.359zm4.6833 0v-9.6719h1.4688v1.375q1.0625-1.5938 3.0781-1.5938 0.875 0 1.6094 0.3125 0.73437 0.3125 1.0938 0.82813 0.375 0.5 0.51562 1.2031 0.0937 0.45313 0.0937 1.5938v5.9531h-1.6406v-5.8906q0-1-0.20313-1.4844-0.1875-0.5-0.67187-0.79688-0.48438-0.29687-1.1406-0.29687-1.0469 0-1.8125 0.67187-0.75 0.65625-0.75 2.5156v5.2812zm16.641 0v-1.2188q-0.90625 1.4375-2.7031 1.4375-1.1562 0-2.125-0.64062-0.96875-0.64063-1.5-1.7812-0.53125-1.1406-0.53125-2.625 0-1.4531 0.48438-2.625 0.48437-1.1875 1.4375-1.8125 0.96875-0.625 2.1719-0.625 0.875 0 1.5469 0.375 0.6875 0.35937 1.1094 0.95312v-4.7969h1.6406v13.359zm-5.1719-4.8281q0 1.8594 0.78125 2.7812 0.78125 0.92187 1.8438 0.92187 1.0781 0 1.8281-0.875 0.75-0.89062 0.75-2.6875 0-1.9844-0.76563-2.9063-0.76562-0.9375-1.8906-0.9375-1.0781 0-1.8125 0.89063-0.73438 0.89064-0.73438 2.8125zm15.907 1.7188 1.6875 0.20312q-0.40625 1.4844-1.4844 2.3125-1.0781 0.8125-2.7656 0.8125-2.125 0-3.375-1.2969-1.2344-1.3125-1.2344-3.6719 0-2.4531 1.25-3.7969 1.2656-1.3438 3.2656-1.3438 1.9375 0 3.1562 1.3281 1.2344 1.3125 1.2344 3.7032 0 0.15625 0 0.4375h-7.2188q0.0937 1.5938 0.90625 2.4531 0.8125 0.84375 2.0156 0.84375 0.90625 0 1.5469-0.46875 0.64062-0.48437 1.0156-1.5156zm-5.3906-2.6562h5.4062q-0.10938-1.2188-0.625-1.8282-0.78125-0.95312-2.0312-0.95312-1.125 0-1.9062 0.76562-0.76563 0.75-0.84375 2.0156zm8.0475 5.7656 3.5312-5.0312-3.2656-4.6406h2.0469l1.4844 2.2656q0.42187 0.64064 0.67187 1.0782 0.40625-0.59375 0.73438-1.0625l1.6406-2.2812h1.9531l-3.3438 4.5469 3.5938 5.125h-2.0156l-1.9844-3-0.51563-0.8125-2.5469 3.8125zm15.152-3.5 1.7188-0.14062q0.1875 1.25 0.875 1.8906 0.70313 0.625 1.6875 0.625 1.1875 0 2-0.89062 0.82813-0.89063 0.82813-2.3594 0-1.4062-0.79688-2.2188-0.78125-0.81252-2.0625-0.81252-0.78125 0-1.4219 0.35938-0.64063 0.35939-1 0.93752l-1.5469-0.20313 1.2969-6.8594h6.6406v1.5625h-5.3281l-0.71875 3.5938q1.2031-0.84375 2.5156-0.84375 1.75 0 2.9531 1.2188 1.2031 1.2031 1.2031 3.1094 0 1.8125-1.0469 3.1406-1.2969 1.625-3.5156 1.625-1.8125 0-2.9688-1.0156-1.1562-1.0312-1.3125-2.7188z"/>
   </g>
  </g>
  <g transform="translate(-7.8411 -.50393)">
   <path d="m843.18 191.34c0-9.8746 8.005-17.88 17.88-17.88h73.249c4.742 0 9.2897 1.8837 12.643 5.2368 3.3531 3.3531 5.2368 7.9008 5.2368 12.643v71.516c0 9.8746-8.005 17.88-17.88 17.88h-73.249c-9.8746 0-17.88-8.005-17.88-17.88z" fill="#558b2f" fill-rule="evenodd"/>
   <g fill="#fff">
    <path d="m880.31 210.14v-17.188h11.594v2.0312h-9.3125v5.3281h8.0625v2.0156h-8.0625v7.8125zm14.285-14.75v-2.4375h2.1094v2.4375zm0 14.75v-12.453h2.1094v12.453zm5.2695 0v-17.188h2.1094v17.188zm13.91-4.0156 2.1719 0.28125q-0.51563 1.9062-1.9062 2.9688-1.3906 1.0469-3.5625 1.0469-2.7344 0-4.3438-1.6719-1.5938-1.6875-1.5938-4.7344 0-3.1406 1.6094-4.875 1.625-1.7344 4.2031-1.7344 2.5 0 4.0781 1.7031 1.5938 1.7031 1.5938 4.7812 0 0.1875-0.0156 0.5625h-9.2812q0.10937 2.0469 1.1562 3.1406 1.0469 1.0938 2.6094 1.0938 1.1562 0 1.9688-0.60937 0.82813-0.60938 1.3125-1.9531zm-6.9375-3.4062h6.9531q-0.14063-1.5625-0.79688-2.3594-1-1.2188-2.6094-1.2188-1.4531 0-2.4531 0.98437-0.98437 0.96875-1.0938 2.5938z"/>
    <path d="m867.42 233.63 2.1406-0.1875q0.15625 1.2812 0.70312 2.1094 0.5625 0.82813 1.7344 1.3438 1.1719 0.5 2.6406 0.5 1.2969 0 2.2969-0.375 1-0.39062 1.4844-1.0625 0.48438-0.6875 0.48438-1.4844 0-0.79688-0.46875-1.4062-0.46875-0.60938-1.5469-1.0156-0.6875-0.26562-3.0625-0.82812-2.3594-0.57813-3.3125-1.0781-1.2344-0.64062-1.8438-1.5938-0.59375-0.96875-0.59375-2.1406 0-1.3125 0.73438-2.4375 0.75-1.125 2.1562-1.7031 1.4219-0.59375 3.1562-0.59375 1.9062 0 3.3594 0.60938 1.4688 0.60937 2.25 1.8125 0.79688 1.1875 0.84375 2.7031l-2.1719 0.17188q-0.17188-1.6406-1.1875-2.4688-1.0156-0.82813-3-0.82813-2.0625 0-3.0156 0.76563-0.9375 0.75-0.9375 1.8125 0 0.92187 0.67188 1.5156 0.65625 0.60938 3.4219 1.2344 2.7812 0.625 3.8125 1.0938 1.5 0.6875 2.2031 1.75 0.71875 1.0625 0.71875 2.4375t-0.78125 2.5938q-0.78125 1.2031-2.25 1.8906-1.4688 0.67188-3.3125 0.67188-2.3281 0-3.9062-0.67188-1.5781-0.6875-2.4844-2.0469-0.89062-1.375-0.9375-3.0938zm21.117 3.625 0.3125 1.8594q-0.89063 0.20313-1.5938 0.20313-1.1562 0-1.7969-0.35938-0.625-0.375-0.89062-0.96875-0.25-0.59375-0.25-2.4844v-7.1719h-1.5469v-1.6406h1.5469v-3.0781l2.0938-1.2656v4.3438h2.125v1.6406h-2.125v7.2812q0 0.90625 0.10937 1.1719 0.125 0.25 0.375 0.40625 0.25 0.14062 0.71875 0.14062 0.34375 0 0.92188-0.0781zm2.043 1.8906v-12.453h1.8906v1.8906q0.73438-1.3281 1.3438-1.75 0.625-0.42187 1.3594-0.42187 1.0625 0 2.1719 0.6875l-0.73437 1.9531q-0.76563-0.45312-1.5469-0.45312-0.6875 0-1.25 0.42187-0.54687 0.40625-0.78125 1.1406-0.34375 1.125-0.34375 2.4688v6.5156zm16.164 0v-1.8281q-1.4531 2.1094-3.9375 2.1094-1.1094 0-2.0625-0.42187-0.95313-0.42188-1.4219-1.0625-0.45312-0.64063-0.64062-1.5625-0.14063-0.625-0.14063-1.9688v-7.7188h2.1094v6.9062q0 1.6562 0.14062 2.2344 0.1875 0.82813 0.82813 1.3125 0.65625 0.46875 1.6094 0.46875 0.9375 0 1.7656-0.48437 0.84375-0.5 1.1875-1.3281 0.34375-0.84375 0.34375-2.4375v-6.6719h2.1094v12.453zm13.316-4.5625 2.0781 0.26563q-0.34375 2.1562-1.75 3.375-1.3906 1.2031-3.4375 1.2031-2.5469 0-4.1094-1.6719-1.5469-1.6719-1.5469-4.7812 0-2.0156 0.67187-3.5312 0.67188-1.5156 2.0312-2.2656 1.3594-0.76562 2.9688-0.76562 2.0312 0 3.3125 1.0312 1.2969 1.0312 1.6562 2.9062l-2.0469 0.32812q-0.29688-1.2656-1.0469-1.8906-0.73437-0.64063-1.7969-0.64063-1.5938 0-2.5938 1.1562-0.98438 1.1406-0.98438 3.6094 0 2.5 0.95313 3.6406 0.96875 1.1406 2.5156 1.1406 1.2344 0 2.0625-0.76563 0.84375-0.76562 1.0625-2.3438zm8.4844 2.6719 0.3125 1.8594q-0.89063 0.20313-1.5938 0.20313-1.1562 0-1.7969-0.35938-0.625-0.375-0.89062-0.96875-0.25-0.59375-0.25-2.4844v-7.1719h-1.5469v-1.6406h1.5469v-3.0781l2.0938-1.2656v4.3438h2.125v1.6406h-2.125v7.2812q0 0.90625 0.10937 1.1719 0.125 0.25 0.375 0.40625 0.25 0.14062 0.71875 0.14062 0.34375 0 0.92188-0.0781z"/>
    <path d="m868.82 263.02v-13.359h1.7656v13.359zm4.6833 0v-9.6719h1.4688v1.375q1.0625-1.5938 3.0781-1.5938 0.875 0 1.6094 0.3125 0.73437 0.3125 1.0938 0.82813 0.375 0.5 0.51562 1.2031 0.0937 0.45313 0.0937 1.5938v5.9531h-1.6406v-5.8906q0-1-0.20313-1.4844-0.1875-0.5-0.67187-0.79688-0.48438-0.29687-1.1406-0.29687-1.0469 0-1.8125 0.67187-0.75 0.65625-0.75 2.5156v5.2812zm16.641 0v-1.2188q-0.90625 1.4375-2.7031 1.4375-1.1562 0-2.125-0.64062-0.96875-0.64063-1.5-1.7812-0.53125-1.1406-0.53125-2.625 0-1.4531 0.48438-2.625 0.48437-1.1875 1.4375-1.8125 0.96875-0.625 2.1719-0.625 0.875 0 1.5469 0.375 0.6875 0.35937 1.1094 0.95312v-4.7969h1.6406v13.359zm-5.1719-4.8281q0 1.8594 0.78125 2.7812 0.78125 0.92187 1.8438 0.92187 1.0781 0 1.8281-0.875 0.75-0.89062 0.75-2.6875 0-1.9844-0.76563-2.9063-0.76562-0.9375-1.8906-0.9375-1.0781 0-1.8125 0.89063-0.73438 0.89064-0.73438 2.8125zm15.907 1.7188 1.6875 0.20312q-0.40625 1.4844-1.4844 2.3125-1.0781 0.8125-2.7656 0.8125-2.125 0-3.375-1.2969-1.2344-1.3125-1.2344-3.6719 0-2.4531 1.25-3.7969 1.2656-1.3438 3.2656-1.3438 1.9375 0 3.1562 1.3281 1.2344 1.3125 1.2344 3.7032 0 0.15625 0 0.4375h-7.2188q0.0937 1.5938 0.90625 2.4531 0.8125 0.84375 2.0156 0.84375 0.90625 0 1.5469-0.46875 0.64062-0.48437 1.0156-1.5156zm-5.3906-2.6562h5.4062q-0.10938-1.2188-0.625-1.8282-0.78125-0.95312-2.0312-0.95312-1.125 0-1.9062 0.76562-0.76563 0.75-0.84375 2.0156zm8.0475 5.7656 3.5312-5.0312-3.2656-4.6406h2.0469l1.4844 2.2656q0.42187 0.64064 0.67187 1.0782 0.40625-0.59375 0.73438-1.0625l1.6406-2.2812h1.9531l-3.3438 4.5469 3.5938 5.125h-2.0156l-1.9844-3-0.51563-0.8125-2.5469 3.8125zm23.652-10.078-1.625 0.125q-0.21875-0.96875-0.625-1.4062-0.65625-0.70312-1.6406-0.70312-0.78125 0-1.375 0.4375-0.76563 0.5625-1.2188 1.6562-0.45313 1.0781-0.46875 3.0781 0.59375-0.89064 1.4531-1.3281 0.85938-0.4375 1.7969-0.4375 1.6406 0 2.7812 1.2031 1.1562 1.2031 1.1562 3.1094 0 1.2656-0.54688 2.3438-0.53125 1.0781-1.4844 1.6562-0.9375 0.57813-2.1406 0.57813-2.0625 0-3.3594-1.5-1.2812-1.5156-1.2812-4.9844 0-3.875 1.4219-5.625 1.25-1.5312 3.375-1.5312 1.5625 0 2.5625 0.89062 1.0156 0.875 1.2188 2.4375zm-6.6875 5.75q0 0.84375 0.35938 1.625 0.35937 0.76562 1 1.1719 0.64062 0.40625 1.3594 0.40625 1.0312 0 1.7812-0.82812 0.75-0.84375 0.75-2.2812 0-1.3906-0.73437-2.1875-0.73438-0.79689-1.8594-0.79689-1.1094 0-1.8906 0.79689-0.76563 0.79687-0.76563 2.0938z"/>
   </g>
  </g>
  <g fill-rule="evenodd">
   <path d="m66.696 367.04h337.29v55.024h-337.29z" fill="#cfd8dc"/>
   <path d="m66.696 367.04h337.29v55.024h-337.29z" stroke="#004065" stroke-linecap="butt" stroke-linejoin="round"/>
   <path d="m91.483 447.55h287.72v37.039h-287.72z" fill="#000" fill-opacity="0"/>
  </g>
  <path d="m105.17 469.28v5.1875h-1.7344v-13.266h4.8906q2.1719 0 3.4062 1.1094 1.2344 1.1094 1.2344 2.9531 0 1.9219-1.2188 2.9688-1.2031 1.0469-3.4531 1.0469zm0-1.4375h3.1562q1.3906 0 2.1406-0.65625t0.75-1.9062q0-1.1875-0.75-1.8906-0.75-0.71875-2.0469-0.75h-3.25zm14.535-1.7188q-0.39062-0.0625-0.84375-0.0625-1.6562 0-2.25 1.4062v7h-1.6719v-9.8594h1.6406l0.0156 1.1406q0.82812-1.3125 2.3594-1.3125 0.48438 0 0.75 0.125zm0.91184 3.3281q0-1.4531 0.5625-2.6094 0.57812-1.1562 1.5938-1.7812 1.0156-0.625 2.3125-0.625 2.0156 0 3.25 1.3906 1.25 1.3906 1.25 3.7031v0.125q0 1.4375-0.54688 2.5781-0.54687 1.1406-1.5781 1.7812-1.0156 0.64063-2.3594 0.64063-2 0-3.25-1.3906-1.2344-1.4062-1.2344-3.7031zm1.6875 0.20313q0 1.6406 0.76562 2.6406 0.76563 0.98438 2.0312 0.98438 1.2969 0 2.0469-1 0.75-1.0156 0.75-2.8281 0-1.625-0.76563-2.625-0.76562-1.0156-2.0469-1.0156-1.25 0-2.0156 1-0.76562 0.98437-0.76562 2.8438zm13.359 3.625q0.89062 0 1.5625-0.54688 0.6875-0.54687 0.75-1.375h1.5938q-0.0469 0.84375-0.57813 1.6094-0.53125 0.76562-1.4375 1.2344-0.89062 0.45313-1.8906 0.45313-2.0156 0-3.2031-1.3438t-1.1875-3.6875v-0.28125q0-1.4375 0.51563-2.5469 0.53125-1.125 1.5156-1.7344 1-0.625 2.3438-0.625 1.6562 0 2.75 1 1.1094 0.98437 1.1719 2.5625h-1.5938q-0.0625-0.95313-0.71875-1.5625-0.65625-0.625-1.6094-0.625-1.2812 0-2 0.92187-0.70312 0.92188-0.70312 2.6719v0.32812q0 1.7031 0.70312 2.625 0.70313 0.92188 2.0156 0.92188zm9.8904 1.375q-2 0-3.2656-1.3125-1.25-1.3281-1.25-3.5312v-0.3125q0-1.4688 0.5625-2.6094 0.5625-1.1562 1.5625-1.7969 1.0156-0.65625 2.1875-0.65625 1.9219 0 2.9844 1.2656 1.0625 1.2656 1.0625 3.625v0.6875h-6.6719q0.0312 1.4688 0.84375 2.375 0.82813 0.89063 2.0781 0.89063 0.89062 0 1.5156-0.35938 0.625-0.375 1.0781-0.96875l1.0312 0.79688q-1.2344 1.9062-3.7188 1.9062zm-0.20313-8.8438q-1.0156 0-1.7188 0.75-0.6875 0.73437-0.84375 2.0781h4.9375v-0.125q-0.0781-1.2812-0.70312-1.9844-0.60938-0.71875-1.6719-0.71875zm11.743 6.0469q0-0.6875-0.51562-1.0625-0.51563-0.375-1.7969-0.64062-1.2812-0.28125-2.0312-0.65625-0.75-0.39063-1.1094-0.92188-0.35938-0.53125-0.35938-1.2656 0-1.2031 1.0156-2.0312 1.0312-0.84375 2.625-0.84375 1.6719 0 2.7188 0.85937 1.0469 0.85938 1.0469 2.2188h-1.6875q0-0.70312-0.59375-1.2031t-1.4844-0.5q-0.92188 0-1.4375 0.40625-0.51563 0.39062-0.51563 1.0469 0 0.60938 0.48438 0.92188 0.48437 0.3125 1.7344 0.59375 1.2656 0.28125 2.0469 0.67187 0.78125 0.39063 1.1562 0.9375 0.39062 0.54688 0.39062 1.3438 0 1.3281-1.0625 2.125-1.0469 0.79688-2.7344 0.79688-1.1875 0-2.1094-0.42188-0.90625-0.42187-1.4219-1.1719-0.51563-0.75-0.51563-1.625h1.6875q0.0469 0.84375 0.67188 1.3438 0.64062 0.5 1.6875 0.5 0.95312 0 1.5312-0.39063 0.57812-0.39062 0.57812-1.0312zm9.6196 0q0-0.6875-0.51562-1.0625-0.51563-0.375-1.7969-0.64062-1.2812-0.28125-2.0312-0.65625-0.75-0.39063-1.1094-0.92188-0.35938-0.53125-0.35938-1.2656 0-1.2031 1.0156-2.0312 1.0312-0.84375 2.625-0.84375 1.6719 0 2.7188 0.85937 1.0469 0.85938 1.0469 2.2188h-1.6875q0-0.70312-0.59375-1.2031t-1.4844-0.5q-0.92188 0-1.4375 0.40625-0.51563 0.39062-0.51563 1.0469 0 0.60938 0.48438 0.92188 0.48437 0.3125 1.7344 0.59375 1.2656 0.28125 2.0469 0.67187 0.78125 0.39063 1.1562 0.9375 0.39062 0.54688 0.39062 1.3438 0 1.3281-1.0625 2.125-1.0469 0.79688-2.7344 0.79688-1.1875 0-2.1094-0.42188-0.90625-0.42187-1.4219-1.1719-0.51563-0.75-0.51563-1.625h1.6875q0.0469 0.84375 0.67188 1.3438 0.64062 0.5 1.6875 0.5 0.95312 0 1.5312-0.39063 0.57812-0.39062 0.57812-1.0312zm13.863 2.6094h-1.6875v-11.234l-3.4062 1.25v-1.5312l4.8281-1.8125h0.26563zm5.2259-9.5312-0.95313-0.65625q0.84375-1.1875 0.875-2.5v-1.3125h1.6719v1.1875q-0.0156 0.92187-0.45313 1.8281-0.4375 0.90625-1.1406 1.4531zm8.33 6.9219q0-0.6875-0.51562-1.0625-0.51563-0.375-1.7969-0.64062-1.2812-0.28125-2.0312-0.65625-0.75-0.39063-1.1094-0.92188-0.35938-0.53125-0.35938-1.2656 0-1.2031 1.0156-2.0312 1.0312-0.84375 2.625-0.84375 1.6719 0 2.7188 0.85937 1.0469 0.85938 1.0469 2.2188h-1.6875q0-0.70312-0.59375-1.2031t-1.4844-0.5q-0.92188 0-1.4375 0.40625-0.51563 0.39062-0.51563 1.0469 0 0.60938 0.48438 0.92188 0.48437 0.3125 1.7344 0.59375 1.2656 0.28125 2.0469 0.67187 0.78125 0.39063 1.1562 0.9375 0.39062 0.54688 0.39062 1.3438 0 1.3281-1.0625 2.125-1.0469 0.79688-2.7344 0.79688-1.1875 0-2.1094-0.42188-0.90625-0.42187-1.4219-1.1719-0.51563-0.75-0.51563-1.625h1.6875q0.0469 0.84375 0.67188 1.3438 0.64062 0.5 1.6875 0.5 0.95312 0 1.5312-0.39063 0.57812-0.39062 0.57812-1.0312zm16.082-3.25h-5.5781v5.8594h-1.7344v-13.266h8.2031v1.4375h-6.4688v4.5469h5.5781zm4.562 5.8594h-1.6875v-9.8594h1.6875zm-1.8281-12.469q0-0.40625 0.25-0.6875 0.25-0.29688 0.73438-0.29688 0.5 0 0.75 0.29688 0.26562 0.28125 0.26562 0.6875t-0.26562 0.6875q-0.25 0.26562-0.75 0.26562-0.48438 0-0.73438-0.26562-0.25-0.28125-0.25-0.6875zm6.3556 12.469h-1.6875v-14h1.6875zm6.7774 0.1875q-2 0-3.2656-1.3125-1.25-1.3281-1.25-3.5312v-0.3125q0-1.4688 0.5625-2.6094 0.5625-1.1562 1.5625-1.7969 1.0156-0.65625 2.1875-0.65625 1.9219 0 2.9844 1.2656 1.0625 1.2656 1.0625 3.625v0.6875h-6.6719q0.0312 1.4688 0.84375 2.375 0.82813 0.89063 2.0781 0.89063 0.89062 0 1.5156-0.35938 0.625-0.375 1.0781-0.96875l1.0312 0.79688q-1.2344 1.9062-3.7188 1.9062zm-0.20313-8.8438q-1.0156 0-1.7188 0.75-0.6875 0.73437-0.84375 2.0781h4.9375v-0.125q-0.0781-1.2812-0.70312-1.9844-0.60938-0.71875-1.6719-0.71875zm10.893 8.6562v-13.266h3.7344q1.7344 0 3.0625 0.76563 1.3281 0.76562 2.0469 2.1875 0.73437 1.4062 0.73437 3.2344v0.84375q0 1.875-0.71875 3.2969-0.71875 1.4062-2.0625 2.1719-1.3438 0.75-3.1406 0.76563zm1.7344-11.828v10.391h1.8438q2.0312 0 3.1562-1.25t1.125-3.5781v-0.78125q0-2.25-1.0625-3.5-1.0625-1.2656-3.0156-1.2812zm14.312 12.016q-2 0-3.2656-1.3125-1.25-1.3281-1.25-3.5312v-0.3125q0-1.4688 0.5625-2.6094 0.5625-1.1562 1.5625-1.7969 1.0156-0.65625 2.1875-0.65625 1.9219 0 2.9844 1.2656 1.0625 1.2656 1.0625 3.625v0.6875h-6.6719q0.0312 1.4688 0.84375 2.375 0.82812 0.89063 2.0781 0.89063 0.89063 0 1.5156-0.35938 0.625-0.375 1.0781-0.96875l1.0312 0.79688q-1.2344 1.9062-3.7187 1.9062zm-0.20312-8.8438q-1.0156 0-1.7188 0.75-0.6875 0.73437-0.84375 2.0781h4.9375v-0.125q-0.0781-1.2812-0.70313-1.9844-0.60937-0.71875-1.6719-0.71875zm11.743 6.0469q0-0.6875-0.51563-1.0625-0.51562-0.375-1.7969-0.64062-1.2812-0.28125-2.0312-0.65625-0.75-0.39063-1.1094-0.92188-0.35937-0.53125-0.35937-1.2656 0-1.2031 1.0156-2.0312 1.0312-0.84375 2.625-0.84375 1.6719 0 2.7188 0.85937 1.0469 0.85938 1.0469 2.2188h-1.6875q0-0.70312-0.59375-1.2031t-1.4844-0.5q-0.92187 0-1.4375 0.40625-0.51562 0.39062-0.51562 1.0469 0 0.60938 0.48437 0.92188 0.48438 0.3125 1.7344 0.59375 1.2656 0.28125 2.0469 0.67187 0.78125 0.39063 1.1562 0.9375 0.39063 0.54688 0.39063 1.3438 0 1.3281-1.0625 2.125-1.0469 0.79688-2.7344 0.79688-1.1875 0-2.1094-0.42188-0.90625-0.42187-1.4219-1.1719-0.51562-0.75-0.51562-1.625h1.6875q0.0469 0.84375 0.67187 1.3438 0.64063 0.5 1.6875 0.5 0.95313 0 1.5312-0.39063 0.57813-0.39062 0.57813-1.0312zm7.8384 1.4219q0.89062 0 1.5625-0.54688 0.6875-0.54687 0.75-1.375h1.5938q-0.0469 0.84375-0.57813 1.6094-0.53125 0.76562-1.4375 1.2344-0.89062 0.45313-1.8906 0.45313-2.0156 0-3.2031-1.3438t-1.1875-3.6875v-0.28125q0-1.4375 0.51563-2.5469 0.53125-1.125 1.5156-1.7344 1-0.625 2.3438-0.625 1.6562 0 2.75 1 1.1094 0.98437 1.1719 2.5625h-1.5938q-0.0625-0.95313-0.71875-1.5625-0.65625-0.625-1.6094-0.625-1.2812 0-2 0.92187-0.70312 0.92188-0.70312 2.6719v0.32812q0 1.7031 0.70312 2.625 0.70313 0.92188 2.0156 0.92188zm10.578-7.1562q-0.39063-0.0625-0.84375-0.0625-1.6562 0-2.25 1.4062v7h-1.6719v-9.8594h1.6406l0.0156 1.1406q0.82813-1.3125 2.3594-1.3125 0.48437 0 0.75 0.125zm3.3754 8.3438h-1.6875v-9.8594h1.6875zm-1.8281-12.469q0-0.40625 0.25-0.6875 0.25-0.29688 0.73437-0.29688 0.5 0 0.75 0.29688 0.26563 0.28125 0.26563 0.6875t-0.26563 0.6875q-0.25 0.26562-0.75 0.26562-0.48437 0-0.73437-0.26562-0.25-0.28125-0.25-0.6875zm12.84 7.6562q0 2.25-1.0312 3.625-1.0156 1.375-2.7812 1.375-1.7969 0-2.8281-1.1406v4.75h-1.6719v-13.656h1.5312l0.0781 1.0938q1.0312-1.2656 2.8594-1.2656 1.7812 0 2.8125 1.3438 1.0312 1.3281 1.0312 3.7188zm-1.6719-0.20313q0-1.6562-0.71875-2.625-0.70313-0.96875-1.9531-0.96875-1.5312 0-2.2969 1.3594v4.7031q0.76562 1.3594 2.3281 1.3594 1.2031 0 1.9219-0.95313 0.71875-0.96875 0.71875-2.875zm6.1074-7.2344v2.3906h1.8438v1.3125h-1.8438v6.1094q0 0.59375 0.23438 0.89062 0.25 0.29688 0.84375 0.29688 0.29687 0 0.8125-0.10938v1.3594q-0.67188 0.1875-1.2969 0.1875-1.125 0-1.7031-0.6875-0.57813-0.6875-0.57813-1.9375v-6.1094h-1.7969v-1.3125h1.7969v-2.3906zm3.1776 7.2344q0-1.4531 0.5625-2.6094 0.57813-1.1562 1.5938-1.7812 1.0156-0.625 2.3125-0.625 2.0156 0 3.25 1.3906 1.25 1.3906 1.25 3.7031v0.125q0 1.4375-0.54687 2.5781-0.54688 1.1406-1.5781 1.7812-1.0156 0.64063-2.3594 0.64063-2 0-3.25-1.3906-1.2344-1.4062-1.2344-3.7031zm1.6875 0.20313q0 1.6406 0.76563 2.6406 0.76562 0.98438 2.0312 0.98438 1.2969 0 2.0469-1 0.75-1.0156 0.75-2.8281 0-1.625-0.76562-2.625-0.76563-1.0156-2.0469-1.0156-1.25 0-2.0156 1-0.76563 0.98437-0.76563 2.8438zm14.171-3.5312q-0.39062-0.0625-0.84375-0.0625-1.6562 0-2.25 1.4062v7h-1.6719v-9.8594h1.6406l0.0156 1.1406q0.82812-1.3125 2.3594-1.3125 0.48438 0 0.75 0.125zm13.744 4.875h-5.5469l-1.25 3.4688h-1.8125l5.0625-13.266h1.5312l5.0781 13.266h-1.7969zm-5.0312-1.4375h4.5156l-2.2656-6.2031zm14.389-3.4375q-0.39063-0.0625-0.84375-0.0625-1.6562 0-2.25 1.4062v7h-1.6719v-9.8594h1.6406l0.0156 1.1406q0.82813-1.3125 2.3594-1.3125 0.48437 0 0.75 0.125zm6.3129 0q-0.39063-0.0625-0.84375-0.0625-1.6562 0-2.25 1.4062v7h-1.6719v-9.8594h1.6406l0.0156 1.1406q0.82813-1.3125 2.3594-1.3125 0.48437 0 0.75 0.125zm7.2608 8.3438q-0.14063-0.29688-0.23438-1.0312-1.1719 1.2188-2.8125 1.2188-1.4531 0-2.3906-0.82813-0.92188-0.82812-0.92188-2.0938 0-1.5312 1.1562-2.375 1.1719-0.85937 3.2969-0.85937h1.6406v-0.78125q0-0.89063-0.53125-1.4062-0.51562-0.53125-1.5469-0.53125-0.90625 0-1.5156 0.46875-0.60937 0.45312-0.60937 1.0938h-1.7031q0-0.73438 0.51563-1.4219 0.53125-0.6875 1.4219-1.0781 0.90625-0.40625 1.9844-0.40625 1.7031 0 2.6719 0.85937 0.96875 0.84375 1 2.3281v4.5312q0 1.3594 0.34375 2.1719v0.14063zm-2.7969-1.2812q0.79688 0 1.5-0.40625 0.71875-0.42188 1.0312-1.0781v-2.0156h-1.3125q-3.1094 0-3.1094 1.8125 0 0.79687 0.53125 1.25 0.53125 0.4375 1.3594 0.4375zm9.9488-1.1875 2.2969-7.3906h1.7969l-3.9531 11.375q-0.92187 2.4688-2.9219 2.4688l-0.32813-0.0312-0.625-0.125v-1.3594l0.45313 0.0312q0.85937 0 1.3281-0.34375 0.48438-0.34375 0.79688-1.2656l0.375-1-3.5156-9.75h1.8438z" fill="#004065"/>
  <g fill="#cfd8dc" fill-rule="evenodd">
   <path d="m891.07 434.95c0-4.2095 3.4125-7.622 7.6221-7.622 2.0215 0 3.9601 0.80304 5.3896 2.2324 1.4294 1.4294 2.2324 3.3681 2.2324 5.3896 0 4.2095-3.4125 7.622-7.622 7.622s-7.6221-3.4125-7.6221-7.622z"/>
   <path d="m915.07 434.95c0-4.2095 3.4125-7.622 7.6221-7.622 2.0215 0 3.9601 0.80304 5.3896 2.2324 1.4294 1.4294 2.2324 3.3681 2.2324 5.3896 0 4.2095-3.4125 7.622-7.622 7.622s-7.6221-3.4125-7.6221-7.622z"/>
   <path d="m939.07 434.95c0-4.2095 3.4125-7.622 7.6221-7.622 2.0215 0 3.9601 0.80304 5.3896 2.2324 1.4294 1.4294 2.2324 3.3681 2.2324 5.3896 0 4.2095-3.4125 7.622-7.622 7.622s-7.6221-3.4125-7.6221-7.622z"/>
   <path d="m72.635 373.86h40.346v40.346h-40.346z"/>
  </g>
  <g fill-rule="evenodd">
   <path d="m72.635 373.86h40.346v40.346h-40.346z" stroke="#004065" stroke-linecap="butt" stroke-linejoin="round" stroke-width="3"/>
   <path d="m120.64 373.86h40.346v40.346h-40.346z" fill="#cfd8dc"/>
   <path d="m120.64 373.86h40.346v40.346h-40.346z" stroke="#004065" stroke-linecap="butt" stroke-linejoin="round" stroke-width="3"/>
   <path d="m168.64 373.86h40.346v40.346h-40.346z" fill="#cfd8dc"/>
   <path d="m168.64 373.86h40.346v40.346h-40.346z" stroke="#004065" stroke-linecap="butt" stroke-linejoin="round" stroke-width="3"/>
  </g>
  <g fill="#b7b7b7" fill-rule="evenodd">
   <path d="m299.07 394.95c0-4.2095 3.4125-7.622 7.622-7.622 2.0215 0 3.9602 0.80304 5.3896 2.2324 1.4294 1.4294 2.2324 3.3681 2.2324 5.3896 0 4.2095-3.4125 7.622-7.6221 7.622-4.2095 0-7.622-3.4125-7.622-7.622z"/>
   <path d="m323.07 394.95c0-4.2095 3.4125-7.622 7.622-7.622 2.0215 0 3.9602 0.80304 5.3896 2.2324 1.4294 1.4294 2.2324 3.3681 2.2324 5.3896 0 4.2095-3.4125 7.622-7.6221 7.622-4.2095 0-7.622-3.4125-7.622-7.622z"/>
   <path d="m275.07 394.95c0-4.2095 3.4125-7.622 7.622-7.622 2.0215 0 3.9602 0.80304 5.3896 2.2324 1.4294 1.4294 2.2324 3.3681 2.2324 5.3896 0 4.2095-3.4125 7.622-7.6221 7.622-4.2095 0-7.622-3.4125-7.622-7.622z"/>
  </g>
  <path d="m72.635 415.17h40.346v29.417h-40.346z" fill="#000" fill-opacity="0" fill-rule="evenodd"/>
  <path d="m88.402 435.49q0-2.3594 0.48438-3.7969 0.48438-1.4531 1.4375-2.2344 0.96875-0.78125 2.4219-0.78125 1.0781 0 1.8906 0.4375 0.8125 0.42187 1.3281 1.25 0.53125 0.8125 0.82812 1.9844 0.3125 1.1562 0.3125 3.1406 0 2.3594-0.48438 3.8125-0.48438 1.4375-1.4531 2.2344-0.95312 0.78125-2.4219 0.78125-1.9219 0-3.0312-1.3906-1.3125-1.6719-1.3125-5.4375zm1.6719 0q0 3.2969 0.76562 4.3906 0.78125 1.0781 1.9062 1.0781 1.1406 0 1.9062-1.0938t0.76562-4.375q0-3.2969-0.76562-4.375-0.76562-1.0781-1.9219-1.0781-1.125 0-1.7969 0.95313-0.85938 1.2188-0.85938 4.5z" fill="#004065"/>
  <path d="m120.64 415.17h40.346v29.417h-40.346z" fill="#000" fill-opacity="0" fill-rule="evenodd"/>
  <path d="m142.57 442.09h-1.6406v-10.453q-0.59375 0.5625-1.5625 1.1406-0.95312 0.5625-1.7188 0.84375v-1.5938q1.375-0.64063 2.4062-1.5625 1.0312-0.92188 1.4531-1.7812h1.0625z" fill="#004065"/>
  <path d="m168.64 415.17h40.346v29.417h-40.346z" fill="#000" fill-opacity="0" fill-rule="evenodd"/>
  <path d="m193.01 440.51v1.5781h-8.8281q-0.0156-0.59375 0.1875-1.1406 0.34375-0.90625 1.0781-1.7812 0.75-0.875 2.1562-2.0156 2.1719-1.7812 2.9375-2.8281 0.76562-1.0469 0.76562-1.9688 0-0.98438-0.70312-1.6406-0.6875-0.67187-1.8125-0.67187-1.1875 0-1.9062 0.71875-0.70313 0.70312-0.70313 1.9531l-1.6875-0.17187q0.17188-1.8906 1.2969-2.875 1.1406-0.98438 3.0312-0.98438 1.9219 0 3.0469 1.0625t1.125 2.6406q0 0.79687-0.32812 1.5781-0.32813 0.78125-1.0938 1.6406-0.75 0.84375-2.5312 2.3438-1.4688 1.2344-1.8906 1.6875-0.42187 0.4375-0.6875 0.875z" fill="#004065"/>
  <g fill-rule="evenodd">
   <path d="m216.64 373.86h40.346v40.346h-40.346z" fill="#cfd8dc"/>
   <path d="m216.64 373.86h40.346v40.346h-40.346z" stroke="#004065" stroke-linecap="butt" stroke-linejoin="round" stroke-width="3"/>
   <path d="m216.64 415.17h40.346v29.417h-40.346z" fill="#000" fill-opacity="0"/>
  </g>
  <path d="m232.4 438.55 1.6406-0.21875q0.28125 1.4062 0.95313 2.0156 0.6875 0.60938 1.6562 0.60938 1.1562 0 1.9531-0.79688 0.79688-0.79687 0.79688-1.9844 0-1.125-0.73438-1.8594-0.73437-0.73437-1.875-0.73437-0.46875 0-1.1562 0.17187l0.1875-1.4375q0.15625 0.0156 0.26563 0.0156 1.0469 0 1.875-0.54688 0.84375-0.54687 0.84375-1.6719 0-0.90625-0.60938-1.5-0.60937-0.59375-1.5781-0.59375-0.95313 0-1.5938 0.60937-0.64063 0.59375-0.8125 1.7969l-1.6406-0.29688q0.29688-1.6406 1.3594-2.5469t2.6562-0.90625q1.0938 0 2 0.46875 0.92187 0.46875 1.4062 1.2812 0.5 0.8125 0.5 1.7188 0 0.85937-0.46875 1.5781-0.46875 0.70313-1.375 1.125 1.1875 0.28125 1.8438 1.1406 0.65625 0.85937 0.65625 2.1562 0 1.7344-1.2812 2.9531-1.2656 1.2188-3.2188 1.2188-1.7656 0-2.9219-1.0469-1.1562-1.0469-1.3281-2.7188z" fill="#004065"/>
  <g fill-rule="evenodd">
   <path d="m352.64 373.86h40.346v40.346h-40.346z" fill="#cfd8dc"/>
   <path d="m352.64 373.86h40.346v40.346h-40.346z" stroke="#004065" stroke-linecap="butt" stroke-linejoin="round" stroke-width="3"/>
   <path d="m314.31 415.17h113.73v29.417h-113.73z" fill="#000" fill-opacity="0"/>
  </g>
  <path d="m325.43 442.09v-13.359h1.8125l7.0156 10.484v-10.484h1.6875v13.359h-1.8125l-7.0156-10.5v10.5zm12.957-6.5q0-3.3281 1.7812-5.2031 1.7812-1.8906 4.6094-1.8906 1.8438 0 3.3281 0.89062 1.4844 0.875 2.2656 2.4688 0.78125 1.5781 0.78125 3.5781 0 2.0312-0.82812 3.6406-0.8125 1.5938-2.3125 2.4219-1.5 0.82812-3.25 0.82812-1.875 0-3.3594-0.90625-1.4844-0.92187-2.25-2.5-0.76562-1.5781-0.76562-3.3281zm1.8125 0.0156q0 2.4219 1.2969 3.8125 1.2969 1.3906 3.2656 1.3906 2 0 3.2812-1.4062t1.2812-3.9844q0-1.625-0.54688-2.8438-0.54687-1.2188-1.6094-1.875-1.0625-0.67187-2.375-0.67187-1.8906 0-3.25 1.2969-1.3438 1.2812-1.3438 4.2812zm13.324 6.4844v-13.359h9.0156v1.5781h-7.25v4.1406h6.2656v1.5781h-6.2656v6.0625zm11.599 0v-13.359h1.7656v13.359zm4.8083 0v-13.359h1.7812v11.781h6.5625v1.5781zm10.485 0v-13.359h9.6562v1.5781h-7.875v4.0938h7.375v1.5625h-7.375v4.5469h8.1875v1.5781zm16.752-4.0156v-1.6406h5.0312v1.6406zm17.755 4.0156h-1.6406v-10.453q-0.59375 0.5625-1.5625 1.1406-0.95312 0.5625-1.7188 0.84375v-1.5938q1.375-0.64063 2.4062-1.5625 1.0312-0.92188 1.4531-1.7812h1.0625z" fill="#004065"/>
  <path d="m7.5249 499.45v-116.28h55.024v116.28z" fill="#000" fill-opacity="0" fill-rule="evenodd"/>
  <path d="m31.726 480.5q-0.48438 0-0.76562 0.48437-0.28125 0.46875-0.5 1.5156-0.73438 3.5312-2.9844 3.5312-1.3125 0-2.1875-1.0938t-0.875-2.8438q0-1.875 0.89062-3 0.875-1.125 2.2812-1.125v2.625q-0.5625 0-0.92188 0.375-0.375 0.35937-0.375 1.125 0 0.67187 0.29688 1.0312 0.29688 0.35937 0.76562 0.35937 0.4375 0 0.70312-0.40625 0.26562-0.42187 0.46875-1.4062 0.1875-0.98437 0.4375-1.6562 0.76562-2.0781 2.6562-2.0781 1.3437 0 2.1875 1.1562 0.82812 1.1562 0.82812 2.9844 0 1.2344-0.4375 2.2031-0.45312 0.95312-1.2188 1.5-0.76562 0.54687-1.6719 0.54687v-2.4844q0.70312-0.0469 1.0781-0.53125 0.375-0.48438 0.375-1.2812 0-0.76563-0.28125-1.1406-0.29688-0.39062-0.75-0.39062zm-9.5625-7.4048h2.4219v-1.6875h1.9375v1.6875h4.9219q0.54688 0 0.78125-0.20312 0.23438-0.21875 0.23438-0.8125 0-0.4375-0.0625-0.78125h2q0.23438 0.78125 0.23438 1.5938 0 2.7812-2.7969 2.8281h-5.3125v1.4375h-1.9375v-1.4375h-2.4219zm4.8906-8.6944q-0.0625 0.53125-0.0625 0.9375 0 1.5 1 1.9688h6.4531v2.625h-9.8594v-2.4844l1.1719-0.0781q-1.3438-0.78125-1.3438-2.1875 0-0.4375 0.10938-0.82813zm6.3906-7.1798q1.1875 0.98437 1.1875 2.7031 0 1.5938-0.90625 2.4219-0.92188 0.82812-2.6719 0.84375h-6.4688v-2.625h6.375q1.5312 0 1.5312-1.4062 0-1.3438-0.92187-1.8438h-6.9844v-2.6406h9.8594v2.4844zm-0.9375-8.627q0-0.73437-0.39062-1.1875-0.40625-0.45312-1.0781-0.46875v-2.4688q1 0 1.8437 0.54688 0.82812 0.53125 1.2969 1.4688 0.45312 0.9375 0.45312 2.0625 0 2.1094-1.3438 3.3438-1.3437 1.2188-3.7187 1.2188h-0.17188q-2.2812 0-3.625-1.2188-1.3594-1.2188-1.3594-3.3281 0-1.8438 1.0469-2.9531 1.0469-1.125 2.7969-1.1406v2.4688q-0.76562 0.0156-1.2344 0.46875-0.48438 0.45313-0.48438 1.2031 0 0.92187 0.67188 1.3906t2.1719 0.46875h0.26562q1.5312 0 2.2031-0.45312 0.65625-0.46875 0.65625-1.4219zm-10.344-8.7758h2.4219v-1.6875h1.9375v1.6875h4.9219q0.54688 0 0.78125-0.20313 0.23438-0.21875 0.23438-0.8125 0-0.4375-0.0625-0.78125h2q0.23438 0.78125 0.23438 1.5938 0 2.7812-2.7969 2.8281h-5.3125v1.4375h-1.9375v-1.4375h-2.4219zm7.4375-16.684q2.2812 0 3.6562 1.0469 1.375 1.0312 1.375 2.7812 0 1.5-1.0469 2.4219h4.6562v2.625h-13.656v-2.4375l0.96875-0.0937q-1.1406-0.95313-1.1406-2.5 0-1.8125 1.3438-2.8281 1.3438-1.0156 3.7188-1.0156zm-0.1875 2.6406q-1.375 0-2.1094 0.48438-0.75 0.48437-0.75 1.4219 0 1.2344 0.9375 1.7031h4.0312q0.98437-0.48438 0.98437-1.7188 0-1.8906-3.0937-1.8906zm-2.3594-9.8001q-0.0625 0.53125-0.0625 0.9375 0 1.5 1 1.9688h6.4531v2.625h-9.8594v-2.4844l1.1719-0.0781q-1.3438-0.78125-1.3438-2.1875 0-0.4375 0.10938-0.82812zm2.375-0.52356q-1.4688 0-2.6094-0.5625-1.1562-0.57812-1.7812-1.6406t-0.625-2.4531q0-2 1.2188-3.2656 1.2188-1.2656 3.3125-1.4062l0.67188-0.0156q2.2656 0 3.6406 1.2656 1.375 1.2656 1.375 3.4062 0 2.125-1.3594 3.4062-1.375 1.2656-3.7344 1.2656zm0.1875-2.6406q1.4062 0 2.1562-0.53125 0.73437-0.53125 0.73437-1.5156 0-0.95312-0.73437-1.4844-0.73438-0.54688-2.3438-0.54688-1.375 0-2.125 0.54688-0.76562 0.53125-0.76562 1.5156 0 0.95313 0.75 1.4844t2.3281 0.53125zm2.8906-12.424q0-0.73438-0.39062-1.1875-0.40625-0.45313-1.0781-0.46875v-2.4688q1 0 1.8437 0.54687 0.82812 0.53125 1.2969 1.4688 0.45312 0.9375 0.45312 2.0625 0 2.1094-1.3438 3.3438-1.3437 1.2188-3.7187 1.2188h-0.17188q-2.2812 0-3.625-1.2188-1.3594-1.2188-1.3594-3.3281 0-1.8438 1.0469-2.9531 1.0469-1.125 2.7969-1.1406v2.4688q-0.76562 0.0156-1.2344 0.46875-0.48438 0.45312-0.48438 1.2031 0 0.92188 0.67188 1.3906t2.1719 0.46875h0.26562q1.5312 0 2.2031-0.45313 0.65625-0.46875 0.65625-1.4219z" fill="#004065"/>
  <g fill-rule="evenodd">
   <path d="m456.16 364.22c0-16.114 13.063-29.176 29.176-29.176h366.47c7.7381 0 15.159 3.0739 20.631 8.5456 5.4717 5.4716 8.5456 12.893 8.5456 20.631v116.7c0 16.114-13.063 29.176-29.176 29.176h-366.47c-16.114 0-29.176-13.063-29.176-29.176z" fill="#9dc6f4"/>
   <path d="m456.16 364.22c0-16.114 13.063-29.176 29.176-29.176h366.47c7.7381 0 15.159 3.0739 20.631 8.5456 5.4717 5.4716 8.5456 12.893 8.5456 20.631v116.7c0 16.114-13.063 29.176-29.176 29.176h-366.47c-16.114 0-29.176-13.063-29.176-29.176z" stroke="#004065" stroke-linecap="butt" stroke-linejoin="round" stroke-width="3"/>
   <path d="m506.7 367.04h337.29v55.024h-337.29z" fill="#cfd8dc"/>
   <path d="m506.7 367.04h337.29v55.024h-337.29z" stroke="#004065" stroke-linecap="butt" stroke-linejoin="round"/>
   <path d="m531.48 447.55h287.72v37.039h-287.72z" fill="#000" fill-opacity="0"/>
  </g>
  <path d="m545.17 469.28v5.1875h-1.7344v-13.266h4.8906q2.1719 0 3.4062 1.1094 1.2344 1.1094 1.2344 2.9531 0 1.9219-1.2188 2.9688-1.2031 1.0469-3.4531 1.0469zm0-1.4375h3.1562q1.3906 0 2.1406-0.65625t0.75-1.9062q0-1.1875-0.75-1.8906-0.75-0.71875-2.0469-0.75h-3.25zm14.535-1.7188q-0.39062-0.0625-0.84375-0.0625-1.6562 0-2.25 1.4062v7h-1.6719v-9.8594h1.6406l0.0156 1.1406q0.82812-1.3125 2.3594-1.3125 0.48438 0 0.75 0.125zm0.91187 3.3281q0-1.4531 0.5625-2.6094 0.57813-1.1562 1.5938-1.7812 1.0156-0.625 2.3125-0.625 2.0156 0 3.25 1.3906 1.25 1.3906 1.25 3.7031v0.125q0 1.4375-0.54687 2.5781-0.54688 1.1406-1.5781 1.7812-1.0156 0.64063-2.3594 0.64063-2 0-3.25-1.3906-1.2344-1.4062-1.2344-3.7031zm1.6875 0.20313q0 1.6406 0.76563 2.6406 0.76562 0.98438 2.0312 0.98438 1.2969 0 2.0469-1 0.75-1.0156 0.75-2.8281 0-1.625-0.76562-2.625-0.76563-1.0156-2.0469-1.0156-1.25 0-2.0156 1-0.76563 0.98437-0.76563 2.8438zm13.359 3.625q0.89063 0 1.5625-0.54688 0.6875-0.54687 0.75-1.375h1.5938q-0.0469 0.84375-0.57812 1.6094-0.53125 0.76562-1.4375 1.2344-0.89063 0.45313-1.8906 0.45313-2.0156 0-3.2031-1.3438t-1.1875-3.6875v-0.28125q0-1.4375 0.51562-2.5469 0.53125-1.125 1.5156-1.7344 1-0.625 2.3438-0.625 1.6562 0 2.75 1 1.1094 0.98437 1.1719 2.5625h-1.5938q-0.0625-0.95313-0.71875-1.5625-0.65625-0.625-1.6094-0.625-1.2812 0-2 0.92187-0.70313 0.92188-0.70313 2.6719v0.32812q0 1.7031 0.70313 2.625 0.70312 0.92188 2.0156 0.92188zm9.8904 1.375q-2 0-3.2656-1.3125-1.25-1.3281-1.25-3.5312v-0.3125q0-1.4688 0.5625-2.6094 0.5625-1.1562 1.5625-1.7969 1.0156-0.65625 2.1875-0.65625 1.9219 0 2.9844 1.2656 1.0625 1.2656 1.0625 3.625v0.6875h-6.6719q0.0312 1.4688 0.84375 2.375 0.82812 0.89063 2.0781 0.89063 0.89063 0 1.5156-0.35938 0.625-0.375 1.0781-0.96875l1.0312 0.79688q-1.2344 1.9062-3.7188 1.9062zm-0.20312-8.8438q-1.0156 0-1.7188 0.75-0.6875 0.73437-0.84375 2.0781h4.9375v-0.125q-0.0781-1.2812-0.70313-1.9844-0.60937-0.71875-1.6719-0.71875zm11.743 6.0469q0-0.6875-0.51562-1.0625-0.51563-0.375-1.7969-0.64062-1.2812-0.28125-2.0312-0.65625-0.75-0.39063-1.1094-0.92188-0.35938-0.53125-0.35938-1.2656 0-1.2031 1.0156-2.0312 1.0312-0.84375 2.625-0.84375 1.6719 0 2.7188 0.85937 1.0469 0.85938 1.0469 2.2188h-1.6875q0-0.70312-0.59375-1.2031t-1.4844-0.5q-0.92188 0-1.4375 0.40625-0.51563 0.39062-0.51563 1.0469 0 0.60938 0.48438 0.92188 0.48437 0.3125 1.7344 0.59375 1.2656 0.28125 2.0469 0.67187 0.78125 0.39063 1.1562 0.9375 0.39062 0.54688 0.39062 1.3438 0 1.3281-1.0625 2.125-1.0469 0.79688-2.7344 0.79688-1.1875 0-2.1094-0.42188-0.90625-0.42187-1.4219-1.1719-0.51563-0.75-0.51563-1.625h1.6875q0.0469 0.84375 0.67188 1.3438 0.64062 0.5 1.6875 0.5 0.95312 0 1.5312-0.39063 0.57812-0.39062 0.57812-1.0312zm9.6196 0q0-0.6875-0.51562-1.0625-0.51563-0.375-1.7969-0.64062-1.2812-0.28125-2.0312-0.65625-0.75-0.39063-1.1094-0.92188-0.35938-0.53125-0.35938-1.2656 0-1.2031 1.0156-2.0312 1.0312-0.84375 2.625-0.84375 1.6719 0 2.7188 0.85937 1.0469 0.85938 1.0469 2.2188h-1.6875q0-0.70312-0.59375-1.2031t-1.4844-0.5q-0.92188 0-1.4375 0.40625-0.51563 0.39062-0.51563 1.0469 0 0.60938 0.48438 0.92188 0.48437 0.3125 1.7344 0.59375 1.2656 0.28125 2.0469 0.67187 0.78125 0.39063 1.1562 0.9375 0.39062 0.54688 0.39062 1.3438 0 1.3281-1.0625 2.125-1.0469 0.79688-2.7344 0.79688-1.1875 0-2.1094-0.42188-0.90625-0.42187-1.4219-1.1719-0.51563-0.75-0.51563-1.625h1.6875q0.0469 0.84375 0.67188 1.3438 0.64062 0.5 1.6875 0.5 0.95312 0 1.5312-0.39063 0.57812-0.39062 0.57812-1.0312zm17.019 2.6094h-8.6875v-1.2188l4.5781-5.0938q1.0312-1.1562 1.4062-1.875 0.39062-0.73438 0.39062-1.5 0-1.0469-0.625-1.7031-0.625-0.67187-1.6719-0.67187-1.2656 0-1.9688 0.71875-0.6875 0.71875-0.6875 1.9844h-1.6875q0-1.8281 1.1719-2.9531 1.1875-1.1406 3.1719-1.1406 1.8438 0 2.9219 0.98438 1.0781 0.96875 1.0781 2.5781 0 1.9531-2.5 4.6562l-3.5469 3.8594h6.6562zm2.0696-9.5312-0.95312-0.65625q0.84375-1.1875 0.875-2.5v-1.3125h1.6719v1.1875q-0.0156 0.92187-0.45312 1.8281-0.4375 0.90625-1.1406 1.4531zm8.33 6.9219q0-0.6875-0.51563-1.0625-0.51562-0.375-1.7969-0.64062-1.2812-0.28125-2.0312-0.65625-0.75-0.39063-1.1094-0.92188-0.35937-0.53125-0.35937-1.2656 0-1.2031 1.0156-2.0312 1.0312-0.84375 2.625-0.84375 1.6719 0 2.7188 0.85937 1.0469 0.85938 1.0469 2.2188h-1.6875q0-0.70312-0.59375-1.2031t-1.4844-0.5q-0.92187 0-1.4375 0.40625-0.51562 0.39062-0.51562 1.0469 0 0.60938 0.48437 0.92188 0.48438 0.3125 1.7344 0.59375 1.2656 0.28125 2.0469 0.67187 0.78125 0.39063 1.1562 0.9375 0.39063 0.54688 0.39063 1.3438 0 1.3281-1.0625 2.125-1.0469 0.79688-2.7344 0.79688-1.1875 0-2.1094-0.42188-0.90625-0.42187-1.4219-1.1719-0.51562-0.75-0.51562-1.625h1.6875q0.0469 0.84375 0.67187 1.3438 0.64063 0.5 1.6875 0.5 0.95313 0 1.5312-0.39063 0.57813-0.39062 0.57813-1.0312zm16.082-3.25h-5.5781v5.8594h-1.7344v-13.266h8.2031v1.4375h-6.4688v4.5469h5.5781zm4.562 5.8594h-1.6875v-9.8594h1.6875zm-1.8281-12.469q0-0.40625 0.25-0.6875 0.25-0.29688 0.73438-0.29688 0.5 0 0.75 0.29688 0.26562 0.28125 0.26562 0.6875t-0.26562 0.6875q-0.25 0.26562-0.75 0.26562-0.48438 0-0.73438-0.26562-0.25-0.28125-0.25-0.6875zm6.3555 12.469h-1.6875v-14h1.6875zm6.7774 0.1875q-2 0-3.2656-1.3125-1.25-1.3281-1.25-3.5312v-0.3125q0-1.4688 0.5625-2.6094 0.5625-1.1562 1.5625-1.7969 1.0156-0.65625 2.1875-0.65625 1.9219 0 2.9844 1.2656 1.0625 1.2656 1.0625 3.625v0.6875h-6.6719q0.0312 1.4688 0.84375 2.375 0.82813 0.89063 2.0781 0.89063 0.89062 0 1.5156-0.35938 0.625-0.375 1.0781-0.96875l1.0312 0.79688q-1.2344 1.9062-3.7188 1.9062zm-0.20313-8.8438q-1.0156 0-1.7188 0.75-0.6875 0.73437-0.84375 2.0781h4.9375v-0.125q-0.0781-1.2812-0.70312-1.9844-0.60938-0.71875-1.6719-0.71875zm10.893 8.6562v-13.266h3.7344q1.7344 0 3.0625 0.76563 1.3281 0.76562 2.0469 2.1875 0.73437 1.4062 0.73437 3.2344v0.84375q0 1.875-0.71875 3.2969-0.71875 1.4062-2.0625 2.1719-1.3438 0.75-3.1406 0.76563zm1.7344-11.828v10.391h1.8438q2.0312 0 3.1562-1.25t1.125-3.5781v-0.78125q0-2.25-1.0625-3.5-1.0625-1.2656-3.0156-1.2812zm14.312 12.016q-2 0-3.2656-1.3125-1.25-1.3281-1.25-3.5312v-0.3125q0-1.4688 0.5625-2.6094 0.5625-1.1562 1.5625-1.7969 1.0156-0.65625 2.1875-0.65625 1.9219 0 2.9844 1.2656 1.0625 1.2656 1.0625 3.625v0.6875h-6.6719q0.0312 1.4688 0.84375 2.375 0.82813 0.89063 2.0781 0.89063 0.89062 0 1.5156-0.35938 0.625-0.375 1.0781-0.96875l1.0312 0.79688q-1.2344 1.9062-3.7188 1.9062zm-0.20313-8.8438q-1.0156 0-1.7188 0.75-0.6875 0.73437-0.84375 2.0781h4.9375v-0.125q-0.0781-1.2812-0.70312-1.9844-0.60938-0.71875-1.6719-0.71875zm11.743 6.0469q0-0.6875-0.51563-1.0625-0.51562-0.375-1.7969-0.64062-1.2812-0.28125-2.0312-0.65625-0.75-0.39063-1.1094-0.92188-0.35937-0.53125-0.35937-1.2656 0-1.2031 1.0156-2.0312 1.0312-0.84375 2.625-0.84375 1.6719 0 2.7188 0.85937 1.0469 0.85938 1.0469 2.2188h-1.6875q0-0.70312-0.59375-1.2031t-1.4844-0.5q-0.92187 0-1.4375 0.40625-0.51562 0.39062-0.51562 1.0469 0 0.60938 0.48437 0.92188 0.48438 0.3125 1.7344 0.59375 1.2656 0.28125 2.0469 0.67187 0.78125 0.39063 1.1562 0.9375 0.39063 0.54688 0.39063 1.3438 0 1.3281-1.0625 2.125-1.0469 0.79688-2.7344 0.79688-1.1875 0-2.1094-0.42188-0.90625-0.42187-1.4219-1.1719-0.51562-0.75-0.51562-1.625h1.6875q0.0469 0.84375 0.67187 1.3438 0.64063 0.5 1.6875 0.5 0.95313 0 1.5312-0.39063 0.57813-0.39062 0.57813-1.0312zm7.8384 1.4219q0.89062 0 1.5625-0.54688 0.6875-0.54687 0.75-1.375h1.5938q-0.0469 0.84375-0.57813 1.6094-0.53125 0.76562-1.4375 1.2344-0.89062 0.45313-1.8906 0.45313-2.0156 0-3.2031-1.3438t-1.1875-3.6875v-0.28125q0-1.4375 0.51563-2.5469 0.53125-1.125 1.5156-1.7344 1-0.625 2.3438-0.625 1.6562 0 2.75 1 1.1094 0.98437 1.1719 2.5625h-1.5938q-0.0625-0.95313-0.71875-1.5625-0.65625-0.625-1.6094-0.625-1.2812 0-2 0.92187-0.70312 0.92188-0.70312 2.6719v0.32812q0 1.7031 0.70312 2.625 0.70313 0.92188 2.0156 0.92188zm10.578-7.1562q-0.39063-0.0625-0.84375-0.0625-1.6562 0-2.25 1.4062v7h-1.6719v-9.8594h1.6406l0.0156 1.1406q0.82813-1.3125 2.3594-1.3125 0.48437 0 0.75 0.125zm3.3754 8.3438h-1.6875v-9.8594h1.6875zm-1.8281-12.469q0-0.40625 0.25-0.6875 0.25-0.29688 0.73438-0.29688 0.5 0 0.75 0.29688 0.26562 0.28125 0.26562 0.6875t-0.26562 0.6875q-0.25 0.26562-0.75 0.26562-0.48438 0-0.73438-0.26562-0.25-0.28125-0.25-0.6875zm12.84 7.6562q0 2.25-1.0312 3.625-1.0156 1.375-2.7812 1.375-1.7969 0-2.8281-1.1406v4.75h-1.6719v-13.656h1.5312l0.0781 1.0938q1.0312-1.2656 2.8594-1.2656 1.7812 0 2.8125 1.3438 1.0312 1.3281 1.0312 3.7188zm-1.6719-0.20313q0-1.6562-0.71875-2.625-0.70312-0.96875-1.9531-0.96875-1.5312 0-2.2969 1.3594v4.7031q0.76563 1.3594 2.3281 1.3594 1.2031 0 1.9219-0.95313 0.71875-0.96875 0.71875-2.875zm6.1074-7.2344v2.3906h1.8438v1.3125h-1.8438v6.1094q0 0.59375 0.23438 0.89062 0.25 0.29688 0.84375 0.29688 0.29687 0 0.8125-0.10938v1.3594q-0.67188 0.1875-1.2969 0.1875-1.125 0-1.7031-0.6875-0.57813-0.6875-0.57813-1.9375v-6.1094h-1.7969v-1.3125h1.7969v-2.3906zm3.1776 7.2344q0-1.4531 0.5625-2.6094 0.57813-1.1562 1.5938-1.7812 1.0156-0.625 2.3125-0.625 2.0156 0 3.25 1.3906 1.25 1.3906 1.25 3.7031v0.125q0 1.4375-0.54687 2.5781-0.54688 1.1406-1.5781 1.7812-1.0156 0.64063-2.3594 0.64063-2 0-3.25-1.3906-1.2344-1.4062-1.2344-3.7031zm1.6875 0.20313q0 1.6406 0.76563 2.6406 0.76562 0.98438 2.0312 0.98438 1.2969 0 2.0469-1 0.75-1.0156 0.75-2.8281 0-1.625-0.76562-2.625-0.76563-1.0156-2.0469-1.0156-1.25 0-2.0156 1-0.76563 0.98437-0.76563 2.8438zm14.171-3.5312q-0.39063-0.0625-0.84375-0.0625-1.6562 0-2.25 1.4062v7h-1.6719v-9.8594h1.6406l0.0156 1.1406q0.82813-1.3125 2.3594-1.3125 0.48437 0 0.75 0.125zm13.744 4.875h-5.5469l-1.25 3.4688h-1.8125l5.0625-13.266h1.5312l5.0781 13.266h-1.7969zm-5.0312-1.4375h4.5156l-2.2656-6.2031zm14.389-3.4375q-0.39062-0.0625-0.84375-0.0625-1.6562 0-2.25 1.4062v7h-1.6719v-9.8594h1.6406l0.0156 1.1406q0.82812-1.3125 2.3594-1.3125 0.48438 0 0.75 0.125zm6.3129 0q-0.39063-0.0625-0.84375-0.0625-1.6562 0-2.25 1.4062v7h-1.6719v-9.8594h1.6406l0.0156 1.1406q0.82813-1.3125 2.3594-1.3125 0.48437 0 0.75 0.125zm7.2608 8.3438q-0.14062-0.29688-0.23437-1.0312-1.1719 1.2188-2.8125 1.2188-1.4531 0-2.3906-0.82813-0.92187-0.82812-0.92187-2.0938 0-1.5312 1.1562-2.375 1.1719-0.85937 3.2969-0.85937h1.6406v-0.78125q0-0.89063-0.53125-1.4062-0.51563-0.53125-1.5469-0.53125-0.90625 0-1.5156 0.46875-0.60938 0.45312-0.60938 1.0938h-1.7031q0-0.73438 0.51562-1.4219 0.53125-0.6875 1.4219-1.0781 0.90625-0.40625 1.9844-0.40625 1.7031 0 2.6719 0.85937 0.96875 0.84375 1 2.3281v4.5312q0 1.3594 0.34375 2.1719v0.14063zm-2.7969-1.2812q0.79687 0 1.5-0.40625 0.71875-0.42188 1.0312-1.0781v-2.0156h-1.3125q-3.1094 0-3.1094 1.8125 0 0.79687 0.53125 1.25 0.53125 0.4375 1.3594 0.4375zm9.9487-1.1875 2.2969-7.3906h1.7969l-3.9531 11.375q-0.92187 2.4688-2.9219 2.4688l-0.32813-0.0312-0.625-0.125v-1.3594l0.45313 0.0312q0.85937 0 1.3281-0.34375 0.48438-0.34375 0.79688-1.2656l0.375-1-3.5156-9.75h1.8438z" fill="#004065"/>
  <g fill-rule="evenodd">
   <path d="m512.64 373.86h40.346v40.346h-40.346z" fill="#cfd8dc"/>
   <path d="m512.64 373.86h40.346v40.346h-40.346z" stroke="#004065" stroke-linecap="butt" stroke-linejoin="round" stroke-width="3"/>
   <path d="m560.64 373.86h40.346v40.346h-40.346z" fill="#cfd8dc"/>
   <path d="m560.64 373.86h40.346v40.346h-40.346z" stroke="#004065" stroke-linecap="butt" stroke-linejoin="round" stroke-width="3"/>
   <path d="m608.64 373.86h40.346v40.346h-40.346z" fill="#cfd8dc"/>
   <path d="m608.64 373.86h40.346v40.346h-40.346z" stroke="#004065" stroke-linecap="butt" stroke-linejoin="round" stroke-width="3"/>
  </g>
  <g fill="#b7b7b7" fill-rule="evenodd">
   <path d="m739.07 394.95c0-4.2095 3.4125-7.622 7.6221-7.622 2.0215 0 3.9601 0.80304 5.3896 2.2324 1.4294 1.4294 2.2324 3.3681 2.2324 5.3896 0 4.2095-3.4125 7.622-7.622 7.622s-7.6221-3.4125-7.6221-7.622z"/>
   <path d="m763.07 394.95c0-4.2095 3.4125-7.622 7.6221-7.622 2.0215 0 3.9601 0.80304 5.3896 2.2324 1.4294 1.4294 2.2324 3.3681 2.2324 5.3896 0 4.2095-3.4125 7.622-7.622 7.622s-7.6221-3.4125-7.6221-7.622z"/>
   <path d="m715.07 394.95c0-4.2095 3.4125-7.622 7.6221-7.622 2.0215 0 3.9601 0.80304 5.3896 2.2324 1.4294 1.4294 2.2324 3.3681 2.2324 5.3896 0 4.2095-3.4125 7.622-7.622 7.622s-7.6221-3.4125-7.6221-7.622z"/>
  </g>
  <path d="m512.64 415.17h40.346v29.417h-40.346z" fill="#000" fill-opacity="0" fill-rule="evenodd"/>
  <path d="m528.4 435.49q0-2.3594 0.48437-3.7969 0.48438-1.4531 1.4375-2.2344 0.96875-0.78125 2.4219-0.78125 1.0781 0 1.8906 0.4375 0.8125 0.42187 1.3281 1.25 0.53125 0.8125 0.82812 1.9844 0.3125 1.1562 0.3125 3.1406 0 2.3594-0.48437 3.8125-0.48438 1.4375-1.4531 2.2344-0.95312 0.78125-2.4219 0.78125-1.9219 0-3.0312-1.3906-1.3125-1.6719-1.3125-5.4375zm1.6719 0q0 3.2969 0.76563 4.3906 0.78125 1.0781 1.9062 1.0781 1.1406 0 1.9062-1.0938 0.76562-1.0938 0.76562-4.375 0-3.2969-0.76562-4.375-0.76563-1.0781-1.9219-1.0781-1.125 0-1.7969 0.95313-0.85938 1.2188-0.85938 4.5z" fill="#004065"/>
  <path d="m560.64 415.17h40.346v29.417h-40.346z" fill="#000" fill-opacity="0" fill-rule="evenodd"/>
  <path d="m582.57 442.09h-1.6406v-10.453q-0.59375 0.5625-1.5625 1.1406-0.95312 0.5625-1.7188 0.84375v-1.5938q1.375-0.64063 2.4062-1.5625 1.0312-0.92188 1.4531-1.7812h1.0625z" fill="#004065"/>
  <path d="m608.64 415.17h40.346v29.417h-40.346z" fill="#000" fill-opacity="0" fill-rule="evenodd"/>
  <path d="m633.01 440.51v1.5781h-8.8281q-0.0156-0.59375 0.1875-1.1406 0.34375-0.90625 1.0781-1.7812 0.75-0.875 2.1562-2.0156 2.1719-1.7812 2.9375-2.8281 0.76562-1.0469 0.76562-1.9688 0-0.98438-0.70312-1.6406-0.6875-0.67187-1.8125-0.67187-1.1875 0-1.9062 0.71875-0.70313 0.70312-0.70313 1.9531l-1.6875-0.17187q0.17188-1.8906 1.2969-2.875 1.1406-0.98438 3.0312-0.98438 1.9219 0 3.0469 1.0625t1.125 2.6406q0 0.79687-0.32812 1.5781-0.32813 0.78125-1.0938 1.6406-0.75 0.84375-2.5312 2.3438-1.4688 1.2344-1.8906 1.6875-0.42187 0.4375-0.6875 0.875z" fill="#004065"/>
  <g fill-rule="evenodd">
   <path d="m656.64 373.86h40.346v40.346h-40.346z" fill="#cfd8dc"/>
   <path d="m656.64 373.86h40.346v40.346h-40.346z" stroke="#004065" stroke-linecap="butt" stroke-linejoin="round" stroke-width="3"/>
   <path d="m656.64 415.17h40.346v29.417h-40.346z" fill="#000" fill-opacity="0"/>
  </g>
  <path d="m672.4 438.55 1.6406-0.21875q0.28125 1.4062 0.95313 2.0156 0.6875 0.60938 1.6562 0.60938 1.1562 0 1.9531-0.79688 0.79688-0.79687 0.79688-1.9844 0-1.125-0.73438-1.8594-0.73437-0.73437-1.875-0.73437-0.46875 0-1.1562 0.17187l0.1875-1.4375q0.15625 0.0156 0.26563 0.0156 1.0469 0 1.875-0.54688 0.84375-0.54687 0.84375-1.6719 0-0.90625-0.60938-1.5-0.60937-0.59375-1.5781-0.59375-0.95313 0-1.5938 0.60937-0.64063 0.59375-0.8125 1.7969l-1.6406-0.29688q0.29688-1.6406 1.3594-2.5469t2.6562-0.90625q1.0938 0 2 0.46875 0.92187 0.46875 1.4062 1.2812 0.5 0.8125 0.5 1.7188 0 0.85937-0.46875 1.5781-0.46875 0.70313-1.375 1.125 1.1875 0.28125 1.8438 1.1406 0.65625 0.85937 0.65625 2.1562 0 1.7344-1.2812 2.9531-1.2656 1.2188-3.2188 1.2188-1.7656 0-2.9219-1.0469-1.1562-1.0469-1.3281-2.7188z" fill="#004065"/>
  <g fill-rule="evenodd">
   <path d="m792.64 373.86h40.346v40.346h-40.346z" fill="#cfd8dc"/>
   <path d="m792.64 373.86h40.346v40.346h-40.346z" stroke="#004065" stroke-linecap="butt" stroke-linejoin="round" stroke-width="3"/>
   <path d="m752.64 416.17h113.73v29.417h-113.73z" fill="#000" fill-opacity="0"/>
  </g>
  <path d="m763.75 443.09v-13.359h1.8125l7.0156 10.484v-10.484h1.6875v13.359h-1.8125l-7.0156-10.5v10.5zm12.957-6.5q0-3.3281 1.7812-5.2031 1.7812-1.8906 4.6094-1.8906 1.8438 0 3.3281 0.89063 1.4844 0.875 2.2656 2.4688 0.78125 1.5781 0.78125 3.5781 0 2.0312-0.82812 3.6406-0.8125 1.5938-2.3125 2.4219-1.5 0.82813-3.25 0.82813-1.875 0-3.3594-0.90625-1.4844-0.92188-2.25-2.5-0.76562-1.5781-0.76562-3.3281zm1.8125 0.0156q0 2.4219 1.2969 3.8125 1.2969 1.3906 3.2656 1.3906 2 0 3.2812-1.4062t1.2812-3.9844q0-1.625-0.54688-2.8438-0.54687-1.2188-1.6094-1.875-1.0625-0.67188-2.375-0.67188-1.8906 0-3.25 1.2969-1.3438 1.2812-1.3438 4.2812zm13.324 6.4844v-13.359h9.0156v1.5781h-7.25v4.1406h6.2656v1.5781h-6.2656v6.0625zm11.599 0v-13.359h1.7656v13.359zm4.8083 0v-13.359h1.7812v11.781h6.5625v1.5781zm10.485 0v-13.359h9.6562v1.5781h-7.875v4.0938h7.375v1.5625h-7.375v4.5469h8.1875v1.5781zm16.752-4.0156v-1.6406h5.0312v1.6406zm17.755 4.0156h-1.6406v-10.453q-0.59375 0.5625-1.5625 1.1406-0.95312 0.5625-1.7188 0.84375v-1.5938q1.375-0.64062 2.4062-1.5625 1.0312-0.92187 1.4531-1.7812h1.0625z" fill="#004065"/>
  <path d="m447.52 499.45v-116.28h55.024v116.28z" fill="#000" fill-opacity="0" fill-rule="evenodd"/>
  <g fill="#004065">
   <path d="m471.73 480.5q-0.48438 0-0.76563 0.48437-0.28125 0.46875-0.5 1.5156-0.73437 3.5312-2.9844 3.5312-1.3125 0-2.1875-1.0938t-0.875-2.8438q0-1.875 0.89062-3 0.875-1.125 2.2812-1.125v2.625q-0.5625 0-0.92187 0.375-0.375 0.35937-0.375 1.125 0 0.67187 0.29687 1.0312 0.29688 0.35937 0.76563 0.35937 0.4375 0 0.70312-0.40625 0.26563-0.42187 0.46875-1.4062 0.1875-0.98437 0.4375-1.6562 0.76563-2.0781 2.6562-2.0781 1.3438 0 2.1875 1.1562 0.82813 1.1562 0.82813 2.9844 0 1.2344-0.4375 2.2031-0.45313 0.95312-1.2188 1.5-0.76563 0.54687-1.6719 0.54687v-2.4844q0.70313-0.0469 1.0781-0.53125 0.375-0.48438 0.375-1.2812 0-0.76563-0.28125-1.1406-0.29688-0.39062-0.75-0.39062zm-9.5625-7.4048h2.4219v-1.6875h1.9375v1.6875h4.9219q0.54687 0 0.78125-0.20312 0.23437-0.21875 0.23437-0.8125 0-0.4375-0.0625-0.78125h2q0.23438 0.78125 0.23438 1.5938 0 2.7812-2.7969 2.8281h-5.3125v1.4375h-1.9375v-1.4375h-2.4219zm4.8906-8.6944q-0.0625 0.53125-0.0625 0.9375 0 1.5 1 1.9688h6.4531v2.625h-9.8594v-2.4844l1.1719-0.0781q-1.3438-0.78125-1.3438-2.1875 0-0.4375 0.10937-0.82813zm6.3906-7.1798q1.1875 0.98437 1.1875 2.7031 0 1.5938-0.90625 2.4219-0.92188 0.82812-2.6719 0.84375h-6.4688v-2.625h6.375q1.5312 0 1.5312-1.4062 0-1.3438-0.92187-1.8438h-6.9844v-2.6406h9.8594v2.4844zm-0.9375-8.627q0-0.73437-0.39063-1.1875-0.40625-0.45312-1.0781-0.46875v-2.4688q1 0 1.8438 0.54688 0.82812 0.53125 1.2969 1.4688 0.45313 0.9375 0.45313 2.0625 0 2.1094-1.3438 3.3438-1.3438 1.2188-3.7188 1.2188h-0.17188q-2.2812 0-3.625-1.2188-1.3594-1.2188-1.3594-3.3281 0-1.8438 1.0469-2.9531 1.0469-1.125 2.7969-1.1406v2.4688q-0.76563 0.0156-1.2344 0.46875-0.48437 0.45313-0.48437 1.2031 0 0.92187 0.67187 1.3906 0.67188 0.46875 2.1719 0.46875h0.26562q1.5312 0 2.2031-0.45312 0.65625-0.46875 0.65625-1.4219zm-10.344-8.7758h2.4219v-1.6875h1.9375v1.6875h4.9219q0.54687 0 0.78125-0.20313 0.23437-0.21875 0.23437-0.8125 0-0.4375-0.0625-0.78125h2q0.23438 0.78125 0.23438 1.5938 0 2.7812-2.7969 2.8281h-5.3125v1.4375h-1.9375v-1.4375h-2.4219zm7.4375-16.684q2.2812 0 3.6562 1.0469 1.375 1.0312 1.375 2.7812 0 1.5-1.0469 2.4219h4.6562v2.625h-13.656v-2.4375l0.96875-0.0937q-1.1406-0.95313-1.1406-2.5 0-1.8125 1.3438-2.8281 1.3438-1.0156 3.7188-1.0156zm-0.1875 2.6406q-1.375 0-2.1094 0.48438-0.75 0.48437-0.75 1.4219 0 1.2344 0.9375 1.7031h4.0312q0.98438-0.48438 0.98438-1.7188 0-1.8906-3.0938-1.8906zm-2.3594-9.8001q-0.0625 0.53125-0.0625 0.9375 0 1.5 1 1.9688h6.4531v2.625h-9.8594v-2.4844l1.1719-0.0781q-1.3438-0.78125-1.3438-2.1875 0-0.4375 0.10937-0.82812zm2.375-0.52356q-1.4688 0-2.6094-0.5625-1.1562-0.57812-1.7812-1.6406t-0.625-2.4531q0-2 1.2188-3.2656 1.2188-1.2656 3.3125-1.4062l0.67187-0.0156q2.2656 0 3.6406 1.2656 1.375 1.2656 1.375 3.4062 0 2.125-1.3594 3.4062-1.375 1.2656-3.7344 1.2656zm0.1875-2.6406q1.4062 0 2.1562-0.53125 0.73438-0.53125 0.73438-1.5156 0-0.95312-0.73438-1.4844-0.73437-0.54688-2.3438-0.54688-1.375 0-2.125 0.54688-0.76562 0.53125-0.76562 1.5156 0 0.95313 0.75 1.4844t2.3281 0.53125zm2.8906-12.424q0-0.73438-0.39063-1.1875-0.40625-0.45313-1.0781-0.46875v-2.4688q1 0 1.8438 0.54687 0.82812 0.53125 1.2969 1.4688 0.45313 0.9375 0.45313 2.0625 0 2.1094-1.3438 3.3438-1.3438 1.2188-3.7188 1.2188h-0.17188q-2.2812 0-3.625-1.2188-1.3594-1.2188-1.3594-3.3281 0-1.8438 1.0469-2.9531 1.0469-1.125 2.7969-1.1406v2.4688q-0.76563 0.0156-1.2344 0.46875-0.48437 0.45312-0.48437 1.2031 0 0.92188 0.67187 1.3906 0.67188 0.46875 2.1719 0.46875h0.26562q1.5312 0 2.2031-0.45313 0.65625-0.46875 0.65625-1.4219z"/>
   <g fill-rule="evenodd">
    <path d="m83.068 394.95c0-4.2095 3.4125-7.622 7.622-7.622 2.0215 0 3.9602 0.80304 5.3896 2.2324 1.4294 1.4294 2.2324 3.3681 2.2324 5.3896 0 4.2095-3.4125 7.622-7.622 7.622-4.2095 0-7.622-3.4125-7.622-7.622z"/>
    <path d="m131.07 394.95c0-4.2095 3.4125-7.622 7.622-7.622 2.0215 0 3.9602 0.80304 5.3896 2.2324 1.4294 1.4294 2.2324 3.3681 2.2324 5.3896 0 4.2095-3.4125 7.622-7.622 7.622s-7.622-3.4125-7.622-7.622z"/>
    <path d="m179.07 394.95c0-4.2095 3.4125-7.622 7.622-7.622 2.0215 0 3.9602 0.80304 5.3896 2.2324 1.4294 1.4294 2.2324 3.3681 2.2324 5.3896 0 4.2095-3.4125 7.622-7.622 7.622s-7.622-3.4125-7.622-7.622z"/>
   </g>
  </g>
  <g fill-rule="evenodd">
   <path d="m90.69 387.33 45.984-106.58" fill="#000" fill-opacity="0"/>
   <path d="m93.977 388.59 33.267-92.265" stroke="#004065" stroke-linecap="butt" stroke-linejoin="round" stroke-width="3"/>
   <path d="m131.91 298.01-0.0437-14.488-9.2792 11.127z" fill="#004065" stroke="#004065" stroke-linecap="butt" stroke-width="3"/>
   <path d="m144.08 389.56 241.61-108.82" fill="#000" fill-opacity="0"/>
   <path d="m144.82 391.2 223.79-104.49" stroke="#004065" stroke-linecap="butt" stroke-linejoin="round" stroke-width="3"/>
   <path d="m370.71 291.2 10.24-10.25-14.432 1.2697z" fill="#004065" stroke="#004065" stroke-linecap="butt" stroke-width="3"/>
   <path d="m186.69 387.33 74.488-106.58" fill="#000" fill-opacity="0"/>
   <path d="m188.97 388.84 60.215-94.474" stroke="#004065" stroke-linecap="butt" stroke-linejoin="round" stroke-width="3"/>
   <path d="m253.36 297.03 3.1388-14.144-11.496 8.8173z" fill="#004065" stroke="#004065" stroke-linecap="butt" stroke-width="3"/>
   <path d="m363.07 394.95c0-4.2095 3.4125-7.622 7.622-7.622 2.0215 0 3.9602 0.80304 5.3896 2.2324 1.4294 1.4294 2.2324 3.3681 2.2324 5.3896 0 4.2095-3.4125 7.622-7.6221 7.622-4.2095 0-7.622-3.4125-7.622-7.622z" fill="#004065"/>
   <path d="m376.08 389.56 265.61-108.82" fill="#000" fill-opacity="0"/>
   <path d="m376.89 391.52 247.41-105.68" stroke="#004065" stroke-linecap="butt" stroke-linejoin="round" stroke-width="3"/>
   <path d="m626.25 290.4 10.574-9.9047-14.466 0.79087z" fill="#004065" stroke="#004065" stroke-linecap="butt" stroke-width="3"/>
   <path d="m571.07 394.95c0-4.2095 3.4125-7.622 7.6221-7.622 2.0215 0 3.9601 0.80304 5.3896 2.2324 1.4294 1.4294 2.2324 3.3681 2.2324 5.3896 0 4.2095-3.4125 7.622-7.622 7.622s-7.6221-3.4125-7.6221-7.622z" fill="#004065"/>
   <path d="m578.69 387.33 190.99-106.58" fill="#000" fill-opacity="0"/>
   <path d="m582 392.91 169.13-108.09" stroke="#004065" stroke-linecap="butt" stroke-linejoin="round" stroke-width="3"/>
   <path d="m753.79 288.99 8.803-11.507-14.14 3.1565z" fill="#004065" stroke="#004065" stroke-linecap="butt" stroke-width="3"/>
  </g>
 </g>
</svg>
