<?xml version="1.0" encoding="UTF-8"?>
<svg width="780.12" height="205.3" fill="none" stroke-linecap="square" stroke-miterlimit="10" version="1.1" viewBox="0 0 780.12 205.3" xmlns="http://www.w3.org/2000/svg">
 <clipPath id="p.0">
  <path d="m0 0h960v540h-960z"/>
 </clipPath>
 <g transform="translate(-89.941 -156.03)" clip-path="url(#p.0)">
  <path d="m317.81 301.46h324.39c16.583 0 29.934 13.35 29.934 29.934 0 16.583-13.35 29.934-29.934 29.934h-324.39c-16.583 0-29.934-13.35-29.934-29.934 0-16.583 13.35-29.934 29.934-29.934z" fill="#cfd8dc"/>
  <g fill-rule="evenodd">
   <path d="m90.441 156.53h779.12v139.5h-779.12z" fill="#cfd8dc"/>
   <path d="m90.441 156.53h779.12v139.5h-779.12z" stroke="#004065" stroke-linecap="butt" stroke-linejoin="round"/>
   <path d="m98.013 181.35c0-10.831 8.7806-19.612 19.612-19.612h78.445c5.2014 0 10.19 2.0663 13.868 5.7442 3.678 3.678 5.7442 8.6663 5.7442 13.868v89.847c0 10.831-8.7806 19.612-19.612 19.612h-78.445c-10.831 0-19.612-8.7806-19.612-19.612z" fill="#fff"/>
  </g>
  <g fill="#00517c">
   <path d="m139.48 209.32v-17.188h11.594v2.0312h-9.3125v5.3281h8.0625v2.0156h-8.0625v7.8125zm14.285-14.75v-2.4375h2.1094v2.4375zm0 14.75v-12.453h2.1094v12.453zm5.2695 0v-17.188h2.1094v17.188zm13.91-4.0156 2.1719 0.28125q-0.51563 1.9062-1.9062 2.9688-1.3906 1.0469-3.5625 1.0469-2.7344 0-4.3438-1.6719-1.5938-1.6875-1.5938-4.7344 0-3.1406 1.6094-4.875 1.625-1.7344 4.2031-1.7344 2.5 0 4.0781 1.7031 1.5938 1.7031 1.5938 4.7812 0 0.1875-0.0156 0.5625h-9.2812q0.10937 2.0469 1.1562 3.1406 1.0469 1.0938 2.6094 1.0938 1.1562 0 1.9688-0.60937 0.82813-0.60938 1.3125-1.9531zm-6.9375-3.4062h6.9531q-0.14063-1.5625-0.79688-2.3594-1-1.2188-2.6094-1.2188-1.4531 0-2.4531 0.98437-0.98437 0.96875-1.0938 2.5938z"/>
   <path d="m126.58 232.8 2.1406-0.1875q0.15625 1.2812 0.70312 2.1094 0.5625 0.82813 1.7344 1.3438 1.1719 0.5 2.6406 0.5 1.2969 0 2.2969-0.375 1-0.39062 1.4844-1.0625 0.48438-0.6875 0.48438-1.4844 0-0.79688-0.46875-1.4062-0.46875-0.60938-1.5469-1.0156-0.6875-0.26562-3.0625-0.82812-2.3594-0.57813-3.3125-1.0781-1.2344-0.64062-1.8437-1.5938-0.59375-0.96875-0.59375-2.1406 0-1.3125 0.73438-2.4375 0.74999-1.125 2.1562-1.7031 1.4219-0.59375 3.1562-0.59375 1.9062 0 3.3594 0.60938 1.4688 0.60937 2.25 1.8125 0.79688 1.1875 0.84375 2.7031l-2.1719 0.17188q-0.17188-1.6406-1.1875-2.4688-1.0156-0.82813-3-0.82813-2.0625 0-3.0156 0.76563-0.9375 0.75-0.9375 1.8125 0 0.92187 0.67188 1.5156 0.65625 0.60938 3.4219 1.2344 2.7812 0.625 3.8125 1.0938 1.5 0.6875 2.2031 1.75 0.71875 1.0625 0.71875 2.4375t-0.78125 2.5938q-0.78125 1.2031-2.25 1.8906-1.4688 0.67188-3.3125 0.67188-2.3281 0-3.9062-0.67188-1.5781-0.6875-2.4844-2.0469-0.89062-1.375-0.9375-3.0938zm21.117 3.625 0.3125 1.8594q-0.89063 0.20313-1.5938 0.20313-1.1562 0-1.7969-0.35938-0.625-0.375-0.89062-0.96875-0.25-0.59375-0.25-2.4844v-7.1719h-1.5469v-1.6406h1.5469v-3.0781l2.0938-1.2656v4.3438h2.125v1.6406h-2.125v7.2812q0 0.90625 0.10937 1.1719 0.125 0.25 0.375 0.40625 0.25 0.14062 0.71875 0.14062 0.34375 0 0.92188-0.0781zm2.043 1.8906v-12.453h1.8906v1.8906q0.73438-1.3281 1.3438-1.75 0.625-0.42187 1.3594-0.42187 1.0625 0 2.1719 0.6875l-0.73437 1.9531q-0.76563-0.45312-1.5469-0.45312-0.6875 0-1.25 0.42187-0.54687 0.40625-0.78125 1.1406-0.34375 1.125-0.34375 2.4688v6.5156zm16.164 0v-1.8281q-1.4531 2.1094-3.9375 2.1094-1.1094 0-2.0625-0.42187-0.95312-0.42188-1.4219-1.0625-0.45313-0.64063-0.64063-1.5625-0.14062-0.625-0.14062-1.9688v-7.7188h2.1094v6.9062q0 1.6562 0.14063 2.2344 0.1875 0.82813 0.82812 1.3125 0.65625 0.46875 1.6094 0.46875 0.9375 0 1.7656-0.48437 0.84375-0.5 1.1875-1.3281 0.34375-0.84375 0.34375-2.4375v-6.6719h2.1094v12.453zm13.316-4.5625 2.0781 0.26563q-0.34375 2.1562-1.75 3.375-1.3906 1.2031-3.4375 1.2031-2.5469 0-4.1094-1.6719-1.5469-1.6719-1.5469-4.7812 0-2.0156 0.67188-3.5312 0.67187-1.5156 2.0312-2.2656 1.3594-0.76562 2.9688-0.76562 2.0312 0 3.3125 1.0312 1.2969 1.0312 1.6562 2.9062l-2.0469 0.32812q-0.29687-1.2656-1.0469-1.8906-0.73438-0.64063-1.7969-0.64063-1.5938 0-2.5938 1.1562-0.98437 1.1406-0.98437 3.6094 0 2.5 0.95312 3.6406 0.96875 1.1406 2.5156 1.1406 1.2344 0 2.0625-0.76563 0.84375-0.76562 1.0625-2.3438zm8.4844 2.6719 0.3125 1.8594q-0.89062 0.20313-1.5938 0.20313-1.1562 0-1.7969-0.35938-0.625-0.375-0.89063-0.96875-0.25-0.59375-0.25-2.4844v-7.1719h-1.5469v-1.6406h1.5469v-3.0781l2.0938-1.2656v4.3438h2.125v1.6406h-2.125v7.2812q0 0.90625 0.10938 1.1719 0.125 0.25 0.375 0.40625 0.25 0.14062 0.71875 0.14062 0.34375 0 0.92187-0.0781z"/>
   <path d="m127.98 262.2v-13.359h1.7656v13.359zm4.6833 0v-9.6719h1.4688v1.375q1.0625-1.5938 3.0781-1.5938 0.875 0 1.6094 0.3125 0.73438 0.3125 1.0938 0.82813 0.375 0.5 0.51563 1.2031 0.0937 0.45313 0.0937 1.5938v5.9531h-1.6406v-5.8906q0-1-0.20312-1.4844-0.1875-0.5-0.67188-0.79688-0.48437-0.29687-1.1406-0.29687-1.0469 0-1.8125 0.67187-0.75 0.65625-0.75 2.5156v5.2812zm16.641 0v-1.2188q-0.90625 1.4375-2.7031 1.4375-1.1562 0-2.125-0.64063-0.96875-0.64062-1.5-1.7812-0.53125-1.1406-0.53125-2.625 0-1.4531 0.48437-2.625 0.48438-1.1875 1.4375-1.8125 0.96875-0.625 2.1719-0.625 0.875 0 1.5469 0.375 0.6875 0.35938 1.1094 0.95313v-4.7969h1.6406v13.359zm-5.1719-4.8281q0 1.8594 0.78125 2.7812 0.78125 0.92188 1.8438 0.92188 1.0781 0 1.8281-0.875 0.75-0.89063 0.75-2.6875 0-1.9844-0.76562-2.9062-0.76563-0.9375-1.8906-0.9375-1.0781 0-1.8125 0.89062-0.73437 0.89063-0.73437 2.8125zm15.907 1.7188 1.6875 0.20313q-0.40625 1.4844-1.4844 2.3125-1.0781 0.8125-2.7656 0.8125-2.125 0-3.375-1.2969-1.2344-1.3125-1.2344-3.6719 0-2.4531 1.25-3.7969 1.2656-1.3438 3.2656-1.3438 1.9375 0 3.1562 1.3281 1.2344 1.3125 1.2344 3.7031 0 0.15625 0 0.4375h-7.2188q0.0937 1.5938 0.90625 2.4531 0.8125 0.84375 2.0156 0.84375 0.90625 0 1.5469-0.46875 0.64063-0.48438 1.0156-1.5156zm-5.3906-2.6562h5.4062q-0.10937-1.2188-0.625-1.8281-0.78125-0.95313-2.0312-0.95313-1.125 0-1.9062 0.76563-0.76562 0.75-0.84375 2.0156zm8.0476 5.7656 3.5312-5.0312-3.2656-4.6406h2.0469l1.4844 2.2656q0.42187 0.64062 0.67187 1.0781 0.40625-0.59375 0.73438-1.0625l1.6406-2.2812h1.9531l-3.3438 4.5469 3.5938 5.125h-2.0156l-1.9844-3-0.51563-0.8125-2.5469 3.8125zm15.152-6.5938q0-2.3594 0.48437-3.7969 0.48438-1.4531 1.4375-2.2344 0.96875-0.78125 2.4219-0.78125 1.0781 0 1.8906 0.4375 0.8125 0.42187 1.3281 1.25 0.53125 0.8125 0.82812 1.9844 0.3125 1.1562 0.3125 3.1406 0 2.3594-0.48437 3.8125-0.48438 1.4375-1.4531 2.2344-0.95312 0.78125-2.4219 0.78125-1.9219 0-3.0312-1.3906-1.3125-1.6719-1.3125-5.4375zm1.6719 0q0 3.2969 0.76563 4.3906 0.78125 1.0781 1.9062 1.0781 1.1406 0 1.9062-1.0938 0.76562-1.0938 0.76562-4.375 0-3.2969-0.76562-4.375-0.76563-1.0781-1.9219-1.0781-1.125 0-1.7969 0.95313-0.85938 1.2188-0.85938 4.5z"/>
  </g>
  <path d="m224.07 181.35c0-10.831 8.7806-19.612 19.612-19.612h78.445c5.2014 0 10.19 2.0663 13.868 5.7442 3.678 3.678 5.7442 8.6663 5.7442 13.868v89.847c0 10.831-8.7806 19.612-19.612 19.612h-78.445c-10.831 0-19.612-8.7806-19.612-19.612z" fill="#558b2f" fill-rule="evenodd"/>
  <g fill="#fff">
   <g>
    <path d="m265.54 209.32v-17.188h11.594v2.0312h-9.3125v5.3281h8.0625v2.0156h-8.0625v7.8125zm14.285-14.75v-2.4375h2.1094v2.4375zm0 14.75v-12.453h2.1094v12.453zm5.2695 0v-17.188h2.1094v17.188zm13.91-4.0156 2.1719 0.28125q-0.51563 1.9062-1.9062 2.9688-1.3906 1.0469-3.5625 1.0469-2.7344 0-4.3438-1.6719-1.5938-1.6875-1.5938-4.7344 0-3.1406 1.6094-4.875 1.625-1.7344 4.2031-1.7344 2.5 0 4.0781 1.7031 1.5938 1.7031 1.5938 4.7812 0 0.1875-0.0156 0.5625h-9.2812q0.10937 2.0469 1.1562 3.1406 1.0469 1.0938 2.6094 1.0938 1.1562 0 1.9688-0.60937 0.82813-0.60938 1.3125-1.9531zm-6.9375-3.4062h6.9531q-0.14063-1.5625-0.79688-2.3594-1-1.2188-2.6094-1.2188-1.4531 0-2.4531 0.98437-0.98437 0.96875-1.0938 2.5938z"/>
    <path d="m252.64 232.8 2.1406-0.1875q0.15625 1.2812 0.70313 2.1094 0.5625 0.82813 1.7344 1.3438 1.1719 0.5 2.6406 0.5 1.2969 0 2.2969-0.375 1-0.39062 1.4844-1.0625 0.48438-0.6875 0.48438-1.4844 0-0.79688-0.46875-1.4062-0.46875-0.60938-1.5469-1.0156-0.6875-0.26562-3.0625-0.82812-2.3594-0.57813-3.3125-1.0781-1.2344-0.64062-1.8438-1.5938-0.59375-0.96875-0.59375-2.1406 0-1.3125 0.73438-2.4375 0.75-1.125 2.1562-1.7031 1.4219-0.59375 3.1562-0.59375 1.9062 0 3.3594 0.60938 1.4688 0.60937 2.25 1.8125 0.79688 1.1875 0.84375 2.7031l-2.1719 0.17188q-0.17188-1.6406-1.1875-2.4688-1.0156-0.82813-3-0.82813-2.0625 0-3.0156 0.76563-0.9375 0.75-0.9375 1.8125 0 0.92187 0.67188 1.5156 0.65625 0.60938 3.4219 1.2344 2.7812 0.625 3.8125 1.0938 1.5 0.6875 2.2031 1.75 0.71875 1.0625 0.71875 2.4375t-0.78125 2.5938q-0.78125 1.2031-2.25 1.8906-1.4688 0.67188-3.3125 0.67188-2.3281 0-3.9062-0.67188-1.5781-0.6875-2.4844-2.0469-0.89062-1.375-0.9375-3.0938zm21.117 3.625 0.3125 1.8594q-0.89063 0.20313-1.5938 0.20313-1.1562 0-1.7969-0.35938-0.625-0.375-0.89062-0.96875-0.25-0.59375-0.25-2.4844v-7.1719h-1.5469v-1.6406h1.5469v-3.0781l2.0938-1.2656v4.3438h2.125v1.6406h-2.125v7.2812q0 0.90625 0.10937 1.1719 0.125 0.25 0.375 0.40625 0.25 0.14062 0.71875 0.14062 0.34375 0 0.92188-0.0781zm2.043 1.8906v-12.453h1.8906v1.8906q0.73438-1.3281 1.3438-1.75 0.625-0.42187 1.3594-0.42187 1.0625 0 2.1719 0.6875l-0.73437 1.9531q-0.76563-0.45312-1.5469-0.45312-0.6875 0-1.25 0.42187-0.54687 0.40625-0.78125 1.1406-0.34375 1.125-0.34375 2.4688v6.5156zm16.164 0v-1.8281q-1.4531 2.1094-3.9375 2.1094-1.1094 0-2.0625-0.42187-0.95313-0.42188-1.4219-1.0625-0.45312-0.64063-0.64062-1.5625-0.14063-0.625-0.14063-1.9688v-7.7188h2.1094v6.9062q0 1.6562 0.14062 2.2344 0.1875 0.82813 0.82813 1.3125 0.65625 0.46875 1.6094 0.46875 0.9375 0 1.7656-0.48437 0.84375-0.5 1.1875-1.3281 0.34375-0.84375 0.34375-2.4375v-6.6719h2.1094v12.453zm13.316-4.5625 2.0781 0.26563q-0.34375 2.1562-1.75 3.375-1.3906 1.2031-3.4375 1.2031-2.5469 0-4.1094-1.6719-1.5469-1.6719-1.5469-4.7812 0-2.0156 0.67187-3.5312 0.67188-1.5156 2.0312-2.2656 1.3594-0.76562 2.9688-0.76562 2.0312 0 3.3125 1.0312 1.2969 1.0312 1.6562 2.9062l-2.0469 0.32812q-0.29688-1.2656-1.0469-1.8906-0.73437-0.64063-1.7969-0.64063-1.5938 0-2.5938 1.1562-0.98438 1.1406-0.98438 3.6094 0 2.5 0.95313 3.6406 0.96875 1.1406 2.5156 1.1406 1.2344 0 2.0625-0.76563 0.84375-0.76562 1.0625-2.3438zm8.4844 2.6719 0.3125 1.8594q-0.89063 0.20313-1.5938 0.20313-1.1562 0-1.7969-0.35938-0.625-0.375-0.89062-0.96875-0.25-0.59375-0.25-2.4844v-7.1719h-1.5469v-1.6406h1.5469v-3.0781l2.0938-1.2656v4.3438h2.125v1.6406h-2.125v7.2812q0 0.90625 0.10937 1.1719 0.125 0.25 0.375 0.40625 0.25 0.14062 0.71875 0.14062 0.34375 0 0.92188-0.0781z"/>
    <path d="m254.04 262.2v-13.359h1.7656v13.359zm4.6833 0v-9.6719h1.4688v1.375q1.0625-1.5938 3.0781-1.5938 0.875 0 1.6094 0.3125 0.73438 0.3125 1.0938 0.82813 0.375 0.5 0.51563 1.2031 0.0937 0.45313 0.0937 1.5938v5.9531h-1.6406v-5.8906q0-1-0.20312-1.4844-0.1875-0.5-0.67188-0.79688-0.48437-0.29687-1.1406-0.29687-1.0469 0-1.8125 0.67187-0.75 0.65625-0.75 2.5156v5.2812zm16.641 0v-1.2188q-0.90625 1.4375-2.7031 1.4375-1.1562 0-2.125-0.64063-0.96875-0.64062-1.5-1.7812-0.53125-1.1406-0.53125-2.625 0-1.4531 0.48437-2.625 0.48438-1.1875 1.4375-1.8125 0.96875-0.625 2.1719-0.625 0.875 0 1.5469 0.375 0.6875 0.35938 1.1094 0.95313v-4.7969h1.6406v13.359zm-5.1719-4.8281q0 1.8594 0.78125 2.7812 0.78125 0.92188 1.8438 0.92188 1.0781 0 1.8281-0.875 0.75-0.89063 0.75-2.6875 0-1.9844-0.76562-2.9062-0.76563-0.9375-1.8906-0.9375-1.0781 0-1.8125 0.89062-0.73437 0.89063-0.73437 2.8125zm15.907 1.7188 1.6875 0.20313q-0.40625 1.4844-1.4844 2.3125-1.0781 0.8125-2.7656 0.8125-2.125 0-3.375-1.2969-1.2344-1.3125-1.2344-3.6719 0-2.4531 1.25-3.7969 1.2656-1.3438 3.2656-1.3438 1.9375 0 3.1562 1.3281 1.2344 1.3125 1.2344 3.7031 0 0.15625 0 0.4375h-7.2188q0.0937 1.5938 0.90625 2.4531 0.8125 0.84375 2.0156 0.84375 0.90625 0 1.5469-0.46875 0.64063-0.48438 1.0156-1.5156zm-5.3906-2.6562h5.4062q-0.10937-1.2188-0.625-1.8281-0.78125-0.95313-2.0312-0.95313-1.125 0-1.9062 0.76563-0.76562 0.75-0.84375 2.0156zm8.0476 5.7656 3.5312-5.0312-3.2656-4.6406h2.0469l1.4844 2.2656q0.42188 0.64062 0.67188 1.0781 0.40625-0.59375 0.73437-1.0625l1.6406-2.2812h1.9531l-3.3438 4.5469 3.5938 5.125h-2.0156l-1.9844-3-0.51562-0.8125-2.5469 3.8125zm21.324 0h-1.6406v-10.453q-0.59375 0.5625-1.5625 1.1406-0.95313 0.5625-1.7188 0.84375v-1.5938q1.375-0.64063 2.4062-1.5625 1.0312-0.92188 1.4531-1.7812h1.0625z"/>
   </g>
   <path d="m350.12 181.35c0-10.831 8.7806-19.612 19.612-19.612h78.445c5.2014 0 10.19 2.0663 13.868 5.7442 3.678 3.678 5.7442 8.6663 5.7442 13.868v89.847c0 10.831-8.7806 19.612-19.612 19.612h-78.445c-10.831 0-19.612-8.7806-19.612-19.612z" fill-rule="evenodd"/>
  </g>
  <g fill="#00517c">
   <path d="m391.59 209.32v-17.188h11.594v2.0312h-9.3125v5.3281h8.0625v2.0156h-8.0625v7.8125zm14.285-14.75v-2.4375h2.1094v2.4375zm0 14.75v-12.453h2.1094v12.453zm5.2695 0v-17.188h2.1094v17.188zm13.91-4.0156 2.1719 0.28125q-0.51563 1.9062-1.9062 2.9688-1.3906 1.0469-3.5625 1.0469-2.7344 0-4.3438-1.6719-1.5938-1.6875-1.5938-4.7344 0-3.1406 1.6094-4.875 1.625-1.7344 4.2031-1.7344 2.5 0 4.0781 1.7031 1.5938 1.7031 1.5938 4.7812 0 0.1875-0.0156 0.5625h-9.2812q0.10937 2.0469 1.1562 3.1406 1.0469 1.0938 2.6094 1.0938 1.1562 0 1.9688-0.60937 0.82813-0.60938 1.3125-1.9531zm-6.9375-3.4062h6.9531q-0.14063-1.5625-0.79688-2.3594-1-1.2188-2.6094-1.2188-1.4531 0-2.4531 0.98437-0.98437 0.96875-1.0938 2.5938z"/>
   <path d="m378.69 232.8 2.1406-0.1875q0.15625 1.2812 0.70313 2.1094 0.5625 0.82813 1.7344 1.3438 1.1719 0.5 2.6406 0.5 1.2969 0 2.2969-0.375 1-0.39062 1.4844-1.0625 0.48437-0.6875 0.48437-1.4844 0-0.79688-0.46875-1.4062-0.46875-0.60938-1.5469-1.0156-0.6875-0.26562-3.0625-0.82812-2.3594-0.57813-3.3125-1.0781-1.2344-0.64062-1.8438-1.5938-0.59375-0.96875-0.59375-2.1406 0-1.3125 0.73437-2.4375 0.75-1.125 2.1562-1.7031 1.4219-0.59375 3.1562-0.59375 1.9062 0 3.3594 0.60938 1.4688 0.60937 2.25 1.8125 0.79687 1.1875 0.84375 2.7031l-2.1719 0.17188q-0.17187-1.6406-1.1875-2.4688-1.0156-0.82813-3-0.82813-2.0625 0-3.0156 0.76563-0.9375 0.75-0.9375 1.8125 0 0.92187 0.67187 1.5156 0.65625 0.60938 3.4219 1.2344 2.7812 0.625 3.8125 1.0938 1.5 0.6875 2.2031 1.75 0.71875 1.0625 0.71875 2.4375t-0.78125 2.5938q-0.78125 1.2031-2.25 1.8906-1.4688 0.67188-3.3125 0.67188-2.3281 0-3.9062-0.67188-1.5781-0.6875-2.4844-2.0469-0.89063-1.375-0.9375-3.0938zm21.117 3.625 0.3125 1.8594q-0.89063 0.20313-1.5938 0.20313-1.1562 0-1.7969-0.35938-0.625-0.375-0.89062-0.96875-0.25-0.59375-0.25-2.4844v-7.1719h-1.5469v-1.6406h1.5469v-3.0781l2.0938-1.2656v4.3438h2.125v1.6406h-2.125v7.2812q0 0.90625 0.10937 1.1719 0.125 0.25 0.375 0.40625 0.25 0.14062 0.71875 0.14062 0.34375 0 0.92188-0.0781zm2.043 1.8906v-12.453h1.8906v1.8906q0.73438-1.3281 1.3438-1.75 0.625-0.42187 1.3594-0.42187 1.0625 0 2.1719 0.6875l-0.73437 1.9531q-0.76563-0.45312-1.5469-0.45312-0.6875 0-1.25 0.42187-0.54687 0.40625-0.78125 1.1406-0.34375 1.125-0.34375 2.4688v6.5156zm16.164 0v-1.8281q-1.4531 2.1094-3.9375 2.1094-1.1094 0-2.0625-0.42187-0.95313-0.42188-1.4219-1.0625-0.45312-0.64063-0.64062-1.5625-0.14063-0.625-0.14063-1.9688v-7.7188h2.1094v6.9062q0 1.6562 0.14062 2.2344 0.1875 0.82813 0.82813 1.3125 0.65625 0.46875 1.6094 0.46875 0.9375 0 1.7656-0.48437 0.84375-0.5 1.1875-1.3281 0.34375-0.84375 0.34375-2.4375v-6.6719h2.1094v12.453zm13.316-4.5625 2.0781 0.26563q-0.34375 2.1562-1.75 3.375-1.3906 1.2031-3.4375 1.2031-2.5469 0-4.1094-1.6719-1.5469-1.6719-1.5469-4.7812 0-2.0156 0.67187-3.5312 0.67188-1.5156 2.0312-2.2656 1.3594-0.76562 2.9688-0.76562 2.0312 0 3.3125 1.0312 1.2969 1.0312 1.6562 2.9062l-2.0469 0.32812q-0.29688-1.2656-1.0469-1.8906-0.73437-0.64063-1.7969-0.64063-1.5938 0-2.5938 1.1562-0.98438 1.1406-0.98438 3.6094 0 2.5 0.95313 3.6406 0.96875 1.1406 2.5156 1.1406 1.2344 0 2.0625-0.76563 0.84375-0.76562 1.0625-2.3438zm8.4844 2.6719 0.3125 1.8594q-0.89063 0.20313-1.5938 0.20313-1.1562 0-1.7969-0.35938-0.625-0.375-0.89062-0.96875-0.25-0.59375-0.25-2.4844v-7.1719h-1.5469v-1.6406h1.5469v-3.0781l2.0938-1.2656v4.3438h2.125v1.6406h-2.125v7.2812q0 0.90625 0.10937 1.1719 0.125 0.25 0.375 0.40625 0.25 0.14062 0.71875 0.14062 0.34375 0 0.92188-0.0781z"/>
   <path d="m380.09 262.2v-13.359h1.7656v13.359zm4.6833 0v-9.6719h1.4688v1.375q1.0625-1.5938 3.0781-1.5938 0.875 0 1.6094 0.3125 0.73437 0.3125 1.0938 0.82813 0.375 0.5 0.51562 1.2031 0.0937 0.45313 0.0937 1.5938v5.9531h-1.6406v-5.8906q0-1-0.20313-1.4844-0.1875-0.5-0.67187-0.79688-0.48438-0.29687-1.1406-0.29687-1.0469 0-1.8125 0.67187-0.75 0.65625-0.75 2.5156v5.2812zm16.641 0v-1.2188q-0.90625 1.4375-2.7031 1.4375-1.1562 0-2.125-0.64063-0.96875-0.64062-1.5-1.7812-0.53125-1.1406-0.53125-2.625 0-1.4531 0.48438-2.625 0.48437-1.1875 1.4375-1.8125 0.96875-0.625 2.1719-0.625 0.875 0 1.5469 0.375 0.6875 0.35938 1.1094 0.95313v-4.7969h1.6406v13.359zm-5.1719-4.8281q0 1.8594 0.78125 2.7812 0.78125 0.92188 1.8438 0.92188 1.0781 0 1.8281-0.875 0.75-0.89063 0.75-2.6875 0-1.9844-0.76563-2.9062-0.76562-0.9375-1.8906-0.9375-1.0781 0-1.8125 0.89062-0.73438 0.89063-0.73438 2.8125zm15.907 1.7188 1.6875 0.20313q-0.40625 1.4844-1.4844 2.3125-1.0781 0.8125-2.7656 0.8125-2.125 0-3.375-1.2969-1.2344-1.3125-1.2344-3.6719 0-2.4531 1.25-3.7969 1.2656-1.3438 3.2656-1.3438 1.9375 0 3.1562 1.3281 1.2344 1.3125 1.2344 3.7031 0 0.15625 0 0.4375h-7.2188q0.0937 1.5938 0.90625 2.4531 0.8125 0.84375 2.0156 0.84375 0.90625 0 1.5469-0.46875 0.64062-0.48438 1.0156-1.5156zm-5.3906-2.6562h5.4062q-0.10938-1.2188-0.625-1.8281-0.78125-0.95313-2.0312-0.95313-1.125 0-1.9062 0.76563-0.76563 0.75-0.84375 2.0156zm8.0476 5.7656 3.5312-5.0312-3.2656-4.6406h2.0469l1.4844 2.2656q0.42187 0.64062 0.67187 1.0781 0.40625-0.59375 0.73438-1.0625l1.6406-2.2812h1.9531l-3.3438 4.5469 3.5938 5.125h-2.0156l-1.9844-3-0.51563-0.8125-2.5469 3.8125zm23.761-1.5781v1.5781h-8.8281q-0.0156-0.59375 0.1875-1.1406 0.34375-0.90625 1.0781-1.7812 0.75-0.875 2.1562-2.0156 2.1719-1.7812 2.9375-2.8281 0.76562-1.0469 0.76562-1.9688 0-0.98437-0.70312-1.6406-0.6875-0.67188-1.8125-0.67188-1.1875 0-1.9062 0.71875-0.70313 0.70313-0.70313 1.9531l-1.6875-0.17188q0.17188-1.8906 1.2969-2.875 1.1406-0.98437 3.0312-0.98437 1.9219 0 3.0469 1.0625t1.125 2.6406q0 0.79688-0.32812 1.5781-0.32813 0.78125-1.0938 1.6406-0.75 0.84375-2.5312 2.3438-1.4688 1.2344-1.8906 1.6875-0.42187 0.4375-0.6875 0.875z"/>
  </g>
  <g fill="#999" fill-rule="evenodd">
   <path d="m505.92 226.28c0-4.2095 3.4125-7.622 7.6221-7.622 2.0215 0 3.9601 0.80302 5.3896 2.2324 1.4294 1.4294 2.2324 3.3681 2.2324 5.3896 0 4.2096-3.4125 7.622-7.622 7.622-4.2096 0-7.6221-3.4125-7.6221-7.622z"/>
   <path d="m529.92 226.28c0-4.2095 3.4125-7.622 7.6221-7.622 2.0215 0 3.9601 0.80302 5.3896 2.2324 1.4294 1.4294 2.2324 3.3681 2.2324 5.3896 0 4.2096-3.4125 7.622-7.622 7.622-4.2096 0-7.6221-3.4125-7.6221-7.622z"/>
   <path d="m553.92 226.28c0-4.2095 3.4125-7.622 7.6221-7.622 2.0215 0 3.9601 0.80302 5.3896 2.2324 1.4294 1.4294 2.2324 3.3681 2.2324 5.3896 0 4.2096-3.4125 7.622-7.622 7.622-4.2096 0-7.6221-3.4125-7.6221-7.622z"/>
  </g>
  <path d="m614.12 181.35c0-10.831 8.7806-19.612 19.612-19.612h78.445c5.2014 0 10.19 2.0663 13.868 5.7442 3.6779 3.678 5.7442 8.6663 5.7442 13.868v89.847c0 10.831-8.7806 19.612-19.612 19.612h-78.445c-10.831 0-19.612-8.7806-19.612-19.612z" fill="#558b2f" fill-rule="evenodd"/>
  <g fill="#fff">
   <path d="m655.59 198.32v-17.188h11.594v2.0312h-9.3125v5.3281h8.0625v2.0156h-8.0625v7.8125zm14.285-14.75v-2.4375h2.1094v2.4375zm0 14.75v-12.453h2.1094v12.453zm5.2695 0v-17.188h2.1094v17.188zm13.91-4.0156 2.1719 0.28125q-0.51563 1.9062-1.9062 2.9688-1.3906 1.0469-3.5625 1.0469-2.7344 0-4.3438-1.6719-1.5938-1.6875-1.5938-4.7344 0-3.1406 1.6094-4.875 1.625-1.7344 4.2031-1.7344 2.5 0 4.0781 1.7031 1.5938 1.7031 1.5938 4.7812 0 0.1875-0.0156 0.5625h-9.2812q0.10937 2.0469 1.1562 3.1406 1.0469 1.0938 2.6094 1.0938 1.1562 0 1.9688-0.60937 0.82813-0.60938 1.3125-1.9531zm-6.9375-3.4062h6.9531q-0.14063-1.5625-0.79688-2.3594-1-1.2188-2.6094-1.2188-1.4531 0-2.4531 0.98437-0.98437 0.96875-1.0938 2.5938z"/>
   <path d="m642.69 221.8 2.1406-0.1875q0.15625 1.2812 0.70313 2.1094 0.5625 0.82813 1.7344 1.3438 1.1719 0.5 2.6406 0.5 1.2969 0 2.2969-0.375 1-0.39062 1.4844-1.0625 0.48437-0.6875 0.48437-1.4844 0-0.79688-0.46875-1.4062-0.46875-0.60938-1.5469-1.0156-0.6875-0.26562-3.0625-0.82812-2.3594-0.57813-3.3125-1.0781-1.2344-0.64062-1.8438-1.5938-0.59375-0.96875-0.59375-2.1406 0-1.3125 0.73437-2.4375 0.75-1.125 2.1562-1.7031 1.4219-0.59375 3.1562-0.59375 1.9062 0 3.3594 0.60938 1.4688 0.60937 2.25 1.8125 0.79687 1.1875 0.84375 2.7031l-2.1719 0.17188q-0.17187-1.6406-1.1875-2.4688-1.0156-0.82813-3-0.82813-2.0625 0-3.0156 0.76563-0.9375 0.75-0.9375 1.8125 0 0.92187 0.67187 1.5156 0.65625 0.60938 3.4219 1.2344 2.7812 0.625 3.8125 1.0938 1.5 0.6875 2.2031 1.75 0.71875 1.0625 0.71875 2.4375t-0.78125 2.5938q-0.78125 1.2031-2.25 1.8906-1.4688 0.67188-3.3125 0.67188-2.3281 0-3.9062-0.67188-1.5781-0.6875-2.4844-2.0469-0.89063-1.375-0.9375-3.0938zm21.117 3.625 0.3125 1.8594q-0.89063 0.20313-1.5938 0.20313-1.1562 0-1.7969-0.35938-0.625-0.375-0.89062-0.96875-0.25-0.59375-0.25-2.4844v-7.1719h-1.5469v-1.6406h1.5469v-3.0781l2.0938-1.2656v4.3438h2.125v1.6406h-2.125v7.2812q0 0.90625 0.10937 1.1719 0.125 0.25 0.375 0.40625 0.25 0.14062 0.71875 0.14062 0.34375 0 0.92188-0.0781zm2.043 1.8906v-12.453h1.8906v1.8906q0.73438-1.3281 1.3438-1.75 0.625-0.42187 1.3594-0.42187 1.0625 0 2.1719 0.6875l-0.73437 1.9531q-0.76563-0.45312-1.5469-0.45312-0.6875 0-1.25 0.42187-0.54687 0.40625-0.78125 1.1406-0.34375 1.125-0.34375 2.4688v6.5156zm16.164 0v-1.8281q-1.4531 2.1094-3.9375 2.1094-1.1094 0-2.0625-0.42187-0.95313-0.42188-1.4219-1.0625-0.45312-0.64063-0.64062-1.5625-0.14063-0.625-0.14063-1.9688v-7.7188h2.1094v6.9062q0 1.6562 0.14062 2.2344 0.1875 0.82813 0.82813 1.3125 0.65625 0.46875 1.6094 0.46875 0.9375 0 1.7656-0.48437 0.84375-0.5 1.1875-1.3281 0.34375-0.84375 0.34375-2.4375v-6.6719h2.1094v12.453zm13.316-4.5625 2.0781 0.26563q-0.34375 2.1562-1.75 3.375-1.3906 1.2031-3.4375 1.2031-2.5469 0-4.1094-1.6719-1.5469-1.6719-1.5469-4.7812 0-2.0156 0.67187-3.5312 0.67188-1.5156 2.0312-2.2656 1.3594-0.76562 2.9688-0.76562 2.0312 0 3.3125 1.0312 1.2969 1.0312 1.6562 2.9062l-2.0469 0.32812q-0.29688-1.2656-1.0469-1.8906-0.73437-0.64063-1.7969-0.64063-1.5938 0-2.5938 1.1562-0.98438 1.1406-0.98438 3.6094 0 2.5 0.95313 3.6406 0.96875 1.1406 2.5156 1.1406 1.2344 0 2.0625-0.76563 0.84375-0.76562 1.0625-2.3438zm8.4844 2.6719 0.3125 1.8594q-0.89063 0.20313-1.5938 0.20313-1.1562 0-1.7969-0.35938-0.625-0.375-0.89062-0.96875-0.25-0.59375-0.25-2.4844v-7.1719h-1.5469v-1.6406h1.5469v-3.0781l2.0938-1.2656v4.3438h2.125v1.6406h-2.125v7.2812q0 0.90625 0.10937 1.1719 0.125 0.25 0.375 0.40625 0.25 0.14062 0.71875 0.14062 0.34375 0 0.92188-0.0781z"/>
   <path d="m651.87 251.2v-13.359h1.7656v13.359zm4.6833 0v-9.6719h1.4688v1.375q1.0625-1.5938 3.0781-1.5938 0.875 0 1.6094 0.3125 0.73437 0.3125 1.0938 0.82813 0.375 0.5 0.51562 1.2031 0.0937 0.45313 0.0937 1.5938v5.9531h-1.6406v-5.8906q0-1-0.20313-1.4844-0.1875-0.5-0.67187-0.79688-0.48438-0.29687-1.1406-0.29687-1.0469 0-1.8125 0.67187-0.75 0.65625-0.75 2.5156v5.2812zm16.641 0v-1.2188q-0.90625 1.4375-2.7031 1.4375-1.1562 0-2.125-0.64063-0.96875-0.64062-1.5-1.7812-0.53125-1.1406-0.53125-2.625 0-1.4531 0.48438-2.625 0.48437-1.1875 1.4375-1.8125 0.96875-0.625 2.1719-0.625 0.875 0 1.5469 0.375 0.6875 0.35938 1.1094 0.95313v-4.7969h1.6406v13.359zm-5.1719-4.8281q0 1.8594 0.78125 2.7812 0.78125 0.92188 1.8438 0.92188 1.0781 0 1.8281-0.875 0.75-0.89063 0.75-2.6875 0-1.9844-0.76563-2.9062-0.76562-0.9375-1.8906-0.9375-1.0781 0-1.8125 0.89062-0.73438 0.89063-0.73438 2.8125zm15.907 1.7188 1.6875 0.20313q-0.40625 1.4844-1.4844 2.3125-1.0781 0.8125-2.7656 0.8125-2.125 0-3.375-1.2969-1.2344-1.3125-1.2344-3.6719 0-2.4531 1.25-3.7969 1.2656-1.3438 3.2656-1.3438 1.9375 0 3.1562 1.3281 1.2344 1.3125 1.2344 3.7031 0 0.15625 0 0.4375h-7.2188q0.0937 1.5938 0.90625 2.4531 0.8125 0.84375 2.0156 0.84375 0.90625 0 1.5469-0.46875 0.64062-0.48438 1.0156-1.5156zm-5.3906-2.6562h5.4062q-0.10938-1.2188-0.625-1.8281-0.78125-0.95313-2.0312-0.95313-1.125 0-1.9062 0.76563-0.76563 0.75-0.84375 2.0156zm8.0476 5.7656 3.5312-5.0312-3.2656-4.6406h2.0469l1.4844 2.2656q0.42187 0.64062 0.67187 1.0781 0.40625-0.59375 0.73438-1.0625l1.6406-2.2812h1.9531l-3.3438 4.5469 3.5938 5.125h-2.0156l-1.9844-3-0.51563-0.8125-2.5469 3.8125z"/>
   <path d="m634.47 273.2v-13.359h1.8125l7.0156 10.484v-10.484h1.6875v13.359h-1.8125l-7.0156-10.5v10.5zm13.582 0v-13.359h9.0156v1.5781h-7.25v4.1406h6.2656v1.5781h-6.2656v6.0625zm11.599 0v-13.359h1.7656v13.359zm4.8083 0v-13.359h1.7812v11.781h6.5625v1.5781zm10.485 0v-13.359h9.6562v1.5781h-7.875v4.0938h7.375v1.5625h-7.375v4.5469h8.1875v1.5781zm16.752-4.0156v-1.6406h5.0312v1.6406zm20.193 2.4375v1.5781h-8.8281q-0.0156-0.59375 0.1875-1.1406 0.34375-0.90625 1.0781-1.7812 0.75-0.875 2.1562-2.0156 2.1719-1.7812 2.9375-2.8281 0.76563-1.0469 0.76563-1.9688 0-0.98437-0.70313-1.6406-0.6875-0.67188-1.8125-0.67188-1.1875 0-1.9062 0.71875-0.70312 0.70313-0.70312 1.9531l-1.6875-0.17188q0.17187-1.8906 1.2969-2.875 1.1406-0.98437 3.0312-0.98437 1.9219 0 3.0469 1.0625t1.125 2.6406q0 0.79688-0.32813 1.5781-0.32812 0.78125-1.0938 1.6406-0.75 0.84375-2.5312 2.3438-1.4688 1.2344-1.8906 1.6875-0.42188 0.4375-0.6875 0.875z"/>
  </g>
  <path d="m742.12 181.35c0-10.831 8.7806-19.612 19.612-19.612h78.445c5.2014 0 10.19 2.0663 13.868 5.7442 3.6779 3.678 5.7442 8.6663 5.7442 13.868v89.847c0 10.831-8.7806 19.612-19.612 19.612h-78.445c-10.831 0-19.612-8.7806-19.612-19.612z" fill="#558b2f" fill-rule="evenodd"/>
  <g fill="#fff">
   <path d="m783.59 198.32v-17.188h11.594v2.0312h-9.3125v5.3281h8.0625v2.0156h-8.0625v7.8125zm14.285-14.75v-2.4375h2.1094v2.4375zm0 14.75v-12.453h2.1094v12.453zm5.2695 0v-17.188h2.1094v17.188zm13.91-4.0156 2.1719 0.28125q-0.51563 1.9062-1.9062 2.9688-1.3906 1.0469-3.5625 1.0469-2.7344 0-4.3438-1.6719-1.5938-1.6875-1.5938-4.7344 0-3.1406 1.6094-4.875 1.625-1.7344 4.2031-1.7344 2.5 0 4.0781 1.7031 1.5938 1.7031 1.5938 4.7812 0 0.1875-0.0156 0.5625h-9.2812q0.10937 2.0469 1.1562 3.1406 1.0469 1.0938 2.6094 1.0938 1.1562 0 1.9688-0.60937 0.82813-0.60938 1.3125-1.9531zm-6.9375-3.4062h6.9531q-0.14063-1.5625-0.79688-2.3594-1-1.2188-2.6094-1.2188-1.4531 0-2.4531 0.98437-0.98437 0.96875-1.0938 2.5938z"/>
   <path d="m770.69 221.8 2.1406-0.1875q0.15625 1.2812 0.70313 2.1094 0.5625 0.82813 1.7344 1.3438 1.1719 0.5 2.6406 0.5 1.2969 0 2.2969-0.375 1-0.39062 1.4844-1.0625 0.48437-0.6875 0.48437-1.4844 0-0.79688-0.46875-1.4062-0.46875-0.60938-1.5469-1.0156-0.6875-0.26562-3.0625-0.82812-2.3594-0.57813-3.3125-1.0781-1.2344-0.64062-1.8438-1.5938-0.59375-0.96875-0.59375-2.1406 0-1.3125 0.73437-2.4375 0.75-1.125 2.1562-1.7031 1.4219-0.59375 3.1562-0.59375 1.9062 0 3.3594 0.60938 1.4688 0.60937 2.25 1.8125 0.79687 1.1875 0.84375 2.7031l-2.1719 0.17188q-0.17187-1.6406-1.1875-2.4688-1.0156-0.82813-3-0.82813-2.0625 0-3.0156 0.76563-0.9375 0.75-0.9375 1.8125 0 0.92187 0.67187 1.5156 0.65625 0.60938 3.4219 1.2344 2.7812 0.625 3.8125 1.0938 1.5 0.6875 2.2031 1.75 0.71875 1.0625 0.71875 2.4375t-0.78125 2.5938q-0.78125 1.2031-2.25 1.8906-1.4688 0.67188-3.3125 0.67188-2.3281 0-3.9062-0.67188-1.5781-0.6875-2.4844-2.0469-0.89063-1.375-0.9375-3.0938zm21.117 3.625 0.3125 1.8594q-0.89063 0.20313-1.5938 0.20313-1.1562 0-1.7969-0.35938-0.625-0.375-0.89062-0.96875-0.25-0.59375-0.25-2.4844v-7.1719h-1.5469v-1.6406h1.5469v-3.0781l2.0938-1.2656v4.3438h2.125v1.6406h-2.125v7.2812q0 0.90625 0.10937 1.1719 0.125 0.25 0.375 0.40625 0.25 0.14062 0.71875 0.14062 0.34375 0 0.92188-0.0781zm2.043 1.8906v-12.453h1.8906v1.8906q0.73438-1.3281 1.3438-1.75 0.625-0.42187 1.3594-0.42187 1.0625 0 2.1719 0.6875l-0.73437 1.9531q-0.76563-0.45312-1.5469-0.45312-0.6875 0-1.25 0.42187-0.54687 0.40625-0.78125 1.1406-0.34375 1.125-0.34375 2.4688v6.5156zm16.164 0v-1.8281q-1.4531 2.1094-3.9375 2.1094-1.1094 0-2.0625-0.42187-0.95313-0.42188-1.4219-1.0625-0.45312-0.64063-0.64062-1.5625-0.14063-0.625-0.14063-1.9688v-7.7188h2.1094v6.9062q0 1.6562 0.14062 2.2344 0.1875 0.82813 0.82813 1.3125 0.65625 0.46875 1.6094 0.46875 0.9375 0 1.7656-0.48437 0.84375-0.5 1.1875-1.3281 0.34375-0.84375 0.34375-2.4375v-6.6719h2.1094v12.453zm13.316-4.5625 2.0781 0.26563q-0.34375 2.1562-1.75 3.375-1.3906 1.2031-3.4375 1.2031-2.5469 0-4.1094-1.6719-1.5469-1.6719-1.5469-4.7812 0-2.0156 0.67187-3.5312 0.67188-1.5156 2.0312-2.2656 1.3594-0.76562 2.9688-0.76562 2.0312 0 3.3125 1.0312 1.2969 1.0312 1.6562 2.9062l-2.0469 0.32812q-0.29688-1.2656-1.0469-1.8906-0.73437-0.64063-1.7969-0.64063-1.5938 0-2.5938 1.1562-0.98438 1.1406-0.98438 3.6094 0 2.5 0.95313 3.6406 0.96875 1.1406 2.5156 1.1406 1.2344 0 2.0625-0.76563 0.84375-0.76562 1.0625-2.3438zm8.4844 2.6719 0.3125 1.8594q-0.89063 0.20313-1.5938 0.20313-1.1562 0-1.7969-0.35938-0.625-0.375-0.89062-0.96875-0.25-0.59375-0.25-2.4844v-7.1719h-1.5469v-1.6406h1.5469v-3.0781l2.0938-1.2656v4.3438h2.125v1.6406h-2.125v7.2812q0 0.90625 0.10937 1.1719 0.125 0.25 0.375 0.40625 0.25 0.14062 0.71875 0.14062 0.34375 0 0.92188-0.0781z"/>
   <path d="m779.87 251.2v-13.359h1.7656v13.359zm4.6833 0v-9.6719h1.4688v1.375q1.0625-1.5938 3.0781-1.5938 0.875 0 1.6094 0.3125 0.73437 0.3125 1.0938 0.82813 0.375 0.5 0.51562 1.2031 0.0937 0.45313 0.0937 1.5938v5.9531h-1.6406v-5.8906q0-1-0.20313-1.4844-0.1875-0.5-0.67187-0.79688-0.48438-0.29687-1.1406-0.29687-1.0469 0-1.8125 0.67187-0.75 0.65625-0.75 2.5156v5.2812zm16.641 0v-1.2188q-0.90625 1.4375-2.7031 1.4375-1.1562 0-2.125-0.64063-0.96875-0.64062-1.5-1.7812-0.53125-1.1406-0.53125-2.625 0-1.4531 0.48438-2.625 0.48437-1.1875 1.4375-1.8125 0.96875-0.625 2.1719-0.625 0.875 0 1.5469 0.375 0.6875 0.35938 1.1094 0.95313v-4.7969h1.6406v13.359zm-5.1719-4.8281q0 1.8594 0.78125 2.7812 0.78125 0.92188 1.8438 0.92188 1.0781 0 1.8281-0.875 0.75-0.89063 0.75-2.6875 0-1.9844-0.76563-2.9062-0.76562-0.9375-1.8906-0.9375-1.0781 0-1.8125 0.89062-0.73438 0.89063-0.73438 2.8125zm15.907 1.7188 1.6875 0.20313q-0.40625 1.4844-1.4844 2.3125-1.0781 0.8125-2.7656 0.8125-2.125 0-3.375-1.2969-1.2344-1.3125-1.2344-3.6719 0-2.4531 1.25-3.7969 1.2656-1.3438 3.2656-1.3438 1.9375 0 3.1562 1.3281 1.2344 1.3125 1.2344 3.7031 0 0.15625 0 0.4375h-7.2188q0.0937 1.5938 0.90625 2.4531 0.8125 0.84375 2.0156 0.84375 0.90625 0 1.5469-0.46875 0.64062-0.48438 1.0156-1.5156zm-5.3906-2.6562h5.4062q-0.10938-1.2188-0.625-1.8281-0.78125-0.95313-2.0312-0.95313-1.125 0-1.9062 0.76563-0.76563 0.75-0.84375 2.0156zm8.0476 5.7656 3.5312-5.0312-3.2656-4.6406h2.0469l1.4844 2.2656q0.42187 0.64062 0.67187 1.0781 0.40625-0.59375 0.73438-1.0625l1.6406-2.2812h1.9531l-3.3438 4.5469 3.5938 5.125h-2.0156l-1.9844-3-0.51563-0.8125-2.5469 3.8125z"/>
   <path d="m762.47 273.2v-13.359h1.8125l7.0156 10.484v-10.484h1.6875v13.359h-1.8125l-7.0156-10.5v10.5zm13.582 0v-13.359h9.0156v1.5781h-7.25v4.1406h6.2656v1.5781h-6.2656v6.0625zm11.599 0v-13.359h1.7656v13.359zm4.8083 0v-13.359h1.7812v11.781h6.5625v1.5781zm10.485 0v-13.359h9.6562v1.5781h-7.875v4.0938h7.375v1.5625h-7.375v4.5469h8.1875v1.5781zm16.752-4.0156v-1.6406h5.0312v1.6406zm17.755 4.0156h-1.6406v-10.453q-0.59375 0.5625-1.5625 1.1406-0.95313 0.5625-1.7188 0.84375v-1.5938q1.375-0.64063 2.4062-1.5625 1.0312-0.92188 1.4531-1.7812h1.0625z"/>
  </g>
  <g transform="translate(3.7722)">
   <path d="m315.15 318.68c0-3.0674 2.4866-5.5539 5.5539-5.5539h22.215c1.473 0 2.8856 0.58514 3.9272 1.6267 1.0416 1.0416 1.6267 2.4542 1.6267 3.9272v25.428c0 3.0674-2.4866 5.5539-5.5539 5.5539h-22.215c-3.0674 0-5.5539-2.4866-5.5539-5.5539z" fill="#fff" fill-rule="evenodd"/>
   <path d="m366.54 330.51h-7.5938v-1.4531h7.5938zm0 3.7812h-7.5938v-1.4531h7.5938zm9.2951 3.6406h-1.75v-13.266h1.75zm4.5271-9.8594 0.0469 1.2344q1.125-1.4062 2.9531-1.4062 3.125 0 3.1562 3.5156v6.5156h-1.6875v-6.5156q-0.0156-1.0781-0.5-1.5781-0.46875-0.51563-1.4844-0.51563-0.8125 0-1.4375 0.4375-0.60938 0.4375-0.96875 1.1562v7.0156h-1.6719v-9.8594zm19.397 8.8906q-0.98437 1.1562-2.8906 1.1562-1.5781 0-2.4062-0.92188-0.8125-0.92187-0.82813-2.7031v-6.4219h1.6875v6.375q0 2.2344 1.8281 2.2344 1.9219 0 2.5625-1.4375v-7.1719h1.6875v9.8594h-1.6094zm9.9409-1.6406q0-0.6875-0.51563-1.0625-0.51562-0.375-1.7969-0.64062-1.2812-0.28125-2.0312-0.65625-0.75-0.39063-1.1094-0.92188-0.35937-0.53125-0.35937-1.2656 0-1.2031 1.0156-2.0312 1.0312-0.84375 2.625-0.84375 1.6719 0 2.7188 0.85937 1.0469 0.85938 1.0469 2.2188h-1.6875q0-0.70312-0.59375-1.2031t-1.4844-0.5q-0.92187 0-1.4375 0.40625-0.51562 0.39062-0.51562 1.0469 0 0.60938 0.48437 0.92188 0.48438 0.3125 1.7344 0.59375 1.2656 0.28125 2.0469 0.67187 0.78125 0.39063 1.1562 0.9375 0.39063 0.54688 0.39063 1.3438 0 1.3281-1.0625 2.125-1.0469 0.79688-2.7344 0.79688-1.1875 0-2.1094-0.42188-0.90625-0.42187-1.4219-1.1719-0.51562-0.75-0.51562-1.625h1.6875q0.0469 0.84375 0.67187 1.3438 0.64063 0.5 1.6875 0.5 0.95313 0 1.5312-0.39063 0.57813-0.39062 0.57813-1.0312zm7.9634 2.7969q-2 0-3.2656-1.3125-1.25-1.3281-1.25-3.5312v-0.3125q0-1.4688 0.5625-2.6094 0.5625-1.1562 1.5625-1.7969 1.0156-0.65625 2.1875-0.65625 1.9219 0 2.9844 1.2656 1.0625 1.2656 1.0625 3.625v0.6875h-6.6719q0.0312 1.4688 0.84375 2.375 0.82813 0.89063 2.0781 0.89063 0.89062 0 1.5156-0.35938 0.625-0.375 1.0781-0.96875l1.0312 0.79688q-1.2344 1.9062-3.7188 1.9062zm-0.20313-8.8438q-1.0156 0-1.7188 0.75-0.6875 0.73437-0.84375 2.0781h4.9375v-0.125q-0.0781-1.2812-0.70312-1.9844-0.60938-0.71875-1.6719-0.71875z" fill="#000"/>
   <path d="m507.15 318.68c0-3.0674 2.4866-5.5539 5.5539-5.5539h22.215c1.473 0 2.8856 0.58514 3.9272 1.6267 1.0416 1.0416 1.6267 2.4542 1.6267 3.9272v25.428c0 3.0674-2.4866 5.5539-5.5539 5.5539h-22.215c-3.0673 0-5.5539-2.4866-5.5539-5.5539z" fill="#558b2f" fill-rule="evenodd"/>
   <path d="m557.27 330.88h-7.5938v-1.4531h7.5938zm0 3.7812h-7.5938v-1.4531h7.5938zm14.733 0.17188h-5.5469l-1.25 3.4688h-1.8125l5.0625-13.266h1.5312l5.0781 13.266h-1.7969zm-5.0312-1.4375h4.5156l-2.2656-6.2031zm12.418 2.625 2.4375-7.5781h1.7188l-3.5312 9.8594h-1.2812l-3.5781-9.8594h1.7188zm11.728 2.2812q-0.14062-0.29688-0.23437-1.0312-1.1719 1.2188-2.8125 1.2188-1.4531 0-2.3906-0.82813-0.92187-0.82812-0.92187-2.0938 0-1.5312 1.1562-2.375 1.1719-0.85937 3.2969-0.85937h1.6406v-0.78125q0-0.89063-0.53125-1.4062-0.51563-0.53125-1.5469-0.53125-0.90625 0-1.5156 0.46875-0.60938 0.45312-0.60938 1.0938h-1.7031q0-0.73438 0.51562-1.4219 0.53125-0.6875 1.4219-1.0781 0.90625-0.40625 1.9844-0.40625 1.7031 0 2.6719 0.85937 0.96875 0.84375 1 2.3281v4.5312q0 1.3594 0.34375 2.1719v0.14063zm-2.7969-1.2812q0.79687 0 1.5-0.40625 0.71875-0.42188 1.0312-1.0781v-2.0156h-1.3125q-3.1094 0-3.1094 1.8125 0 0.79687 0.53125 1.25 0.53125 0.4375 1.3594 0.4375zm8.6949 1.2812h-1.6875v-9.8594h1.6875zm-1.8281-12.469q0-0.40625 0.25-0.6875 0.25-0.29688 0.73437-0.29688 0.5 0 0.75 0.29688 0.26563 0.28125 0.26563 0.6875t-0.26563 0.6875q-0.25 0.26562-0.75 0.26562-0.48437 0-0.73437-0.26562-0.25-0.28125-0.25-0.6875zm6.3555 12.469h-1.6875v-14h1.6875zm8.7774 0q-0.14062-0.29688-0.23437-1.0312-1.1719 1.2188-2.8125 1.2188-1.4531 0-2.3906-0.82813-0.92187-0.82812-0.92187-2.0938 0-1.5312 1.1562-2.375 1.1719-0.85937 3.2969-0.85937h1.6406v-0.78125q0-0.89063-0.53125-1.4062-0.51563-0.53125-1.5469-0.53125-0.90625 0-1.5156 0.46875-0.60938 0.45312-0.60938 1.0938h-1.7031q0-0.73438 0.51562-1.4219 0.53125-0.6875 1.4219-1.0781 0.90625-0.40625 1.9844-0.40625 1.7031 0 2.6719 0.85937 0.96875 0.84375 1 2.3281v4.5312q0 1.3594 0.34375 2.1719v0.14063zm-2.7969-1.2812q0.79687 0 1.5-0.40625 0.71875-0.42188 1.0312-1.0781v-2.0156h-1.3125q-3.1094 0-3.1094 1.8125 0 0.79687 0.53125 1.25 0.53125 0.4375 1.3594 0.4375zm15.211-3.5312q0 2.25-1.0469 3.625-1.0312 1.375-2.7812 1.375-1.875 0-2.8906-1.3281l-0.0781 1.1406h-1.5469v-14h1.6719v5.2344q1.0312-1.2656 2.8125-1.2656 1.7969 0 2.8281 1.3594 1.0312 1.3438 1.0312 3.7031zm-1.6875-0.20313q0-1.7188-0.67188-2.6562-0.65625-0.9375-1.9062-0.9375-1.6719 0-2.4062 1.5469v4.2656q0.78125 1.5469 2.4219 1.5469 1.2188 0 1.8906-0.9375 0.67188-0.9375 0.67188-2.8281zm5.6387 5.0156h-1.6875v-14h1.6875zm6.7774 0.1875q-2 0-3.2656-1.3125-1.25-1.3281-1.25-3.5312v-0.3125q0-1.4688 0.5625-2.6094 0.5625-1.1562 1.5625-1.7969 1.0156-0.65625 2.1875-0.65625 1.9219 0 2.9844 1.2656 1.0625 1.2656 1.0625 3.625v0.6875h-6.6719q0.0312 1.4688 0.84375 2.375 0.82813 0.89063 2.0781 0.89063 0.89062 0 1.5156-0.35938 0.625-0.375 1.0781-0.96875l1.0312 0.79688q-1.2344 1.9062-3.7188 1.9062zm-0.20313-8.8438q-1.0156 0-1.7188 0.75-0.6875 0.73437-0.84375 2.0781h4.9375v-0.125q-0.0781-1.2812-0.70312-1.9844-0.60938-0.71875-1.6719-0.71875z" fill="#000"/>
  </g>
  <path d="m317.81 301.46h324.39c16.583 0 29.934 13.35 29.934 29.934 0 16.583-13.35 29.934-29.934 29.934h-324.39c-16.583 0-29.934-13.35-29.934-29.934 0-16.583 13.35-29.934 29.934-29.934z" fill="#cfd8dc"/>
  <g fill-rule="evenodd">
   <path d="m90.441 156.53h779.12v139.5h-779.12z" fill="#cfd8dc"/>
   <path d="m90.441 156.53h779.12v139.5h-779.12z" stroke="#004065" stroke-linecap="butt" stroke-linejoin="round"/>
   <path d="m98.013 181.35c0-10.831 8.7806-19.612 19.612-19.612h78.445c5.2014 0 10.19 2.0663 13.868 5.7442 3.678 3.678 5.7442 8.6663 5.7442 13.868v89.847c0 10.831-8.7806 19.612-19.612 19.612h-78.445c-10.831 0-19.612-8.7806-19.612-19.612z" fill="#fff"/>
  </g>
  <g fill="#00517c">
   <path d="m139.48 209.32v-17.188h11.594v2.0312h-9.3125v5.3281h8.0625v2.0156h-8.0625v7.8125zm14.285-14.75v-2.4375h2.1094v2.4375zm0 14.75v-12.453h2.1094v12.453zm5.2695 0v-17.188h2.1094v17.188zm13.91-4.0156 2.1719 0.28125q-0.51563 1.9062-1.9062 2.9688-1.3906 1.0469-3.5625 1.0469-2.7344 0-4.3438-1.6719-1.5938-1.6875-1.5938-4.7344 0-3.1406 1.6094-4.875 1.625-1.7344 4.2031-1.7344 2.5 0 4.0781 1.7031 1.5938 1.7031 1.5938 4.7812 0 0.1875-0.0156 0.5625h-9.2812q0.10937 2.0469 1.1562 3.1406 1.0469 1.0938 2.6094 1.0938 1.1562 0 1.9688-0.60937 0.82813-0.60938 1.3125-1.9531zm-6.9375-3.4062h6.9531q-0.14063-1.5625-0.79688-2.3594-1-1.2188-2.6094-1.2188-1.4531 0-2.4531 0.98437-0.98437 0.96875-1.0938 2.5938z"/>
   <path d="m126.58 232.8 2.1406-0.1875q0.15625 1.2812 0.70312 2.1094 0.5625 0.82813 1.7344 1.3438 1.1719 0.5 2.6406 0.5 1.2969 0 2.2969-0.375 1-0.39062 1.4844-1.0625 0.48438-0.6875 0.48438-1.4844 0-0.79688-0.46875-1.4062-0.46875-0.60938-1.5469-1.0156-0.6875-0.26562-3.0625-0.82812-2.3594-0.57813-3.3125-1.0781-1.2344-0.64062-1.8437-1.5938-0.59375-0.96875-0.59375-2.1406 0-1.3125 0.73438-2.4375 0.74999-1.125 2.1562-1.7031 1.4219-0.59375 3.1562-0.59375 1.9062 0 3.3594 0.60938 1.4688 0.60937 2.25 1.8125 0.79688 1.1875 0.84375 2.7031l-2.1719 0.17188q-0.17188-1.6406-1.1875-2.4688-1.0156-0.82813-3-0.82813-2.0625 0-3.0156 0.76563-0.9375 0.75-0.9375 1.8125 0 0.92187 0.67188 1.5156 0.65625 0.60938 3.4219 1.2344 2.7812 0.625 3.8125 1.0938 1.5 0.6875 2.2031 1.75 0.71875 1.0625 0.71875 2.4375t-0.78125 2.5938q-0.78125 1.2031-2.25 1.8906-1.4688 0.67188-3.3125 0.67188-2.3281 0-3.9062-0.67188-1.5781-0.6875-2.4844-2.0469-0.89062-1.375-0.9375-3.0938zm21.117 3.625 0.3125 1.8594q-0.89063 0.20313-1.5938 0.20313-1.1562 0-1.7969-0.35938-0.625-0.375-0.89062-0.96875-0.25-0.59375-0.25-2.4844v-7.1719h-1.5469v-1.6406h1.5469v-3.0781l2.0938-1.2656v4.3438h2.125v1.6406h-2.125v7.2812q0 0.90625 0.10937 1.1719 0.125 0.25 0.375 0.40625 0.25 0.14062 0.71875 0.14062 0.34375 0 0.92188-0.0781zm2.043 1.8906v-12.453h1.8906v1.8906q0.73438-1.3281 1.3438-1.75 0.625-0.42187 1.3594-0.42187 1.0625 0 2.1719 0.6875l-0.73437 1.9531q-0.76563-0.45312-1.5469-0.45312-0.6875 0-1.25 0.42187-0.54687 0.40625-0.78125 1.1406-0.34375 1.125-0.34375 2.4688v6.5156zm16.164 0v-1.8281q-1.4531 2.1094-3.9375 2.1094-1.1094 0-2.0625-0.42187-0.95312-0.42188-1.4219-1.0625-0.45313-0.64063-0.64063-1.5625-0.14062-0.625-0.14062-1.9688v-7.7188h2.1094v6.9062q0 1.6562 0.14063 2.2344 0.1875 0.82813 0.82812 1.3125 0.65625 0.46875 1.6094 0.46875 0.9375 0 1.7656-0.48437 0.84375-0.5 1.1875-1.3281 0.34375-0.84375 0.34375-2.4375v-6.6719h2.1094v12.453zm13.316-4.5625 2.0781 0.26563q-0.34375 2.1562-1.75 3.375-1.3906 1.2031-3.4375 1.2031-2.5469 0-4.1094-1.6719-1.5469-1.6719-1.5469-4.7812 0-2.0156 0.67188-3.5312 0.67187-1.5156 2.0312-2.2656 1.3594-0.76562 2.9688-0.76562 2.0312 0 3.3125 1.0312 1.2969 1.0312 1.6562 2.9062l-2.0469 0.32812q-0.29687-1.2656-1.0469-1.8906-0.73438-0.64063-1.7969-0.64063-1.5938 0-2.5938 1.1562-0.98437 1.1406-0.98437 3.6094 0 2.5 0.95312 3.6406 0.96875 1.1406 2.5156 1.1406 1.2344 0 2.0625-0.76563 0.84375-0.76562 1.0625-2.3438zm8.4844 2.6719 0.3125 1.8594q-0.89062 0.20313-1.5938 0.20313-1.1562 0-1.7969-0.35938-0.625-0.375-0.89063-0.96875-0.25-0.59375-0.25-2.4844v-7.1719h-1.5469v-1.6406h1.5469v-3.0781l2.0938-1.2656v4.3438h2.125v1.6406h-2.125v7.2812q0 0.90625 0.10938 1.1719 0.125 0.25 0.375 0.40625 0.25 0.14062 0.71875 0.14062 0.34375 0 0.92187-0.0781z"/>
   <path d="m127.98 262.2v-13.359h1.7656v13.359zm4.6833 0v-9.6719h1.4688v1.375q1.0625-1.5938 3.0781-1.5938 0.875 0 1.6094 0.3125 0.73438 0.3125 1.0938 0.82813 0.375 0.5 0.51563 1.2031 0.0937 0.45313 0.0937 1.5938v5.9531h-1.6406v-5.8906q0-1-0.20312-1.4844-0.1875-0.5-0.67188-0.79688-0.48437-0.29687-1.1406-0.29687-1.0469 0-1.8125 0.67187-0.75 0.65625-0.75 2.5156v5.2812zm16.641 0v-1.2188q-0.90625 1.4375-2.7031 1.4375-1.1562 0-2.125-0.64063-0.96875-0.64062-1.5-1.7812-0.53125-1.1406-0.53125-2.625 0-1.4531 0.48437-2.625 0.48438-1.1875 1.4375-1.8125 0.96875-0.625 2.1719-0.625 0.875 0 1.5469 0.375 0.6875 0.35938 1.1094 0.95313v-4.7969h1.6406v13.359zm-5.1719-4.8281q0 1.8594 0.78125 2.7812 0.78125 0.92188 1.8438 0.92188 1.0781 0 1.8281-0.875 0.75-0.89063 0.75-2.6875 0-1.9844-0.76562-2.9062-0.76563-0.9375-1.8906-0.9375-1.0781 0-1.8125 0.89062-0.73437 0.89063-0.73437 2.8125zm15.907 1.7188 1.6875 0.20313q-0.40625 1.4844-1.4844 2.3125-1.0781 0.8125-2.7656 0.8125-2.125 0-3.375-1.2969-1.2344-1.3125-1.2344-3.6719 0-2.4531 1.25-3.7969 1.2656-1.3438 3.2656-1.3438 1.9375 0 3.1562 1.3281 1.2344 1.3125 1.2344 3.7031 0 0.15625 0 0.4375h-7.2188q0.0937 1.5938 0.90625 2.4531 0.8125 0.84375 2.0156 0.84375 0.90625 0 1.5469-0.46875 0.64063-0.48438 1.0156-1.5156zm-5.3906-2.6562h5.4062q-0.10937-1.2188-0.625-1.8281-0.78125-0.95313-2.0312-0.95313-1.125 0-1.9062 0.76563-0.76562 0.75-0.84375 2.0156zm8.0476 5.7656 3.5312-5.0312-3.2656-4.6406h2.0469l1.4844 2.2656q0.42187 0.64062 0.67187 1.0781 0.40625-0.59375 0.73438-1.0625l1.6406-2.2812h1.9531l-3.3438 4.5469 3.5938 5.125h-2.0156l-1.9844-3-0.51563-0.8125-2.5469 3.8125zm15.152-6.5938q0-2.3594 0.48437-3.7969 0.48438-1.4531 1.4375-2.2344 0.96875-0.78125 2.4219-0.78125 1.0781 0 1.8906 0.4375 0.8125 0.42187 1.3281 1.25 0.53125 0.8125 0.82812 1.9844 0.3125 1.1562 0.3125 3.1406 0 2.3594-0.48437 3.8125-0.48438 1.4375-1.4531 2.2344-0.95312 0.78125-2.4219 0.78125-1.9219 0-3.0312-1.3906-1.3125-1.6719-1.3125-5.4375zm1.6719 0q0 3.2969 0.76563 4.3906 0.78125 1.0781 1.9062 1.0781 1.1406 0 1.9062-1.0938 0.76562-1.0938 0.76562-4.375 0-3.2969-0.76562-4.375-0.76563-1.0781-1.9219-1.0781-1.125 0-1.7969 0.95313-0.85938 1.2188-0.85938 4.5z"/>
  </g>
  <path d="m224.07 181.35c0-10.831 8.7806-19.612 19.612-19.612h78.445c5.2014 0 10.19 2.0663 13.868 5.7442 3.678 3.678 5.7442 8.6663 5.7442 13.868v89.847c0 10.831-8.7806 19.612-19.612 19.612h-78.445c-10.831 0-19.612-8.7806-19.612-19.612z" fill="#558b2f" fill-rule="evenodd"/>
  <g fill="#fff">
   <g>
    <path d="m265.54 209.32v-17.188h11.594v2.0312h-9.3125v5.3281h8.0625v2.0156h-8.0625v7.8125zm14.285-14.75v-2.4375h2.1094v2.4375zm0 14.75v-12.453h2.1094v12.453zm5.2695 0v-17.188h2.1094v17.188zm13.91-4.0156 2.1719 0.28125q-0.51563 1.9062-1.9062 2.9688-1.3906 1.0469-3.5625 1.0469-2.7344 0-4.3438-1.6719-1.5938-1.6875-1.5938-4.7344 0-3.1406 1.6094-4.875 1.625-1.7344 4.2031-1.7344 2.5 0 4.0781 1.7031 1.5938 1.7031 1.5938 4.7812 0 0.1875-0.0156 0.5625h-9.2812q0.10937 2.0469 1.1562 3.1406 1.0469 1.0938 2.6094 1.0938 1.1562 0 1.9688-0.60937 0.82813-0.60938 1.3125-1.9531zm-6.9375-3.4062h6.9531q-0.14063-1.5625-0.79688-2.3594-1-1.2188-2.6094-1.2188-1.4531 0-2.4531 0.98437-0.98437 0.96875-1.0938 2.5938z"/>
    <path d="m252.64 232.8 2.1406-0.1875q0.15625 1.2812 0.70313 2.1094 0.5625 0.82813 1.7344 1.3438 1.1719 0.5 2.6406 0.5 1.2969 0 2.2969-0.375 1-0.39062 1.4844-1.0625 0.48438-0.6875 0.48438-1.4844 0-0.79688-0.46875-1.4062-0.46875-0.60938-1.5469-1.0156-0.6875-0.26562-3.0625-0.82812-2.3594-0.57813-3.3125-1.0781-1.2344-0.64062-1.8438-1.5938-0.59375-0.96875-0.59375-2.1406 0-1.3125 0.73438-2.4375 0.75-1.125 2.1562-1.7031 1.4219-0.59375 3.1562-0.59375 1.9062 0 3.3594 0.60938 1.4688 0.60937 2.25 1.8125 0.79688 1.1875 0.84375 2.7031l-2.1719 0.17188q-0.17188-1.6406-1.1875-2.4688-1.0156-0.82813-3-0.82813-2.0625 0-3.0156 0.76563-0.9375 0.75-0.9375 1.8125 0 0.92187 0.67188 1.5156 0.65625 0.60938 3.4219 1.2344 2.7812 0.625 3.8125 1.0938 1.5 0.6875 2.2031 1.75 0.71875 1.0625 0.71875 2.4375t-0.78125 2.5938q-0.78125 1.2031-2.25 1.8906-1.4688 0.67188-3.3125 0.67188-2.3281 0-3.9062-0.67188-1.5781-0.6875-2.4844-2.0469-0.89062-1.375-0.9375-3.0938zm21.117 3.625 0.3125 1.8594q-0.89063 0.20313-1.5938 0.20313-1.1562 0-1.7969-0.35938-0.625-0.375-0.89062-0.96875-0.25-0.59375-0.25-2.4844v-7.1719h-1.5469v-1.6406h1.5469v-3.0781l2.0938-1.2656v4.3438h2.125v1.6406h-2.125v7.2812q0 0.90625 0.10937 1.1719 0.125 0.25 0.375 0.40625 0.25 0.14062 0.71875 0.14062 0.34375 0 0.92188-0.0781zm2.043 1.8906v-12.453h1.8906v1.8906q0.73438-1.3281 1.3438-1.75 0.625-0.42187 1.3594-0.42187 1.0625 0 2.1719 0.6875l-0.73437 1.9531q-0.76563-0.45312-1.5469-0.45312-0.6875 0-1.25 0.42187-0.54687 0.40625-0.78125 1.1406-0.34375 1.125-0.34375 2.4688v6.5156zm16.164 0v-1.8281q-1.4531 2.1094-3.9375 2.1094-1.1094 0-2.0625-0.42187-0.95313-0.42188-1.4219-1.0625-0.45312-0.64063-0.64062-1.5625-0.14063-0.625-0.14063-1.9688v-7.7188h2.1094v6.9062q0 1.6562 0.14062 2.2344 0.1875 0.82813 0.82813 1.3125 0.65625 0.46875 1.6094 0.46875 0.9375 0 1.7656-0.48437 0.84375-0.5 1.1875-1.3281 0.34375-0.84375 0.34375-2.4375v-6.6719h2.1094v12.453zm13.316-4.5625 2.0781 0.26563q-0.34375 2.1562-1.75 3.375-1.3906 1.2031-3.4375 1.2031-2.5469 0-4.1094-1.6719-1.5469-1.6719-1.5469-4.7812 0-2.0156 0.67187-3.5312 0.67188-1.5156 2.0312-2.2656 1.3594-0.76562 2.9688-0.76562 2.0312 0 3.3125 1.0312 1.2969 1.0312 1.6562 2.9062l-2.0469 0.32812q-0.29688-1.2656-1.0469-1.8906-0.73437-0.64063-1.7969-0.64063-1.5938 0-2.5938 1.1562-0.98438 1.1406-0.98438 3.6094 0 2.5 0.95313 3.6406 0.96875 1.1406 2.5156 1.1406 1.2344 0 2.0625-0.76563 0.84375-0.76562 1.0625-2.3438zm8.4844 2.6719 0.3125 1.8594q-0.89063 0.20313-1.5938 0.20313-1.1562 0-1.7969-0.35938-0.625-0.375-0.89062-0.96875-0.25-0.59375-0.25-2.4844v-7.1719h-1.5469v-1.6406h1.5469v-3.0781l2.0938-1.2656v4.3438h2.125v1.6406h-2.125v7.2812q0 0.90625 0.10937 1.1719 0.125 0.25 0.375 0.40625 0.25 0.14062 0.71875 0.14062 0.34375 0 0.92188-0.0781z"/>
    <path d="m254.04 262.2v-13.359h1.7656v13.359zm4.6833 0v-9.6719h1.4688v1.375q1.0625-1.5938 3.0781-1.5938 0.875 0 1.6094 0.3125 0.73438 0.3125 1.0938 0.82813 0.375 0.5 0.51563 1.2031 0.0937 0.45313 0.0937 1.5938v5.9531h-1.6406v-5.8906q0-1-0.20312-1.4844-0.1875-0.5-0.67188-0.79688-0.48437-0.29687-1.1406-0.29687-1.0469 0-1.8125 0.67187-0.75 0.65625-0.75 2.5156v5.2812zm16.641 0v-1.2188q-0.90625 1.4375-2.7031 1.4375-1.1562 0-2.125-0.64063-0.96875-0.64062-1.5-1.7812-0.53125-1.1406-0.53125-2.625 0-1.4531 0.48437-2.625 0.48438-1.1875 1.4375-1.8125 0.96875-0.625 2.1719-0.625 0.875 0 1.5469 0.375 0.6875 0.35938 1.1094 0.95313v-4.7969h1.6406v13.359zm-5.1719-4.8281q0 1.8594 0.78125 2.7812 0.78125 0.92188 1.8438 0.92188 1.0781 0 1.8281-0.875 0.75-0.89063 0.75-2.6875 0-1.9844-0.76562-2.9062-0.76563-0.9375-1.8906-0.9375-1.0781 0-1.8125 0.89062-0.73437 0.89063-0.73437 2.8125zm15.907 1.7188 1.6875 0.20313q-0.40625 1.4844-1.4844 2.3125-1.0781 0.8125-2.7656 0.8125-2.125 0-3.375-1.2969-1.2344-1.3125-1.2344-3.6719 0-2.4531 1.25-3.7969 1.2656-1.3438 3.2656-1.3438 1.9375 0 3.1562 1.3281 1.2344 1.3125 1.2344 3.7031 0 0.15625 0 0.4375h-7.2188q0.0937 1.5938 0.90625 2.4531 0.8125 0.84375 2.0156 0.84375 0.90625 0 1.5469-0.46875 0.64063-0.48438 1.0156-1.5156zm-5.3906-2.6562h5.4062q-0.10937-1.2188-0.625-1.8281-0.78125-0.95313-2.0312-0.95313-1.125 0-1.9062 0.76563-0.76562 0.75-0.84375 2.0156zm8.0476 5.7656 3.5312-5.0312-3.2656-4.6406h2.0469l1.4844 2.2656q0.42188 0.64062 0.67188 1.0781 0.40625-0.59375 0.73437-1.0625l1.6406-2.2812h1.9531l-3.3438 4.5469 3.5938 5.125h-2.0156l-1.9844-3-0.51562-0.8125-2.5469 3.8125zm21.324 0h-1.6406v-10.453q-0.59375 0.5625-1.5625 1.1406-0.95313 0.5625-1.7188 0.84375v-1.5938q1.375-0.64063 2.4062-1.5625 1.0312-0.92188 1.4531-1.7812h1.0625z"/>
   </g>
   <path d="m350.12 181.35c0-10.831 8.7806-19.612 19.612-19.612h78.445c5.2014 0 10.19 2.0663 13.868 5.7442 3.678 3.678 5.7442 8.6663 5.7442 13.868v89.847c0 10.831-8.7806 19.612-19.612 19.612h-78.445c-10.831 0-19.612-8.7806-19.612-19.612z" fill-rule="evenodd"/>
  </g>
  <g fill="#00517c">
   <path d="m391.59 209.32v-17.188h11.594v2.0312h-9.3125v5.3281h8.0625v2.0156h-8.0625v7.8125zm14.285-14.75v-2.4375h2.1094v2.4375zm0 14.75v-12.453h2.1094v12.453zm5.2695 0v-17.188h2.1094v17.188zm13.91-4.0156 2.1719 0.28125q-0.51563 1.9062-1.9062 2.9688-1.3906 1.0469-3.5625 1.0469-2.7344 0-4.3438-1.6719-1.5938-1.6875-1.5938-4.7344 0-3.1406 1.6094-4.875 1.625-1.7344 4.2031-1.7344 2.5 0 4.0781 1.7031 1.5938 1.7031 1.5938 4.7812 0 0.1875-0.0156 0.5625h-9.2812q0.10937 2.0469 1.1562 3.1406 1.0469 1.0938 2.6094 1.0938 1.1562 0 1.9688-0.60937 0.82813-0.60938 1.3125-1.9531zm-6.9375-3.4062h6.9531q-0.14063-1.5625-0.79688-2.3594-1-1.2188-2.6094-1.2188-1.4531 0-2.4531 0.98437-0.98437 0.96875-1.0938 2.5938z"/>
   <path d="m378.69 232.8 2.1406-0.1875q0.15625 1.2812 0.70313 2.1094 0.5625 0.82813 1.7344 1.3438 1.1719 0.5 2.6406 0.5 1.2969 0 2.2969-0.375 1-0.39062 1.4844-1.0625 0.48437-0.6875 0.48437-1.4844 0-0.79688-0.46875-1.4062-0.46875-0.60938-1.5469-1.0156-0.6875-0.26562-3.0625-0.82812-2.3594-0.57813-3.3125-1.0781-1.2344-0.64062-1.8438-1.5938-0.59375-0.96875-0.59375-2.1406 0-1.3125 0.73437-2.4375 0.75-1.125 2.1562-1.7031 1.4219-0.59375 3.1562-0.59375 1.9062 0 3.3594 0.60938 1.4688 0.60937 2.25 1.8125 0.79687 1.1875 0.84375 2.7031l-2.1719 0.17188q-0.17187-1.6406-1.1875-2.4688-1.0156-0.82813-3-0.82813-2.0625 0-3.0156 0.76563-0.9375 0.75-0.9375 1.8125 0 0.92187 0.67187 1.5156 0.65625 0.60938 3.4219 1.2344 2.7812 0.625 3.8125 1.0938 1.5 0.6875 2.2031 1.75 0.71875 1.0625 0.71875 2.4375t-0.78125 2.5938q-0.78125 1.2031-2.25 1.8906-1.4688 0.67188-3.3125 0.67188-2.3281 0-3.9062-0.67188-1.5781-0.6875-2.4844-2.0469-0.89063-1.375-0.9375-3.0938zm21.117 3.625 0.3125 1.8594q-0.89063 0.20313-1.5938 0.20313-1.1562 0-1.7969-0.35938-0.625-0.375-0.89062-0.96875-0.25-0.59375-0.25-2.4844v-7.1719h-1.5469v-1.6406h1.5469v-3.0781l2.0938-1.2656v4.3438h2.125v1.6406h-2.125v7.2812q0 0.90625 0.10937 1.1719 0.125 0.25 0.375 0.40625 0.25 0.14062 0.71875 0.14062 0.34375 0 0.92188-0.0781zm2.043 1.8906v-12.453h1.8906v1.8906q0.73438-1.3281 1.3438-1.75 0.625-0.42187 1.3594-0.42187 1.0625 0 2.1719 0.6875l-0.73437 1.9531q-0.76563-0.45312-1.5469-0.45312-0.6875 0-1.25 0.42187-0.54687 0.40625-0.78125 1.1406-0.34375 1.125-0.34375 2.4688v6.5156zm16.164 0v-1.8281q-1.4531 2.1094-3.9375 2.1094-1.1094 0-2.0625-0.42187-0.95313-0.42188-1.4219-1.0625-0.45312-0.64063-0.64062-1.5625-0.14063-0.625-0.14063-1.9688v-7.7188h2.1094v6.9062q0 1.6562 0.14062 2.2344 0.1875 0.82813 0.82813 1.3125 0.65625 0.46875 1.6094 0.46875 0.9375 0 1.7656-0.48437 0.84375-0.5 1.1875-1.3281 0.34375-0.84375 0.34375-2.4375v-6.6719h2.1094v12.453zm13.316-4.5625 2.0781 0.26563q-0.34375 2.1562-1.75 3.375-1.3906 1.2031-3.4375 1.2031-2.5469 0-4.1094-1.6719-1.5469-1.6719-1.5469-4.7812 0-2.0156 0.67187-3.5312 0.67188-1.5156 2.0312-2.2656 1.3594-0.76562 2.9688-0.76562 2.0312 0 3.3125 1.0312 1.2969 1.0312 1.6562 2.9062l-2.0469 0.32812q-0.29688-1.2656-1.0469-1.8906-0.73437-0.64063-1.7969-0.64063-1.5938 0-2.5938 1.1562-0.98438 1.1406-0.98438 3.6094 0 2.5 0.95313 3.6406 0.96875 1.1406 2.5156 1.1406 1.2344 0 2.0625-0.76563 0.84375-0.76562 1.0625-2.3438zm8.4844 2.6719 0.3125 1.8594q-0.89063 0.20313-1.5938 0.20313-1.1562 0-1.7969-0.35938-0.625-0.375-0.89062-0.96875-0.25-0.59375-0.25-2.4844v-7.1719h-1.5469v-1.6406h1.5469v-3.0781l2.0938-1.2656v4.3438h2.125v1.6406h-2.125v7.2812q0 0.90625 0.10937 1.1719 0.125 0.25 0.375 0.40625 0.25 0.14062 0.71875 0.14062 0.34375 0 0.92188-0.0781z"/>
   <path d="m380.09 262.2v-13.359h1.7656v13.359zm4.6833 0v-9.6719h1.4688v1.375q1.0625-1.5938 3.0781-1.5938 0.875 0 1.6094 0.3125 0.73437 0.3125 1.0938 0.82813 0.375 0.5 0.51562 1.2031 0.0937 0.45313 0.0937 1.5938v5.9531h-1.6406v-5.8906q0-1-0.20313-1.4844-0.1875-0.5-0.67187-0.79688-0.48438-0.29687-1.1406-0.29687-1.0469 0-1.8125 0.67187-0.75 0.65625-0.75 2.5156v5.2812zm16.641 0v-1.2188q-0.90625 1.4375-2.7031 1.4375-1.1562 0-2.125-0.64063-0.96875-0.64062-1.5-1.7812-0.53125-1.1406-0.53125-2.625 0-1.4531 0.48438-2.625 0.48437-1.1875 1.4375-1.8125 0.96875-0.625 2.1719-0.625 0.875 0 1.5469 0.375 0.6875 0.35938 1.1094 0.95313v-4.7969h1.6406v13.359zm-5.1719-4.8281q0 1.8594 0.78125 2.7812 0.78125 0.92188 1.8438 0.92188 1.0781 0 1.8281-0.875 0.75-0.89063 0.75-2.6875 0-1.9844-0.76563-2.9062-0.76562-0.9375-1.8906-0.9375-1.0781 0-1.8125 0.89062-0.73438 0.89063-0.73438 2.8125zm15.907 1.7188 1.6875 0.20313q-0.40625 1.4844-1.4844 2.3125-1.0781 0.8125-2.7656 0.8125-2.125 0-3.375-1.2969-1.2344-1.3125-1.2344-3.6719 0-2.4531 1.25-3.7969 1.2656-1.3438 3.2656-1.3438 1.9375 0 3.1562 1.3281 1.2344 1.3125 1.2344 3.7031 0 0.15625 0 0.4375h-7.2188q0.0937 1.5938 0.90625 2.4531 0.8125 0.84375 2.0156 0.84375 0.90625 0 1.5469-0.46875 0.64062-0.48438 1.0156-1.5156zm-5.3906-2.6562h5.4062q-0.10938-1.2188-0.625-1.8281-0.78125-0.95313-2.0312-0.95313-1.125 0-1.9062 0.76563-0.76563 0.75-0.84375 2.0156zm8.0476 5.7656 3.5312-5.0312-3.2656-4.6406h2.0469l1.4844 2.2656q0.42187 0.64062 0.67187 1.0781 0.40625-0.59375 0.73438-1.0625l1.6406-2.2812h1.9531l-3.3438 4.5469 3.5938 5.125h-2.0156l-1.9844-3-0.51563-0.8125-2.5469 3.8125zm23.761-1.5781v1.5781h-8.8281q-0.0156-0.59375 0.1875-1.1406 0.34375-0.90625 1.0781-1.7812 0.75-0.875 2.1562-2.0156 2.1719-1.7812 2.9375-2.8281 0.76562-1.0469 0.76562-1.9688 0-0.98437-0.70312-1.6406-0.6875-0.67188-1.8125-0.67188-1.1875 0-1.9062 0.71875-0.70313 0.70313-0.70313 1.9531l-1.6875-0.17188q0.17188-1.8906 1.2969-2.875 1.1406-0.98437 3.0312-0.98437 1.9219 0 3.0469 1.0625t1.125 2.6406q0 0.79688-0.32812 1.5781-0.32813 0.78125-1.0938 1.6406-0.75 0.84375-2.5312 2.3438-1.4688 1.2344-1.8906 1.6875-0.42187 0.4375-0.6875 0.875z"/>
  </g>
  <g fill="#999" fill-rule="evenodd">
   <path d="m505.92 226.28c0-4.2095 3.4125-7.622 7.6221-7.622 2.0215 0 3.9601 0.80302 5.3896 2.2324 1.4294 1.4294 2.2324 3.3681 2.2324 5.3896 0 4.2096-3.4125 7.622-7.622 7.622-4.2096 0-7.6221-3.4125-7.6221-7.622z"/>
   <path d="m529.92 226.28c0-4.2095 3.4125-7.622 7.6221-7.622 2.0215 0 3.9601 0.80302 5.3896 2.2324 1.4294 1.4294 2.2324 3.3681 2.2324 5.3896 0 4.2096-3.4125 7.622-7.622 7.622-4.2096 0-7.6221-3.4125-7.6221-7.622z"/>
   <path d="m553.92 226.28c0-4.2095 3.4125-7.622 7.6221-7.622 2.0215 0 3.9601 0.80302 5.3896 2.2324 1.4294 1.4294 2.2324 3.3681 2.2324 5.3896 0 4.2096-3.4125 7.622-7.622 7.622-4.2096 0-7.6221-3.4125-7.6221-7.622z"/>
  </g>
  <path d="m614.12 181.35c0-10.831 8.7806-19.612 19.612-19.612h78.445c5.2014 0 10.19 2.0663 13.868 5.7442 3.6779 3.678 5.7442 8.6663 5.7442 13.868v89.847c0 10.831-8.7806 19.612-19.612 19.612h-78.445c-10.831 0-19.612-8.7806-19.612-19.612z" fill="#558b2f" fill-rule="evenodd"/>
  <g fill="#fff">
   <path d="m655.59 198.32v-17.188h11.594v2.0312h-9.3125v5.3281h8.0625v2.0156h-8.0625v7.8125zm14.285-14.75v-2.4375h2.1094v2.4375zm0 14.75v-12.453h2.1094v12.453zm5.2695 0v-17.188h2.1094v17.188zm13.91-4.0156 2.1719 0.28125q-0.51563 1.9062-1.9062 2.9688-1.3906 1.0469-3.5625 1.0469-2.7344 0-4.3438-1.6719-1.5938-1.6875-1.5938-4.7344 0-3.1406 1.6094-4.875 1.625-1.7344 4.2031-1.7344 2.5 0 4.0781 1.7031 1.5938 1.7031 1.5938 4.7812 0 0.1875-0.0156 0.5625h-9.2812q0.10937 2.0469 1.1562 3.1406 1.0469 1.0938 2.6094 1.0938 1.1562 0 1.9688-0.60937 0.82813-0.60938 1.3125-1.9531zm-6.9375-3.4062h6.9531q-0.14063-1.5625-0.79688-2.3594-1-1.2188-2.6094-1.2188-1.4531 0-2.4531 0.98437-0.98437 0.96875-1.0938 2.5938z"/>
   <path d="m642.69 221.8 2.1406-0.1875q0.15625 1.2812 0.70313 2.1094 0.5625 0.82813 1.7344 1.3438 1.1719 0.5 2.6406 0.5 1.2969 0 2.2969-0.375 1-0.39062 1.4844-1.0625 0.48437-0.6875 0.48437-1.4844 0-0.79688-0.46875-1.4062-0.46875-0.60938-1.5469-1.0156-0.6875-0.26562-3.0625-0.82812-2.3594-0.57813-3.3125-1.0781-1.2344-0.64062-1.8438-1.5938-0.59375-0.96875-0.59375-2.1406 0-1.3125 0.73437-2.4375 0.75-1.125 2.1562-1.7031 1.4219-0.59375 3.1562-0.59375 1.9062 0 3.3594 0.60938 1.4688 0.60937 2.25 1.8125 0.79687 1.1875 0.84375 2.7031l-2.1719 0.17188q-0.17187-1.6406-1.1875-2.4688-1.0156-0.82813-3-0.82813-2.0625 0-3.0156 0.76563-0.9375 0.75-0.9375 1.8125 0 0.92187 0.67187 1.5156 0.65625 0.60938 3.4219 1.2344 2.7812 0.625 3.8125 1.0938 1.5 0.6875 2.2031 1.75 0.71875 1.0625 0.71875 2.4375t-0.78125 2.5938q-0.78125 1.2031-2.25 1.8906-1.4688 0.67188-3.3125 0.67188-2.3281 0-3.9062-0.67188-1.5781-0.6875-2.4844-2.0469-0.89063-1.375-0.9375-3.0938zm21.117 3.625 0.3125 1.8594q-0.89063 0.20313-1.5938 0.20313-1.1562 0-1.7969-0.35938-0.625-0.375-0.89062-0.96875-0.25-0.59375-0.25-2.4844v-7.1719h-1.5469v-1.6406h1.5469v-3.0781l2.0938-1.2656v4.3438h2.125v1.6406h-2.125v7.2812q0 0.90625 0.10937 1.1719 0.125 0.25 0.375 0.40625 0.25 0.14062 0.71875 0.14062 0.34375 0 0.92188-0.0781zm2.043 1.8906v-12.453h1.8906v1.8906q0.73438-1.3281 1.3438-1.75 0.625-0.42187 1.3594-0.42187 1.0625 0 2.1719 0.6875l-0.73437 1.9531q-0.76563-0.45312-1.5469-0.45312-0.6875 0-1.25 0.42187-0.54687 0.40625-0.78125 1.1406-0.34375 1.125-0.34375 2.4688v6.5156zm16.164 0v-1.8281q-1.4531 2.1094-3.9375 2.1094-1.1094 0-2.0625-0.42187-0.95313-0.42188-1.4219-1.0625-0.45312-0.64063-0.64062-1.5625-0.14063-0.625-0.14063-1.9688v-7.7188h2.1094v6.9062q0 1.6562 0.14062 2.2344 0.1875 0.82813 0.82813 1.3125 0.65625 0.46875 1.6094 0.46875 0.9375 0 1.7656-0.48437 0.84375-0.5 1.1875-1.3281 0.34375-0.84375 0.34375-2.4375v-6.6719h2.1094v12.453zm13.316-4.5625 2.0781 0.26563q-0.34375 2.1562-1.75 3.375-1.3906 1.2031-3.4375 1.2031-2.5469 0-4.1094-1.6719-1.5469-1.6719-1.5469-4.7812 0-2.0156 0.67187-3.5312 0.67188-1.5156 2.0312-2.2656 1.3594-0.76562 2.9688-0.76562 2.0312 0 3.3125 1.0312 1.2969 1.0312 1.6562 2.9062l-2.0469 0.32812q-0.29688-1.2656-1.0469-1.8906-0.73437-0.64063-1.7969-0.64063-1.5938 0-2.5938 1.1562-0.98438 1.1406-0.98438 3.6094 0 2.5 0.95313 3.6406 0.96875 1.1406 2.5156 1.1406 1.2344 0 2.0625-0.76563 0.84375-0.76562 1.0625-2.3438zm8.4844 2.6719 0.3125 1.8594q-0.89063 0.20313-1.5938 0.20313-1.1562 0-1.7969-0.35938-0.625-0.375-0.89062-0.96875-0.25-0.59375-0.25-2.4844v-7.1719h-1.5469v-1.6406h1.5469v-3.0781l2.0938-1.2656v4.3438h2.125v1.6406h-2.125v7.2812q0 0.90625 0.10937 1.1719 0.125 0.25 0.375 0.40625 0.25 0.14062 0.71875 0.14062 0.34375 0 0.92188-0.0781z"/>
   <path d="m651.87 251.2v-13.359h1.7656v13.359zm4.6833 0v-9.6719h1.4688v1.375q1.0625-1.5938 3.0781-1.5938 0.875 0 1.6094 0.3125 0.73437 0.3125 1.0938 0.82813 0.375 0.5 0.51562 1.2031 0.0937 0.45313 0.0937 1.5938v5.9531h-1.6406v-5.8906q0-1-0.20313-1.4844-0.1875-0.5-0.67187-0.79688-0.48438-0.29687-1.1406-0.29687-1.0469 0-1.8125 0.67187-0.75 0.65625-0.75 2.5156v5.2812zm16.641 0v-1.2188q-0.90625 1.4375-2.7031 1.4375-1.1562 0-2.125-0.64063-0.96875-0.64062-1.5-1.7812-0.53125-1.1406-0.53125-2.625 0-1.4531 0.48438-2.625 0.48437-1.1875 1.4375-1.8125 0.96875-0.625 2.1719-0.625 0.875 0 1.5469 0.375 0.6875 0.35938 1.1094 0.95313v-4.7969h1.6406v13.359zm-5.1719-4.8281q0 1.8594 0.78125 2.7812 0.78125 0.92188 1.8438 0.92188 1.0781 0 1.8281-0.875 0.75-0.89063 0.75-2.6875 0-1.9844-0.76563-2.9062-0.76562-0.9375-1.8906-0.9375-1.0781 0-1.8125 0.89062-0.73438 0.89063-0.73438 2.8125zm15.907 1.7188 1.6875 0.20313q-0.40625 1.4844-1.4844 2.3125-1.0781 0.8125-2.7656 0.8125-2.125 0-3.375-1.2969-1.2344-1.3125-1.2344-3.6719 0-2.4531 1.25-3.7969 1.2656-1.3438 3.2656-1.3438 1.9375 0 3.1562 1.3281 1.2344 1.3125 1.2344 3.7031 0 0.15625 0 0.4375h-7.2188q0.0937 1.5938 0.90625 2.4531 0.8125 0.84375 2.0156 0.84375 0.90625 0 1.5469-0.46875 0.64062-0.48438 1.0156-1.5156zm-5.3906-2.6562h5.4062q-0.10938-1.2188-0.625-1.8281-0.78125-0.95313-2.0312-0.95313-1.125 0-1.9062 0.76563-0.76563 0.75-0.84375 2.0156zm8.0476 5.7656 3.5312-5.0312-3.2656-4.6406h2.0469l1.4844 2.2656q0.42187 0.64062 0.67187 1.0781 0.40625-0.59375 0.73438-1.0625l1.6406-2.2812h1.9531l-3.3438 4.5469 3.5938 5.125h-2.0156l-1.9844-3-0.51563-0.8125-2.5469 3.8125z"/>
   <path d="m634.47 273.2v-13.359h1.8125l7.0156 10.484v-10.484h1.6875v13.359h-1.8125l-7.0156-10.5v10.5zm13.582 0v-13.359h9.0156v1.5781h-7.25v4.1406h6.2656v1.5781h-6.2656v6.0625zm11.599 0v-13.359h1.7656v13.359zm4.8083 0v-13.359h1.7812v11.781h6.5625v1.5781zm10.485 0v-13.359h9.6562v1.5781h-7.875v4.0938h7.375v1.5625h-7.375v4.5469h8.1875v1.5781zm16.752-4.0156v-1.6406h5.0312v1.6406zm20.193 2.4375v1.5781h-8.8281q-0.0156-0.59375 0.1875-1.1406 0.34375-0.90625 1.0781-1.7812 0.75-0.875 2.1562-2.0156 2.1719-1.7812 2.9375-2.8281 0.76563-1.0469 0.76563-1.9688 0-0.98437-0.70313-1.6406-0.6875-0.67188-1.8125-0.67188-1.1875 0-1.9062 0.71875-0.70312 0.70313-0.70312 1.9531l-1.6875-0.17188q0.17187-1.8906 1.2969-2.875 1.1406-0.98437 3.0312-0.98437 1.9219 0 3.0469 1.0625t1.125 2.6406q0 0.79688-0.32813 1.5781-0.32812 0.78125-1.0938 1.6406-0.75 0.84375-2.5312 2.3438-1.4688 1.2344-1.8906 1.6875-0.42188 0.4375-0.6875 0.875z"/>
  </g>
  <path d="m742.12 181.35c0-10.831 8.7806-19.612 19.612-19.612h78.445c5.2014 0 10.19 2.0663 13.868 5.7442 3.6779 3.678 5.7442 8.6663 5.7442 13.868v89.847c0 10.831-8.7806 19.612-19.612 19.612h-78.445c-10.831 0-19.612-8.7806-19.612-19.612z" fill="#558b2f" fill-rule="evenodd"/>
  <g fill="#fff">
   <path d="m783.59 198.32v-17.188h11.594v2.0312h-9.3125v5.3281h8.0625v2.0156h-8.0625v7.8125zm14.285-14.75v-2.4375h2.1094v2.4375zm0 14.75v-12.453h2.1094v12.453zm5.2695 0v-17.188h2.1094v17.188zm13.91-4.0156 2.1719 0.28125q-0.51563 1.9062-1.9062 2.9688-1.3906 1.0469-3.5625 1.0469-2.7344 0-4.3438-1.6719-1.5938-1.6875-1.5938-4.7344 0-3.1406 1.6094-4.875 1.625-1.7344 4.2031-1.7344 2.5 0 4.0781 1.7031 1.5938 1.7031 1.5938 4.7812 0 0.1875-0.0156 0.5625h-9.2812q0.10937 2.0469 1.1562 3.1406 1.0469 1.0938 2.6094 1.0938 1.1562 0 1.9688-0.60937 0.82813-0.60938 1.3125-1.9531zm-6.9375-3.4062h6.9531q-0.14063-1.5625-0.79688-2.3594-1-1.2188-2.6094-1.2188-1.4531 0-2.4531 0.98437-0.98437 0.96875-1.0938 2.5938z"/>
   <path d="m770.69 221.8 2.1406-0.1875q0.15625 1.2812 0.70313 2.1094 0.5625 0.82813 1.7344 1.3438 1.1719 0.5 2.6406 0.5 1.2969 0 2.2969-0.375 1-0.39062 1.4844-1.0625 0.48437-0.6875 0.48437-1.4844 0-0.79688-0.46875-1.4062-0.46875-0.60938-1.5469-1.0156-0.6875-0.26562-3.0625-0.82812-2.3594-0.57813-3.3125-1.0781-1.2344-0.64062-1.8438-1.5938-0.59375-0.96875-0.59375-2.1406 0-1.3125 0.73437-2.4375 0.75-1.125 2.1562-1.7031 1.4219-0.59375 3.1562-0.59375 1.9062 0 3.3594 0.60938 1.4688 0.60937 2.25 1.8125 0.79687 1.1875 0.84375 2.7031l-2.1719 0.17188q-0.17187-1.6406-1.1875-2.4688-1.0156-0.82813-3-0.82813-2.0625 0-3.0156 0.76563-0.9375 0.75-0.9375 1.8125 0 0.92187 0.67187 1.5156 0.65625 0.60938 3.4219 1.2344 2.7812 0.625 3.8125 1.0938 1.5 0.6875 2.2031 1.75 0.71875 1.0625 0.71875 2.4375t-0.78125 2.5938q-0.78125 1.2031-2.25 1.8906-1.4688 0.67188-3.3125 0.67188-2.3281 0-3.9062-0.67188-1.5781-0.6875-2.4844-2.0469-0.89063-1.375-0.9375-3.0938zm21.117 3.625 0.3125 1.8594q-0.89063 0.20313-1.5938 0.20313-1.1562 0-1.7969-0.35938-0.625-0.375-0.89062-0.96875-0.25-0.59375-0.25-2.4844v-7.1719h-1.5469v-1.6406h1.5469v-3.0781l2.0938-1.2656v4.3438h2.125v1.6406h-2.125v7.2812q0 0.90625 0.10937 1.1719 0.125 0.25 0.375 0.40625 0.25 0.14062 0.71875 0.14062 0.34375 0 0.92188-0.0781zm2.043 1.8906v-12.453h1.8906v1.8906q0.73438-1.3281 1.3438-1.75 0.625-0.42187 1.3594-0.42187 1.0625 0 2.1719 0.6875l-0.73437 1.9531q-0.76563-0.45312-1.5469-0.45312-0.6875 0-1.25 0.42187-0.54687 0.40625-0.78125 1.1406-0.34375 1.125-0.34375 2.4688v6.5156zm16.164 0v-1.8281q-1.4531 2.1094-3.9375 2.1094-1.1094 0-2.0625-0.42187-0.95313-0.42188-1.4219-1.0625-0.45312-0.64063-0.64062-1.5625-0.14063-0.625-0.14063-1.9688v-7.7188h2.1094v6.9062q0 1.6562 0.14062 2.2344 0.1875 0.82813 0.82813 1.3125 0.65625 0.46875 1.6094 0.46875 0.9375 0 1.7656-0.48437 0.84375-0.5 1.1875-1.3281 0.34375-0.84375 0.34375-2.4375v-6.6719h2.1094v12.453zm13.316-4.5625 2.0781 0.26563q-0.34375 2.1562-1.75 3.375-1.3906 1.2031-3.4375 1.2031-2.5469 0-4.1094-1.6719-1.5469-1.6719-1.5469-4.7812 0-2.0156 0.67187-3.5312 0.67188-1.5156 2.0312-2.2656 1.3594-0.76562 2.9688-0.76562 2.0312 0 3.3125 1.0312 1.2969 1.0312 1.6562 2.9062l-2.0469 0.32812q-0.29688-1.2656-1.0469-1.8906-0.73437-0.64063-1.7969-0.64063-1.5938 0-2.5938 1.1562-0.98438 1.1406-0.98438 3.6094 0 2.5 0.95313 3.6406 0.96875 1.1406 2.5156 1.1406 1.2344 0 2.0625-0.76563 0.84375-0.76562 1.0625-2.3438zm8.4844 2.6719 0.3125 1.8594q-0.89063 0.20313-1.5938 0.20313-1.1562 0-1.7969-0.35938-0.625-0.375-0.89062-0.96875-0.25-0.59375-0.25-2.4844v-7.1719h-1.5469v-1.6406h1.5469v-3.0781l2.0938-1.2656v4.3438h2.125v1.6406h-2.125v7.2812q0 0.90625 0.10937 1.1719 0.125 0.25 0.375 0.40625 0.25 0.14062 0.71875 0.14062 0.34375 0 0.92188-0.0781z"/>
   <path d="m779.87 251.2v-13.359h1.7656v13.359zm4.6833 0v-9.6719h1.4688v1.375q1.0625-1.5938 3.0781-1.5938 0.875 0 1.6094 0.3125 0.73437 0.3125 1.0938 0.82813 0.375 0.5 0.51562 1.2031 0.0937 0.45313 0.0937 1.5938v5.9531h-1.6406v-5.8906q0-1-0.20313-1.4844-0.1875-0.5-0.67187-0.79688-0.48438-0.29687-1.1406-0.29687-1.0469 0-1.8125 0.67187-0.75 0.65625-0.75 2.5156v5.2812zm16.641 0v-1.2188q-0.90625 1.4375-2.7031 1.4375-1.1562 0-2.125-0.64063-0.96875-0.64062-1.5-1.7812-0.53125-1.1406-0.53125-2.625 0-1.4531 0.48438-2.625 0.48437-1.1875 1.4375-1.8125 0.96875-0.625 2.1719-0.625 0.875 0 1.5469 0.375 0.6875 0.35938 1.1094 0.95313v-4.7969h1.6406v13.359zm-5.1719-4.8281q0 1.8594 0.78125 2.7812 0.78125 0.92188 1.8438 0.92188 1.0781 0 1.8281-0.875 0.75-0.89063 0.75-2.6875 0-1.9844-0.76563-2.9062-0.76562-0.9375-1.8906-0.9375-1.0781 0-1.8125 0.89062-0.73438 0.89063-0.73438 2.8125zm15.907 1.7188 1.6875 0.20313q-0.40625 1.4844-1.4844 2.3125-1.0781 0.8125-2.7656 0.8125-2.125 0-3.375-1.2969-1.2344-1.3125-1.2344-3.6719 0-2.4531 1.25-3.7969 1.2656-1.3438 3.2656-1.3438 1.9375 0 3.1562 1.3281 1.2344 1.3125 1.2344 3.7031 0 0.15625 0 0.4375h-7.2188q0.0937 1.5938 0.90625 2.4531 0.8125 0.84375 2.0156 0.84375 0.90625 0 1.5469-0.46875 0.64062-0.48438 1.0156-1.5156zm-5.3906-2.6562h5.4062q-0.10938-1.2188-0.625-1.8281-0.78125-0.95313-2.0312-0.95313-1.125 0-1.9062 0.76563-0.76563 0.75-0.84375 2.0156zm8.0476 5.7656 3.5312-5.0312-3.2656-4.6406h2.0469l1.4844 2.2656q0.42187 0.64062 0.67187 1.0781 0.40625-0.59375 0.73438-1.0625l1.6406-2.2812h1.9531l-3.3438 4.5469 3.5938 5.125h-2.0156l-1.9844-3-0.51563-0.8125-2.5469 3.8125z"/>
   <path d="m762.47 273.2v-13.359h1.8125l7.0156 10.484v-10.484h1.6875v13.359h-1.8125l-7.0156-10.5v10.5zm13.582 0v-13.359h9.0156v1.5781h-7.25v4.1406h6.2656v1.5781h-6.2656v6.0625zm11.599 0v-13.359h1.7656v13.359zm4.8083 0v-13.359h1.7812v11.781h6.5625v1.5781zm10.485 0v-13.359h9.6562v1.5781h-7.875v4.0938h7.375v1.5625h-7.375v4.5469h8.1875v1.5781zm16.752-4.0156v-1.6406h5.0312v1.6406zm17.755 4.0156h-1.6406v-10.453q-0.59375 0.5625-1.5625 1.1406-0.95313 0.5625-1.7188 0.84375v-1.5938q1.375-0.64063 2.4062-1.5625 1.0312-0.92188 1.4531-1.7812h1.0625z"/>
  </g>
  <g transform="translate(3.7722)">
   <path d="m315.15 318.68c0-3.0674 2.4866-5.5539 5.5539-5.5539h22.215c1.473 0 2.8856 0.58514 3.9272 1.6267 1.0416 1.0416 1.6267 2.4542 1.6267 3.9272v25.428c0 3.0674-2.4866 5.5539-5.5539 5.5539h-22.215c-3.0674 0-5.5539-2.4866-5.5539-5.5539z" fill="#fff" fill-rule="evenodd"/>
   <path d="m366.54 330.51h-7.5938v-1.4531h7.5938zm0 3.7812h-7.5938v-1.4531h7.5938zm9.2951 3.6406h-1.75v-13.266h1.75zm4.5271-9.8594 0.0469 1.2344q1.125-1.4062 2.9531-1.4062 3.125 0 3.1562 3.5156v6.5156h-1.6875v-6.5156q-0.0156-1.0781-0.5-1.5781-0.46875-0.51563-1.4844-0.51563-0.8125 0-1.4375 0.4375-0.60938 0.4375-0.96875 1.1562v7.0156h-1.6719v-9.8594zm19.397 8.8906q-0.98437 1.1562-2.8906 1.1562-1.5781 0-2.4062-0.92188-0.8125-0.92187-0.82813-2.7031v-6.4219h1.6875v6.375q0 2.2344 1.8281 2.2344 1.9219 0 2.5625-1.4375v-7.1719h1.6875v9.8594h-1.6094zm9.9409-1.6406q0-0.6875-0.51563-1.0625-0.51562-0.375-1.7969-0.64062-1.2812-0.28125-2.0312-0.65625-0.75-0.39063-1.1094-0.92188-0.35937-0.53125-0.35937-1.2656 0-1.2031 1.0156-2.0312 1.0312-0.84375 2.625-0.84375 1.6719 0 2.7188 0.85937 1.0469 0.85938 1.0469 2.2188h-1.6875q0-0.70312-0.59375-1.2031t-1.4844-0.5q-0.92187 0-1.4375 0.40625-0.51562 0.39062-0.51562 1.0469 0 0.60938 0.48437 0.92188 0.48438 0.3125 1.7344 0.59375 1.2656 0.28125 2.0469 0.67187 0.78125 0.39063 1.1562 0.9375 0.39063 0.54688 0.39063 1.3438 0 1.3281-1.0625 2.125-1.0469 0.79688-2.7344 0.79688-1.1875 0-2.1094-0.42188-0.90625-0.42187-1.4219-1.1719-0.51562-0.75-0.51562-1.625h1.6875q0.0469 0.84375 0.67187 1.3438 0.64063 0.5 1.6875 0.5 0.95313 0 1.5312-0.39063 0.57813-0.39062 0.57813-1.0312zm7.9634 2.7969q-2 0-3.2656-1.3125-1.25-1.3281-1.25-3.5312v-0.3125q0-1.4688 0.5625-2.6094 0.5625-1.1562 1.5625-1.7969 1.0156-0.65625 2.1875-0.65625 1.9219 0 2.9844 1.2656 1.0625 1.2656 1.0625 3.625v0.6875h-6.6719q0.0312 1.4688 0.84375 2.375 0.82813 0.89063 2.0781 0.89063 0.89062 0 1.5156-0.35938 0.625-0.375 1.0781-0.96875l1.0312 0.79688q-1.2344 1.9062-3.7188 1.9062zm-0.20313-8.8438q-1.0156 0-1.7188 0.75-0.6875 0.73437-0.84375 2.0781h4.9375v-0.125q-0.0781-1.2812-0.70312-1.9844-0.60938-0.71875-1.6719-0.71875z" fill="#000"/>
   <path d="m507.15 318.68c0-3.0674 2.4866-5.5539 5.5539-5.5539h22.215c1.473 0 2.8856 0.58514 3.9272 1.6267 1.0416 1.0416 1.6267 2.4542 1.6267 3.9272v25.428c0 3.0674-2.4866 5.5539-5.5539 5.5539h-22.215c-3.0673 0-5.5539-2.4866-5.5539-5.5539z" fill="#558b2f" fill-rule="evenodd"/>
   <path d="m557.27 330.88h-7.5938v-1.4531h7.5938zm0 3.7812h-7.5938v-1.4531h7.5938zm14.733 0.17188h-5.5469l-1.25 3.4688h-1.8125l5.0625-13.266h1.5312l5.0781 13.266h-1.7969zm-5.0312-1.4375h4.5156l-2.2656-6.2031zm12.418 2.625 2.4375-7.5781h1.7188l-3.5312 9.8594h-1.2812l-3.5781-9.8594h1.7188zm11.728 2.2812q-0.14062-0.29688-0.23437-1.0312-1.1719 1.2188-2.8125 1.2188-1.4531 0-2.3906-0.82813-0.92187-0.82812-0.92187-2.0938 0-1.5312 1.1562-2.375 1.1719-0.85937 3.2969-0.85937h1.6406v-0.78125q0-0.89063-0.53125-1.4062-0.51563-0.53125-1.5469-0.53125-0.90625 0-1.5156 0.46875-0.60938 0.45312-0.60938 1.0938h-1.7031q0-0.73438 0.51562-1.4219 0.53125-0.6875 1.4219-1.0781 0.90625-0.40625 1.9844-0.40625 1.7031 0 2.6719 0.85937 0.96875 0.84375 1 2.3281v4.5312q0 1.3594 0.34375 2.1719v0.14063zm-2.7969-1.2812q0.79687 0 1.5-0.40625 0.71875-0.42188 1.0312-1.0781v-2.0156h-1.3125q-3.1094 0-3.1094 1.8125 0 0.79687 0.53125 1.25 0.53125 0.4375 1.3594 0.4375zm8.6949 1.2812h-1.6875v-9.8594h1.6875zm-1.8281-12.469q0-0.40625 0.25-0.6875 0.25-0.29688 0.73437-0.29688 0.5 0 0.75 0.29688 0.26563 0.28125 0.26563 0.6875t-0.26563 0.6875q-0.25 0.26562-0.75 0.26562-0.48437 0-0.73437-0.26562-0.25-0.28125-0.25-0.6875zm6.3555 12.469h-1.6875v-14h1.6875zm8.7774 0q-0.14062-0.29688-0.23437-1.0312-1.1719 1.2188-2.8125 1.2188-1.4531 0-2.3906-0.82813-0.92187-0.82812-0.92187-2.0938 0-1.5312 1.1562-2.375 1.1719-0.85937 3.2969-0.85937h1.6406v-0.78125q0-0.89063-0.53125-1.4062-0.51563-0.53125-1.5469-0.53125-0.90625 0-1.5156 0.46875-0.60938 0.45312-0.60938 1.0938h-1.7031q0-0.73438 0.51562-1.4219 0.53125-0.6875 1.4219-1.0781 0.90625-0.40625 1.9844-0.40625 1.7031 0 2.6719 0.85937 0.96875 0.84375 1 2.3281v4.5312q0 1.3594 0.34375 2.1719v0.14063zm-2.7969-1.2812q0.79687 0 1.5-0.40625 0.71875-0.42188 1.0312-1.0781v-2.0156h-1.3125q-3.1094 0-3.1094 1.8125 0 0.79687 0.53125 1.25 0.53125 0.4375 1.3594 0.4375zm15.211-3.5312q0 2.25-1.0469 3.625-1.0312 1.375-2.7812 1.375-1.875 0-2.8906-1.3281l-0.0781 1.1406h-1.5469v-14h1.6719v5.2344q1.0312-1.2656 2.8125-1.2656 1.7969 0 2.8281 1.3594 1.0312 1.3438 1.0312 3.7031zm-1.6875-0.20313q0-1.7188-0.67188-2.6562-0.65625-0.9375-1.9062-0.9375-1.6719 0-2.4062 1.5469v4.2656q0.78125 1.5469 2.4219 1.5469 1.2188 0 1.8906-0.9375 0.67188-0.9375 0.67188-2.8281zm5.6387 5.0156h-1.6875v-14h1.6875zm6.7774 0.1875q-2 0-3.2656-1.3125-1.25-1.3281-1.25-3.5312v-0.3125q0-1.4688 0.5625-2.6094 0.5625-1.1562 1.5625-1.7969 1.0156-0.65625 2.1875-0.65625 1.9219 0 2.9844 1.2656 1.0625 1.2656 1.0625 3.625v0.6875h-6.6719q0.0312 1.4688 0.84375 2.375 0.82813 0.89063 2.0781 0.89063 0.89062 0 1.5156-0.35938 0.625-0.375 1.0781-0.96875l1.0312 0.79688q-1.2344 1.9062-3.7188 1.9062zm-0.20313-8.8438q-1.0156 0-1.7188 0.75-0.6875 0.73437-0.84375 2.0781h4.9375v-0.125q-0.0781-1.2812-0.70312-1.9844-0.60938-0.71875-1.6719-0.71875z" fill="#000"/>
  </g>
 </g>
</svg>
