<?xml version="1.0" encoding="UTF-8"?>
<svg width="365.9" height="457.28" fill="none" stroke-linecap="square" stroke-miterlimit="10" version="1.1" viewBox="0 0 365.9 457.28" xmlns="http://www.w3.org/2000/svg">
 <defs>
  <clipPath id="clipPath65">
   <path d="m0 0h960v540h-960z"/>
  </clipPath>
  <clipPath id="clipPath66">
   <path d="m0 0h960v540h-960z"/>
  </clipPath>
  <clipPath id="clipPath67">
   <path d="m0 0h960v540h-960z"/>
  </clipPath>
  <clipPath id="clipPath68">
   <path d="m0 0h960v540h-960z"/>
  </clipPath>
  <clipPath id="clipPath69">
   <path d="m0 0h960v540h-960z"/>
  </clipPath>
  <clipPath id="clipPath70">
   <path d="m0 0h960v540h-960z"/>
  </clipPath>
  <clipPath id="clipPath71">
   <path d="m0 0h960v540h-960z"/>
  </clipPath>
  <clipPath id="clipPath72">
   <path d="m0 0h960v540h-960z"/>
  </clipPath>
  <clipPath id="clipPath73">
   <path d="m0 0h960v540h-960z"/>
  </clipPath>
  <clipPath id="clipPath74">
   <path d="m0 0h960v540h-960z"/>
  </clipPath>
  <clipPath id="clipPath75">
   <path d="m0 0h960v540h-960z"/>
  </clipPath>
  <clipPath id="clipPath76">
   <path d="m0 0h960v540h-960z"/>
  </clipPath>
  <clipPath id="clipPath77">
   <path d="m0 0h960v540h-960z"/>
  </clipPath>
  <clipPath id="clipPath78">
   <path d="m0 0h960v540h-960z"/>
  </clipPath>
  <clipPath id="clipPath79">
   <path d="m0 0h960v540h-960z"/>
  </clipPath>
  <clipPath id="clipPath80">
   <path d="m0 0h960v540h-960z"/>
  </clipPath>
  <clipPath id="clipPath81">
   <path d="m0 0h960v540h-960z"/>
  </clipPath>
  <clipPath id="clipPath82">
   <path d="m0 0h960v540h-960z"/>
  </clipPath>
  <clipPath id="clipPath83">
   <path d="m0 0h960v540h-960z"/>
  </clipPath>
  <clipPath id="clipPath84">
   <path d="m0 0h960v540h-960z"/>
  </clipPath>
  <clipPath id="clipPath85">
   <path d="m0 0h960v540h-960z"/>
  </clipPath>
  <clipPath id="clipPath86">
   <path d="m0 0h960v540h-960z"/>
  </clipPath>
  <clipPath id="clipPath87">
   <path d="m0 0h960v540h-960z"/>
  </clipPath>
  <clipPath id="clipPath88">
   <path d="m0 0h960v540h-960z"/>
  </clipPath>
  <clipPath id="clipPath89">
   <path d="m0 0h960v540h-960z"/>
  </clipPath>
  <clipPath id="clipPath90">
   <path d="m0 0h960v540h-960z"/>
  </clipPath>
  <clipPath id="clipPath91">
   <path d="m0 0h960v540h-960z"/>
  </clipPath>
  <clipPath id="clipPath92">
   <path d="m0 0h960v540h-960z"/>
  </clipPath>
  <clipPath id="clipPath93">
   <path d="m0 0h960v540h-960z"/>
  </clipPath>
  <clipPath id="clipPath94">
   <path d="m0 0h960v540h-960z"/>
  </clipPath>
  <clipPath id="clipPath95">
   <path d="m0 0h960v540h-960z"/>
  </clipPath>
  <clipPath id="clipPath96">
   <path d="m0 0h960v540h-960z"/>
  </clipPath>
  <clipPath id="clipPath97">
   <path d="m0 0h960v540h-960z"/>
  </clipPath>
  <clipPath id="clipPath98">
   <path d="m0 0h960v540h-960z"/>
  </clipPath>
  <clipPath id="clipPath99">
   <path d="m0 0h960v540h-960z"/>
  </clipPath>
  <clipPath id="clipPath100">
   <path d="m0 0h960v540h-960z"/>
  </clipPath>
  <clipPath id="clipPath101">
   <path d="m0 0h960v540h-960z"/>
  </clipPath>
  <clipPath id="clipPath102">
   <path d="m0 0h960v540h-960z"/>
  </clipPath>
  <clipPath id="clipPath103">
   <path d="m0 0h960v540h-960z"/>
  </clipPath>
  <clipPath id="clipPath104">
   <path d="m0 0h960v540h-960z"/>
  </clipPath>
  <clipPath id="clipPath105">
   <path d="m0 0h960v540h-960z"/>
  </clipPath>
  <clipPath id="clipPath106">
   <path d="m0 0h960v540h-960z"/>
  </clipPath>
  <clipPath id="clipPath107">
   <path d="m0 0h960v540h-960z"/>
  </clipPath>
  <clipPath id="clipPath108">
   <path d="m0 0h960v540h-960z"/>
  </clipPath>
  <clipPath id="clipPath109">
   <path d="m0 0h960v540h-960z"/>
  </clipPath>
  <clipPath id="clipPath110">
   <path d="m0 0h960v540h-960z"/>
  </clipPath>
  <clipPath id="clipPath111">
   <path d="m0 0h960v540h-960z"/>
  </clipPath>
  <clipPath id="clipPath112">
   <path d="m0 0h960v540h-960z"/>
  </clipPath>
  <clipPath id="clipPath113">
   <path d="m0 0h960v540h-960z"/>
  </clipPath>
  <clipPath id="clipPath114">
   <path d="m0 0h960v540h-960z"/>
  </clipPath>
  <clipPath id="clipPath115">
   <path d="m0 0h960v540h-960z"/>
  </clipPath>
  <clipPath id="clipPath116">
   <path d="m0 0h960v540h-960z"/>
  </clipPath>
  <clipPath id="clipPath117">
   <path d="m0 0h960v540h-960z"/>
  </clipPath>
  <clipPath id="clipPath118">
   <path d="m0 0h960v540h-960z"/>
  </clipPath>
  <clipPath id="clipPath119">
   <path d="m0 0h960v540h-960z"/>
  </clipPath>
  <clipPath id="clipPath120">
   <path d="m0 0h960v540h-960z"/>
  </clipPath>
  <clipPath id="clipPath121">
   <path d="m0 0h960v540h-960z"/>
  </clipPath>
  <clipPath id="clipPath122">
   <path d="m0 0h960v540h-960z"/>
  </clipPath>
  <clipPath id="clipPath123">
   <path d="m0 0h960v540h-960z"/>
  </clipPath>
  <clipPath id="clipPath124">
   <path d="m0 0h960v540h-960z"/>
  </clipPath>
  <clipPath id="clipPath125">
   <path d="m0 0h960v540h-960z"/>
  </clipPath>
  <clipPath id="clipPath126">
   <path d="m0 0h960v540h-960z"/>
  </clipPath>
 </defs>
 <g fill-rule="evenodd">
  <path transform="translate(-209.37 -16.98)" d="m210.87 349.45c0-13.62 11.042-24.662 24.662-24.662h313.57c6.5408 0 12.814 2.5983 17.439 7.2233s7.2233 10.898 7.2233 17.439v98.645c0 13.62-11.042 24.662-24.662 24.662h-313.57c-13.62 0-24.662-11.042-24.662-24.662z" clip-path="url(#clipPath126)" fill="#9dc6f4"/>
  <path transform="translate(-209.37 -16.98)" d="m210.87 349.45c0-13.62 11.042-24.662 24.662-24.662h313.57c6.5408 0 12.814 2.5983 17.439 7.2233s7.2233 10.898 7.2233 17.439v98.645c0 13.62-11.042 24.662-24.662 24.662h-313.57c-13.62 0-24.662-11.042-24.662-24.662z" clip-path="url(#clipPath125)" stroke="#004065" stroke-linecap="butt" stroke-linejoin="round" stroke-width="3"/>
  <path transform="translate(-209.37 -16.98)" d="m213.41 182h355.72v116.69h-355.72z" clip-path="url(#clipPath124)" fill="#cfd8dc"/>
  <path transform="translate(-209.37 -16.98)" d="m213.41 182h355.72v116.69h-355.72z" clip-path="url(#clipPath123)" stroke="#004065" stroke-linecap="butt" stroke-linejoin="round"/>
  <path transform="translate(-209.37 -16.98)" d="m228.89 205.09c0-9.8746 8.005-17.88 17.88-17.88h78.477c4.742 0 9.2897 1.8837 12.643 5.2368 3.3531 3.3531 5.2368 7.9008 5.2368 12.643v71.516c0 9.8746-8.005 17.88-17.88 17.88h-78.477c-9.8746 0-17.88-8.005-17.88-17.88z" clip-path="url(#clipPath122)" fill="#fff"/>
 </g>
 <g fill="#000">
  <path transform="translate(-209.37 -16.98)" d="m268.64 212.69v-17.188h11.594v2.0312h-9.3125v5.3281h8.0625v2.0156h-8.0625v7.8125zm14.285-14.75v-2.4375h2.1094v2.4375zm0 14.75v-12.453h2.1094v12.453zm5.2695 0v-17.188h2.1094v17.188zm13.91-4.0156 2.1719 0.28125q-0.51563 1.9062-1.9062 2.9688-1.3906 1.0469-3.5625 1.0469-2.7344 0-4.3438-1.6719-1.5938-1.6875-1.5938-4.7344 0-3.1406 1.6094-4.875 1.625-1.7344 4.2031-1.7344 2.5 0 4.0781 1.7031 1.5938 1.7031 1.5938 4.7812 0 0.1875-0.0156 0.5625h-9.2812q0.10937 2.0469 1.1562 3.1406 1.0469 1.0938 2.6094 1.0938 1.1562 0 1.9688-0.60937 0.82813-0.60938 1.3125-1.9531zm-6.9375-3.4062h6.9531q-0.14063-1.5625-0.79688-2.3594-1-1.2188-2.6094-1.2188-1.4531 0-2.4531 0.98437-0.98437 0.96875-1.0938 2.5938z" clip-path="url(#clipPath121)"/>
  <path transform="translate(-209.37 -16.98)" d="m255.74 235.97 2.1406-0.1875q0.15625 1.2812 0.70312 2.1094 0.5625 0.82813 1.7344 1.3438 1.1719 0.5 2.6406 0.5 1.2969 0 2.2969-0.375 1-0.39062 1.4844-1.0625 0.48438-0.6875 0.48438-1.4844 0-0.79688-0.46875-1.4062-0.46875-0.60938-1.5469-1.0156-0.6875-0.26562-3.0625-0.82812-2.3594-0.57813-3.3125-1.0781-1.2344-0.64062-1.8438-1.5938-0.59375-0.96875-0.59375-2.1406 0-1.3125 0.73438-2.4375 0.75-1.125 2.1562-1.7031 1.4219-0.59375 3.1562-0.59375 1.9062 0 3.3594 0.60938 1.4688 0.60937 2.25 1.8125 0.79688 1.1875 0.84375 2.7031l-2.1719 0.17188q-0.17188-1.6406-1.1875-2.4688-1.0156-0.82813-3-0.82813-2.0625 0-3.0156 0.76563-0.9375 0.75-0.9375 1.8125 0 0.92187 0.67188 1.5156 0.65625 0.60938 3.4219 1.2344 2.7812 0.625 3.8125 1.0938 1.5 0.6875 2.2031 1.75 0.71875 1.0625 0.71875 2.4375t-0.78125 2.5938q-0.78125 1.2031-2.25 1.8906-1.4688 0.67188-3.3125 0.67188-2.3281 0-3.9062-0.67188-1.5781-0.6875-2.4844-2.0469-0.89062-1.375-0.9375-3.0938zm21.117 3.625 0.3125 1.8594q-0.89063 0.20313-1.5938 0.20313-1.1562 0-1.7969-0.35938-0.625-0.375-0.89062-0.96875-0.25-0.59375-0.25-2.4844v-7.1719h-1.5469v-1.6406h1.5469v-3.0781l2.0938-1.2656v4.3438h2.125v1.6406h-2.125v7.2812q0 0.90625 0.10937 1.1719 0.125 0.25 0.375 0.40625 0.25 0.14062 0.71875 0.14062 0.34375 0 0.92188-0.0781zm2.043 1.8906v-12.453h1.8906v1.8906q0.73438-1.3281 1.3438-1.75 0.625-0.42187 1.3594-0.42187 1.0625 0 2.1719 0.6875l-0.73437 1.9531q-0.76563-0.45312-1.5469-0.45312-0.6875 0-1.25 0.42187-0.54687 0.40625-0.78125 1.1406-0.34375 1.125-0.34375 2.4688v6.5156zm16.164 0v-1.8281q-1.4531 2.1094-3.9375 2.1094-1.1094 0-2.0625-0.42187-0.95313-0.42188-1.4219-1.0625-0.45312-0.64063-0.64062-1.5625-0.14063-0.625-0.14063-1.9688v-7.7188h2.1094v6.9062q0 1.6562 0.14062 2.2344 0.1875 0.82813 0.82813 1.3125 0.65625 0.46875 1.6094 0.46875 0.9375 0 1.7656-0.48437 0.84375-0.5 1.1875-1.3281 0.34375-0.84375 0.34375-2.4375v-6.6719h2.1094v12.453zm13.316-4.5625 2.0781 0.26563q-0.34375 2.1562-1.75 3.375-1.3906 1.2031-3.4375 1.2031-2.5469 0-4.1094-1.6719-1.5469-1.6719-1.5469-4.7812 0-2.0156 0.67187-3.5312 0.67188-1.5156 2.0312-2.2656 1.3594-0.76562 2.9688-0.76562 2.0312 0 3.3125 1.0312 1.2969 1.0312 1.6562 2.9062l-2.0469 0.32812q-0.29688-1.2656-1.0469-1.8906-0.73437-0.64063-1.7969-0.64063-1.5938 0-2.5938 1.1562-0.98438 1.1406-0.98438 3.6094 0 2.5 0.95313 3.6406 0.96875 1.1406 2.5156 1.1406 1.2344 0 2.0625-0.76563 0.84375-0.76562 1.0625-2.3438zm8.4844 2.6719 0.3125 1.8594q-0.89063 0.20313-1.5938 0.20313-1.1562 0-1.7969-0.35938-0.625-0.375-0.89062-0.96875-0.25-0.59375-0.25-2.4844v-7.1719h-1.5469v-1.6406h1.5469v-3.0781l2.0938-1.2656v4.3438h2.125v1.6406h-2.125v7.2812q0 0.90625 0.10937 1.1719 0.125 0.25 0.375 0.40625 0.25 0.14062 0.71875 0.14062 0.34375 0 0.92188-0.0781z" clip-path="url(#clipPath120)"/>
  <path transform="translate(-209.37 -16.98)" d="m257.14 265.17v-13.359h1.7656v13.359zm4.6833 0v-9.6719h1.4688v1.375q1.0625-1.5937 3.0781-1.5937 0.875 0 1.6094 0.3125 0.73437 0.3125 1.0938 0.82811 0.375 0.5 0.51562 1.2031 0.0937 0.45313 0.0937 1.5938v5.9531h-1.6406v-5.8906q0-1-0.20313-1.4844-0.1875-0.5-0.67187-0.79688-0.48438-0.29687-1.1406-0.29687-1.0469 0-1.8125 0.67187-0.75 0.65625-0.75 2.5156v5.2812zm16.641 0v-1.2188q-0.90625 1.4375-2.7031 1.4375-1.1562 0-2.125-0.64062-0.96875-0.64063-1.5-1.7812-0.53125-1.1406-0.53125-2.625 0-1.4531 0.48438-2.625 0.48437-1.1875 1.4375-1.8125 0.96875-0.625 2.1719-0.625 0.875 0 1.5469 0.375 0.6875 0.35936 1.1094 0.95311v-4.7969h1.6406v13.359zm-5.1719-4.8281q0 1.8594 0.78125 2.7812 0.78125 0.92187 1.8438 0.92187 1.0781 0 1.8281-0.875 0.75-0.89062 0.75-2.6875 0-1.9844-0.76563-2.9062-0.76562-0.9375-1.8906-0.9375-1.0781 0-1.8125 0.89063-0.73438 0.89062-0.73438 2.8125zm15.907 1.7188 1.6875 0.20312q-0.40625 1.4844-1.4844 2.3125-1.0781 0.8125-2.7656 0.8125-2.125 0-3.375-1.2969-1.2344-1.3125-1.2344-3.6719 0-2.4531 1.25-3.7969 1.2656-1.3437 3.2656-1.3437 1.9375 0 3.1562 1.3281 1.2344 1.3125 1.2344 3.7031 0 0.15625 0 0.4375h-7.2188q0.0937 1.5938 0.90625 2.4531 0.8125 0.84375 2.0156 0.84375 0.90625 0 1.5469-0.46875 0.64062-0.48437 1.0156-1.5156zm-5.3906-2.6562h5.4062q-0.10938-1.2188-0.625-1.8281-0.78125-0.95312-2.0312-0.95312-1.125 0-1.9062 0.76562-0.76563 0.75-0.84375 2.0156zm8.0476 5.7656 3.5312-5.0312-3.2656-4.6406h2.0469l1.4844 2.2656q0.42187 0.64063 0.67187 1.0781 0.40625-0.59375 0.73438-1.0625l1.6406-2.2812h1.9531l-3.3438 4.5469 3.5938 5.125h-2.0156l-1.9844-3-0.51563-0.8125-2.5469 3.8125zm15.152-6.5938q0-2.3594 0.48438-3.7969 0.48437-1.4531 1.4375-2.2344 0.96875-0.78125 2.4219-0.78125 1.0781 0 1.8906 0.4375 0.8125 0.42187 1.3281 1.25 0.53125 0.8125 0.82813 1.9844 0.3125 1.1562 0.3125 3.1406 0 2.3594-0.48438 3.8125-0.48437 1.4375-1.4531 2.2344-0.95313 0.78125-2.4219 0.78125-1.9219 0-3.0312-1.3906-1.3125-1.6719-1.3125-5.4375zm1.6719 0q0 3.2969 0.76562 4.3906 0.78125 1.0781 1.9062 1.0781 1.1406 0 1.9062-1.0938 0.76563-1.0938 0.76563-4.375 0-3.2969-0.76563-4.375-0.76562-1.0781-1.9219-1.0781-1.125 0-1.7969 0.95313-0.85937 1.2188-0.85937 4.5z" clip-path="url(#clipPath119)"/>
  <path transform="translate(-209.37 -16.98)" d="m245.74 287.57v-9.6719h1.4688v1.4688q0.5625-1.0312 1.0312-1.3594 0.48437-0.32813 1.0625-0.32813 0.82812 0 1.6875 0.53125l-0.5625 1.5156q-0.60938-0.35938-1.2031-0.35938-0.54687 0-0.96875 0.32813-0.42187 0.32812-0.60937 0.89062-0.28125 0.875-0.28125 1.9219v5.0625zm12.853-3.1094 1.6875 0.20313q-0.40625 1.4844-1.4844 2.3125-1.0781 0.8125-2.7656 0.8125-2.125 0-3.375-1.2969-1.2344-1.3125-1.2344-3.6719 0-2.4531 1.25-3.7969 1.2656-1.3438 3.2656-1.3438 1.9375 0 3.1562 1.3281 1.2344 1.3125 1.2344 3.7031 0 0.15625 0 0.4375h-7.2188q0.0937 1.5938 0.90625 2.4531 0.8125 0.84375 2.0156 0.84375 0.90625 0 1.5469-0.46875 0.64062-0.48438 1.0156-1.5156zm-5.3906-2.6562h5.4062q-0.10938-1.2188-0.625-1.8281-0.78125-0.95313-2.0312-0.95313-1.125 0-1.9062 0.76563-0.76563 0.75-0.84375 2.0156zm9.532 5.7656v-8.4062h-1.4531v-1.2656h1.4531v-1.0312q0-0.96875 0.17187-1.4531 0.23438-0.64063 0.82813-1.0312 0.59375-0.39063 1.6719-0.39063 0.6875 0 1.5312 0.15625l-0.25 1.4375q-0.5-0.0937-0.95312-0.0937-0.75 0-1.0625 0.32813-0.3125 0.3125-0.3125 1.1875v0.89062h1.8906v1.2656h-1.8906v8.4062zm11.105-3.5469 1.6094 0.21875q-0.26563 1.6562-1.3594 2.6094-1.0781 0.9375-2.6719 0.9375-1.9844 0-3.1875-1.2969-1.2031-1.2969-1.2031-3.7188 0-1.5781 0.51563-2.75 0.51562-1.1719 1.5781-1.75 1.0625-0.59375 2.3125-0.59375 1.5781 0 2.5781 0.79688 1 0.79687 1.2812 2.2656l-1.5938 0.23438q-0.23438-0.96875-0.8125-1.4531-0.57813-0.5-1.3906-0.5-1.2344 0-2.0156 0.89063-0.78125 0.89062-0.78125 2.8125 0 1.9531 0.75 2.8438 0.75 0.875 1.9531 0.875 0.96875 0 1.6094-0.59375 0.65625-0.59375 0.82812-1.8281zm2.4062-1.2969q0-2.6875 1.4844-3.9688 1.25-1.0781 3.0469-1.0781 2 0 3.2656 1.3125 1.2656 1.2969 1.2656 3.6094 0 1.8594-0.5625 2.9375-0.5625 1.0625-1.6406 1.6562-1.0625 0.59375-2.3281 0.59375-2.0312 0-3.2812-1.2969-1.25-1.3125-1.25-3.7656zm1.6875 0q0 1.8594 0.79688 2.7969 0.8125 0.92188 2.0469 0.92188 1.2188 0 2.0312-0.92188 0.8125-0.9375 0.8125-2.8438 0-1.7969-0.8125-2.7188-0.8125-0.92187-2.0312-0.92187-1.2344 0-2.0469 0.92187-0.79688 0.90625-0.79688 2.7656zm15.626 4.8438v-1.4219q-1.125 1.6406-3.0625 1.6406-0.85938 0-1.6094-0.32813-0.73437-0.32812-1.0938-0.82812-0.35937-0.5-0.5-1.2188-0.10937-0.46875-0.10937-1.5312v-5.9844h1.6406v5.3594q0 1.2812 0.10938 1.7344 0.15625 0.64063 0.65625 1.0156t1.2344 0.375q0.73438 0 1.375-0.375 0.65625-0.39063 0.92188-1.0312 0.26562-0.65625 0.26562-1.8906v-5.1875h1.6406v9.6719zm4.0476 0v-9.6719h1.4688v1.375q1.0625-1.5938 3.0781-1.5938 0.875 0 1.6094 0.3125 0.73438 0.3125 1.0938 0.82813 0.375 0.5 0.51563 1.2031 0.0937 0.45313 0.0937 1.5938v5.9531h-1.6406v-5.8906q0-1-0.20312-1.4844-0.1875-0.5-0.67188-0.79688-0.48437-0.29687-1.1406-0.29687-1.0469 0-1.8125 0.67187-0.75 0.65625-0.75 2.5156v5.2812zm13.954-1.4688 0.23437 1.4531q-0.6875 0.14063-1.2344 0.14063-0.89063 0-1.3906-0.28125-0.48437-0.28125-0.6875-0.73438-0.20312-0.46875-0.20312-1.9375v-5.5781h-1.2031v-1.2656h1.2031v-2.3906l1.625-0.98438v3.375h1.6562v1.2656h-1.6562v5.6719q0 0.6875 0.0781 0.89063 0.0937 0.20312 0.28125 0.32812 0.20313 0.10938 0.57813 0.10938 0.26562 0 0.71875-0.0625zm12.507 1.4688h-1.6406v-10.453q-0.59375 0.5625-1.5625 1.1406-0.95313 0.5625-1.7188 0.84375v-1.5938q1.375-0.64063 2.4062-1.5625 1.0312-0.92188 1.4531-1.7812h1.0625z" clip-path="url(#clipPath118)"/>
 </g>
 <path transform="translate(-209.37 -16.98)" d="m353.38 205.09c0-9.8746 8.005-17.88 17.88-17.88h78.477c4.742 0 9.2897 1.8837 12.643 5.2368 3.3531 3.3531 5.2368 7.9008 5.2368 12.643v71.516c0 9.8746-8.005 17.88-17.88 17.88h-78.477c-9.8746 0-17.88-8.005-17.88-17.88z" clip-path="url(#clipPath117)" fill="#fff" fill-rule="evenodd"/>
 <g fill="#000">
  <path transform="translate(-209.37 -16.98)" d="m393.13 212.69v-17.188h11.594v2.0312h-9.3125v5.3281h8.0625v2.0156h-8.0625v7.8125zm14.285-14.75v-2.4375h2.1094v2.4375zm0 14.75v-12.453h2.1094v12.453zm5.2695 0v-17.188h2.1094v17.188zm13.91-4.0156 2.1719 0.28125q-0.51563 1.9062-1.9062 2.9688-1.3906 1.0469-3.5625 1.0469-2.7344 0-4.3438-1.6719-1.5938-1.6875-1.5938-4.7344 0-3.1406 1.6094-4.875 1.625-1.7344 4.2031-1.7344 2.5 0 4.0781 1.7031 1.5938 1.7031 1.5938 4.7812 0 0.1875-0.0156 0.5625h-9.2813q0.10937 2.0469 1.1562 3.1406 1.0469 1.0938 2.6094 1.0938 1.1562 0 1.9688-0.60937 0.82813-0.60938 1.3125-1.9531zm-6.9375-3.4062h6.9531q-0.14063-1.5625-0.79688-2.3594-1-1.2188-2.6094-1.2188-1.4531 0-2.4531 0.98437-0.98437 0.96875-1.0938 2.5938z" clip-path="url(#clipPath116)"/>
  <path transform="translate(-209.37 -16.98)" d="m380.24 235.97 2.1406-0.1875q0.15625 1.2812 0.70313 2.1094 0.5625 0.82813 1.7344 1.3438 1.1719 0.5 2.6406 0.5 1.2969 0 2.2969-0.375 1-0.39062 1.4844-1.0625 0.48437-0.6875 0.48437-1.4844 0-0.79688-0.46875-1.4062-0.46875-0.60938-1.5469-1.0156-0.6875-0.26562-3.0625-0.82812-2.3594-0.57813-3.3125-1.0781-1.2344-0.64062-1.8438-1.5938-0.59375-0.96875-0.59375-2.1406 0-1.3125 0.73437-2.4375 0.75-1.125 2.1562-1.7031 1.4219-0.59375 3.1562-0.59375 1.9062 0 3.3594 0.60938 1.4688 0.60937 2.25 1.8125 0.79687 1.1875 0.84375 2.7031l-2.1719 0.17188q-0.17187-1.6406-1.1875-2.4688-1.0156-0.82813-3-0.82813-2.0625 0-3.0156 0.76563-0.9375 0.75-0.9375 1.8125 0 0.92187 0.67187 1.5156 0.65625 0.60938 3.4219 1.2344 2.7812 0.625 3.8125 1.0938 1.5 0.6875 2.2031 1.75 0.71875 1.0625 0.71875 2.4375t-0.78125 2.5938q-0.78125 1.2031-2.25 1.8906-1.4688 0.67188-3.3125 0.67188-2.3281 0-3.9062-0.67188-1.5781-0.6875-2.4844-2.0469-0.89063-1.375-0.9375-3.0938zm21.117 3.625 0.3125 1.8594q-0.89063 0.20313-1.5938 0.20313-1.1562 0-1.7969-0.35938-0.625-0.375-0.89062-0.96875-0.25-0.59375-0.25-2.4844v-7.1719h-1.5469v-1.6406h1.5469v-3.0781l2.0938-1.2656v4.3438h2.125v1.6406h-2.125v7.2812q0 0.90625 0.10937 1.1719 0.125 0.25 0.375 0.40625 0.25 0.14062 0.71875 0.14062 0.34375 0 0.92188-0.0781zm2.043 1.8906v-12.453h1.8906v1.8906q0.73438-1.3281 1.3438-1.75 0.625-0.42187 1.3594-0.42187 1.0625 0 2.1719 0.6875l-0.73437 1.9531q-0.76563-0.45312-1.5469-0.45312-0.6875 0-1.25 0.42187-0.54687 0.40625-0.78125 1.1406-0.34375 1.125-0.34375 2.4688v6.5156zm16.164 0v-1.8281q-1.4531 2.1094-3.9375 2.1094-1.1094 0-2.0625-0.42187-0.95313-0.42188-1.4219-1.0625-0.45312-0.64063-0.64062-1.5625-0.14063-0.625-0.14063-1.9688v-7.7188h2.1094v6.9062q0 1.6562 0.14062 2.2344 0.1875 0.82813 0.82813 1.3125 0.65625 0.46875 1.6094 0.46875 0.9375 0 1.7656-0.48437 0.84375-0.5 1.1875-1.3281 0.34375-0.84375 0.34375-2.4375v-6.6719h2.1094v12.453zm13.316-4.5625 2.0781 0.26563q-0.34375 2.1562-1.75 3.375-1.3906 1.2031-3.4375 1.2031-2.5469 0-4.1094-1.6719-1.5469-1.6719-1.5469-4.7812 0-2.0156 0.67187-3.5312 0.67188-1.5156 2.0312-2.2656 1.3594-0.76562 2.9688-0.76562 2.0312 0 3.3125 1.0312 1.2969 1.0312 1.6562 2.9062l-2.0469 0.32812q-0.29688-1.2656-1.0469-1.8906-0.73437-0.64063-1.7969-0.64063-1.5938 0-2.5938 1.1562-0.98438 1.1406-0.98438 3.6094 0 2.5 0.95313 3.6406 0.96875 1.1406 2.5156 1.1406 1.2344 0 2.0625-0.76563 0.84375-0.76562 1.0625-2.3438zm8.4844 2.6719 0.3125 1.8594q-0.89063 0.20313-1.5938 0.20313-1.1562 0-1.7969-0.35938-0.625-0.375-0.89062-0.96875-0.25-0.59375-0.25-2.4844v-7.1719h-1.5469v-1.6406h1.5469v-3.0781l2.0938-1.2656v4.3438h2.125v1.6406h-2.125v7.2812q0 0.90625 0.10937 1.1719 0.125 0.25 0.375 0.40625 0.25 0.14062 0.71875 0.14062 0.34375 0 0.92188-0.0781z" clip-path="url(#clipPath115)"/>
  <path transform="translate(-209.37 -16.98)" d="m381.64 265.17v-13.359h1.7656v13.359zm4.6833 0v-9.6719h1.4688v1.375q1.0625-1.5937 3.0781-1.5937 0.875 0 1.6094 0.3125 0.73437 0.3125 1.0938 0.82811 0.375 0.5 0.51562 1.2031 0.0937 0.45313 0.0937 1.5938v5.9531h-1.6406v-5.8906q0-1-0.20313-1.4844-0.1875-0.5-0.67187-0.79688-0.48438-0.29687-1.1406-0.29687-1.0469 0-1.8125 0.67187-0.75 0.65625-0.75 2.5156v5.2812zm16.641 0v-1.2188q-0.90625 1.4375-2.7031 1.4375-1.1562 0-2.125-0.64062-0.96875-0.64063-1.5-1.7812-0.53125-1.1406-0.53125-2.625 0-1.4531 0.48438-2.625 0.48437-1.1875 1.4375-1.8125 0.96875-0.625 2.1719-0.625 0.875 0 1.5469 0.375 0.6875 0.35936 1.1094 0.95311v-4.7969h1.6406v13.359zm-5.1719-4.8281q0 1.8594 0.78125 2.7812 0.78125 0.92187 1.8438 0.92187 1.0781 0 1.8281-0.875 0.75-0.89062 0.75-2.6875 0-1.9844-0.76563-2.9062-0.76562-0.9375-1.8906-0.9375-1.0781 0-1.8125 0.89063-0.73438 0.89062-0.73438 2.8125zm15.907 1.7188 1.6875 0.20312q-0.40625 1.4844-1.4844 2.3125-1.0781 0.8125-2.7656 0.8125-2.125 0-3.375-1.2969-1.2344-1.3125-1.2344-3.6719 0-2.4531 1.25-3.7969 1.2656-1.3437 3.2656-1.3437 1.9375 0 3.1562 1.3281 1.2344 1.3125 1.2344 3.7031 0 0.15625 0 0.4375h-7.2188q0.0937 1.5938 0.90625 2.4531 0.8125 0.84375 2.0156 0.84375 0.90625 0 1.5469-0.46875 0.64062-0.48437 1.0156-1.5156zm-5.3906-2.6562h5.4062q-0.10938-1.2188-0.625-1.8281-0.78125-0.95312-2.0312-0.95312-1.125 0-1.9062 0.76562-0.76563 0.75-0.84375 2.0156zm8.0476 5.7656 3.5312-5.0312-3.2656-4.6406h2.0469l1.4844 2.2656q0.42187 0.64063 0.67187 1.0781 0.40625-0.59375 0.73438-1.0625l1.6406-2.2812h1.9531l-3.3438 4.5469 3.5938 5.125h-2.0156l-1.9844-3-0.51563-0.8125-2.5469 3.8125zm21.324 0h-1.6406v-10.453q-0.59375 0.5625-1.5625 1.1406-0.95312 0.56248-1.7188 0.84373v-1.5937q1.375-0.64063 2.4062-1.5625 1.0312-0.92188 1.4531-1.7812h1.0625z" clip-path="url(#clipPath114)"/>
  <path transform="translate(-209.37 -16.98)" d="m370.24 287.57v-9.6719h1.4688v1.4688q0.5625-1.0312 1.0312-1.3594 0.48437-0.32813 1.0625-0.32813 0.82812 0 1.6875 0.53125l-0.5625 1.5156q-0.60938-0.35938-1.2031-0.35938-0.54687 0-0.96875 0.32813-0.42187 0.32812-0.60937 0.89062-0.28125 0.875-0.28125 1.9219v5.0625zm12.853-3.1094 1.6875 0.20313q-0.40625 1.4844-1.4844 2.3125-1.0781 0.8125-2.7656 0.8125-2.125 0-3.375-1.2969-1.2344-1.3125-1.2344-3.6719 0-2.4531 1.25-3.7969 1.2656-1.3438 3.2656-1.3438 1.9375 0 3.1562 1.3281 1.2344 1.3125 1.2344 3.7031 0 0.15625 0 0.4375h-7.2188q0.0937 1.5938 0.90625 2.4531 0.8125 0.84375 2.0156 0.84375 0.90625 0 1.5469-0.46875 0.64062-0.48438 1.0156-1.5156zm-5.3906-2.6562h5.4062q-0.10938-1.2188-0.625-1.8281-0.78125-0.95313-2.0312-0.95313-1.125 0-1.9062 0.76563-0.76563 0.75-0.84375 2.0156zm9.532 5.7656v-8.4062h-1.4531v-1.2656h1.4531v-1.0312q0-0.96875 0.17187-1.4531 0.23438-0.64063 0.82813-1.0312 0.59375-0.39063 1.6719-0.39063 0.6875 0 1.5312 0.15625l-0.25 1.4375q-0.5-0.0937-0.95312-0.0937-0.75 0-1.0625 0.32813-0.3125 0.3125-0.3125 1.1875v0.89062h1.8906v1.2656h-1.8906v8.4062zm11.105-3.5469 1.6094 0.21875q-0.26563 1.6562-1.3594 2.6094-1.0781 0.9375-2.6719 0.9375-1.9844 0-3.1875-1.2969-1.2031-1.2969-1.2031-3.7188 0-1.5781 0.51563-2.75 0.51562-1.1719 1.5781-1.75 1.0625-0.59375 2.3125-0.59375 1.5781 0 2.5781 0.79688 1 0.79687 1.2812 2.2656l-1.5938 0.23438q-0.23438-0.96875-0.8125-1.4531-0.57813-0.5-1.3906-0.5-1.2344 0-2.0156 0.89063-0.78125 0.89062-0.78125 2.8125 0 1.9531 0.75 2.8438 0.75 0.875 1.9531 0.875 0.96875 0 1.6094-0.59375 0.65625-0.59375 0.82812-1.8281zm2.4062-1.2969q0-2.6875 1.4844-3.9688 1.25-1.0781 3.0469-1.0781 2 0 3.2656 1.3125 1.2656 1.2969 1.2656 3.6094 0 1.8594-0.5625 2.9375-0.5625 1.0625-1.6406 1.6562-1.0625 0.59375-2.3281 0.59375-2.0312 0-3.2812-1.2969-1.25-1.3125-1.25-3.7656zm1.6875 0q0 1.8594 0.79688 2.7969 0.8125 0.92188 2.0469 0.92188 1.2188 0 2.0312-0.92188 0.8125-0.9375 0.8125-2.8438 0-1.7969-0.8125-2.7188-0.8125-0.92187-2.0312-0.92187-1.2344 0-2.0469 0.92187-0.79688 0.90625-0.79688 2.7656zm15.626 4.8438v-1.4219q-1.125 1.6406-3.0625 1.6406-0.85937 0-1.6094-0.32813-0.73438-0.32812-1.0938-0.82812-0.35938-0.5-0.5-1.2188-0.10938-0.46875-0.10938-1.5312v-5.9844h1.6406v5.3594q0 1.2812 0.10937 1.7344 0.15625 0.64063 0.65625 1.0156t1.2344 0.375q0.73437 0 1.375-0.375 0.65625-0.39063 0.92187-1.0312 0.26563-0.65625 0.26563-1.8906v-5.1875h1.6406v9.6719zm4.0476 0v-9.6719h1.4688v1.375q1.0625-1.5938 3.0781-1.5938 0.875 0 1.6094 0.3125 0.73438 0.3125 1.0938 0.82813 0.375 0.5 0.51563 1.2031 0.0937 0.45313 0.0937 1.5938v5.9531h-1.6406v-5.8906q0-1-0.20312-1.4844-0.1875-0.5-0.67188-0.79688-0.48437-0.29687-1.1406-0.29687-1.0469 0-1.8125 0.67187-0.75 0.65625-0.75 2.5156v5.2812zm13.954-1.4688 0.23437 1.4531q-0.6875 0.14063-1.2344 0.14063-0.89063 0-1.3906-0.28125-0.48437-0.28125-0.6875-0.73438-0.20312-0.46875-0.20312-1.9375v-5.5781h-1.2031v-1.2656h1.2031v-2.3906l1.625-0.98438v3.375h1.6562v1.2656h-1.6562v5.6719q0 0.6875 0.0781 0.89063 0.0937 0.20312 0.28125 0.32812 0.20313 0.10938 0.57813 0.10938 0.26562 0 0.71875-0.0625zm12.507 1.4688h-1.6406v-10.453q-0.59375 0.5625-1.5625 1.1406-0.95313 0.5625-1.7188 0.84375v-1.5938q1.375-0.64063 2.4062-1.5625 1.0312-0.92188 1.4531-1.7812h1.0625z" clip-path="url(#clipPath113)"/>
 </g>
 <g fill-rule="evenodd">
  <path transform="translate(-209.37 -16.98)" d="m261.41 348.79h288.38v55.024h-288.38z" clip-path="url(#clipPath112)" fill="#cfd8dc"/>
  <path transform="translate(-209.37 -16.98)" d="m261.41 348.79h288.38v55.024h-288.38z" clip-path="url(#clipPath111)" stroke="#004065" stroke-linecap="butt" stroke-linejoin="round"/>
  <path transform="translate(-209.37 -16.98)" d="m267.35 355.61h40.346v40.346h-40.346z" clip-path="url(#clipPath110)" fill="#cfd8dc"/>
  <path transform="translate(-209.37 -16.98)" d="m267.35 355.61h40.346v40.346h-40.346z" clip-path="url(#clipPath109)" stroke="#004065" stroke-linecap="butt" stroke-linejoin="round" stroke-width="3"/>
  <path transform="translate(-209.37 -16.98)" d="m315.35 355.61h40.346v40.346h-40.346z" clip-path="url(#clipPath108)" fill="#cfd8dc"/>
  <path transform="translate(-209.37 -16.98)" d="m315.35 355.61h40.346v40.346h-40.346z" clip-path="url(#clipPath107)" stroke="#004065" stroke-linecap="butt" stroke-linejoin="round" stroke-width="3"/>
  <path transform="translate(-209.37 -16.98)" d="m363.35 355.61h40.346v40.346h-40.346z" clip-path="url(#clipPath106)" fill="#cfd8dc"/>
  <path transform="translate(-209.37 -16.98)" d="m363.35 355.61h40.346v40.346h-40.346z" clip-path="url(#clipPath105)" stroke="#004065" stroke-linecap="butt" stroke-linejoin="round" stroke-width="3"/>
  <path transform="translate(-209.37 -16.98)" d="m267.35 396.91h40.346v29.417h-40.346z" clip-path="url(#clipPath104)" fill="#000" fill-opacity="0"/>
 </g>
 <path transform="translate(-209.37 -16.98)" d="m283.11 417.24q0-2.3594 0.48438-3.7969 0.48437-1.4531 1.4375-2.2344 0.96875-0.78125 2.4219-0.78125 1.0781 0 1.8906 0.4375 0.8125 0.42187 1.3281 1.25 0.53125 0.8125 0.82813 1.9844 0.3125 1.1562 0.3125 3.1406 0 2.3594-0.48438 3.8125-0.48437 1.4375-1.4531 2.2344-0.95313 0.78125-2.4219 0.78125-1.9219 0-3.0312-1.3906-1.3125-1.6719-1.3125-5.4375zm1.6719 0q0 3.2969 0.76562 4.3906 0.78125 1.0781 1.9062 1.0781 1.1406 0 1.9062-1.0938 0.76563-1.0938 0.76563-4.375 0-3.2969-0.76563-4.375-0.76562-1.0781-1.9219-1.0781-1.125 0-1.7969 0.95313-0.85937 1.2188-0.85937 4.5z" clip-path="url(#clipPath103)" fill="#004065"/>
 <path transform="translate(-209.37 -16.98)" d="m315.35 396.91h40.346v29.417h-40.346z" clip-path="url(#clipPath102)" fill="#000" fill-opacity="0" fill-rule="evenodd"/>
 <path transform="translate(-209.37 -16.98)" d="m337.28 423.83h-1.6406v-10.453q-0.59375 0.5625-1.5625 1.1406-0.95312 0.5625-1.7188 0.84375v-1.5938q1.375-0.64063 2.4062-1.5625 1.0312-0.92188 1.4531-1.7812h1.0625z" clip-path="url(#clipPath101)" fill="#004065"/>
 <path transform="translate(-209.37 -16.98)" d="m363.35 396.91h40.346v29.417h-40.346z" clip-path="url(#clipPath100)" fill="#000" fill-opacity="0" fill-rule="evenodd"/>
 <path transform="translate(-209.37 -16.98)" d="m387.72 422.26v1.5781h-8.8281q-0.0156-0.59375 0.1875-1.1406 0.34375-0.90625 1.0781-1.7812 0.75-0.875 2.1562-2.0156 2.1719-1.7812 2.9375-2.8281 0.76562-1.0469 0.76562-1.9688 0-0.98438-0.70312-1.6406-0.6875-0.67187-1.8125-0.67187-1.1875 0-1.9062 0.71875-0.70313 0.70312-0.70313 1.9531l-1.6875-0.17187q0.17188-1.8906 1.2969-2.875 1.1406-0.98438 3.0312-0.98438 1.9219 0 3.0469 1.0625t1.125 2.6406q0 0.79687-0.32812 1.5781-0.32813 0.78125-1.0938 1.6406-0.75 0.84375-2.5312 2.3438-1.4688 1.2344-1.8906 1.6875-0.42187 0.4375-0.6875 0.875z" clip-path="url(#clipPath99)" fill="#004065"/>
 <g fill-rule="evenodd">
  <path transform="translate(-209.37 -16.98)" d="m411.35 355.61h40.346v40.346h-40.346z" clip-path="url(#clipPath98)" fill="#cfd8dc"/>
  <path transform="translate(-209.37 -16.98)" d="m411.35 355.61h40.346v40.346h-40.346z" clip-path="url(#clipPath97)" stroke="#004065" stroke-linecap="butt" stroke-linejoin="round" stroke-width="3"/>
  <path transform="translate(-209.37 -16.98)" d="m411.35 396.91h40.346v29.417h-40.346z" clip-path="url(#clipPath96)" fill="#000" fill-opacity="0"/>
 </g>
 <path transform="translate(-209.37 -16.98)" d="m427.11 420.3 1.6406-0.21875q0.28125 1.4062 0.95312 2.0156 0.6875 0.60938 1.6562 0.60938 1.1562 0 1.9531-0.79688 0.79687-0.79687 0.79687-1.9844 0-1.125-0.73437-1.8594-0.73438-0.73437-1.875-0.73437-0.46875 0-1.1562 0.17187l0.1875-1.4375q0.15625 0.0156 0.26562 0.0156 1.0469 0 1.875-0.54688 0.84375-0.54687 0.84375-1.6719 0-0.90625-0.60937-1.5-0.60938-0.59375-1.5781-0.59375-0.95312 0-1.5938 0.60937-0.64062 0.59375-0.8125 1.7969l-1.6406-0.29688q0.29687-1.6406 1.3594-2.5469t2.6562-0.90625q1.0938 0 2 0.46875 0.92188 0.46875 1.4062 1.2812 0.5 0.8125 0.5 1.7188 0 0.85937-0.46875 1.5781-0.46875 0.70313-1.375 1.125 1.1875 0.28125 1.8438 1.1406 0.65625 0.85937 0.65625 2.1562 0 1.7344-1.2812 2.9531-1.2656 1.2188-3.2188 1.2188-1.7656 0-2.9219-1.0469-1.1562-1.0469-1.3281-2.7188z" clip-path="url(#clipPath95)" fill="#004065"/>
 <path transform="translate(-209.37 -16.98)" d="m210.23 449.2v-116.28h55.024v116.28z" clip-path="url(#clipPath94)" fill="#000" fill-opacity="0" fill-rule="evenodd"/>
 <path transform="translate(-209.37 -16.98)" d="m234.44 430.25q-0.48438 0-0.76563 0.48437-0.28125 0.46875-0.5 1.5156-0.73437 3.5312-2.9844 3.5312-1.3125 0-2.1875-1.0938t-0.875-2.8438q0-1.875 0.89062-3 0.875-1.125 2.2812-1.125v2.625q-0.5625 0-0.92187 0.375-0.375 0.35937-0.375 1.125 0 0.67187 0.29687 1.0312 0.29688 0.35937 0.76563 0.35937 0.4375 0 0.70312-0.40625 0.26563-0.42187 0.46875-1.4062 0.1875-0.98437 0.4375-1.6562 0.76563-2.0781 2.6562-2.0781 1.3438 0 2.1875 1.1562 0.82813 1.1562 0.82813 2.9844 0 1.2344-0.4375 2.2031-0.45313 0.95312-1.2188 1.5-0.76563 0.54687-1.6719 0.54687v-2.4844q0.70313-0.0469 1.0781-0.53125 0.375-0.48438 0.375-1.2812 0-0.76563-0.28125-1.1406-0.29688-0.39062-0.75-0.39062zm-9.5625-7.4048h2.4219v-1.6875h1.9375v1.6875h4.9219q0.54687 0 0.78125-0.20312 0.23437-0.21875 0.23437-0.8125 0-0.4375-0.0625-0.78125h2q0.23438 0.78125 0.23438 1.5938 0 2.7812-2.7969 2.8281h-5.3125v1.4375h-1.9375v-1.4375h-2.4219zm4.8906-8.6944q-0.0625 0.53125-0.0625 0.9375 0 1.5 1 1.9688h6.4531v2.625h-9.8594v-2.4844l1.1719-0.0781q-1.3438-0.78125-1.3438-2.1875 0-0.4375 0.10937-0.82813zm6.3906-7.1798q1.1875 0.98437 1.1875 2.7031 0 1.5938-0.90625 2.4219-0.92188 0.82812-2.6719 0.84375h-6.4688v-2.625h6.375q1.5312 0 1.5312-1.4062 0-1.3438-0.92187-1.8438h-6.9844v-2.6406h9.8594v2.4844zm-0.9375-8.627q0-0.73437-0.39063-1.1875-0.40625-0.45312-1.0781-0.46875v-2.4688q1 0 1.8438 0.54688 0.82812 0.53125 1.2969 1.4688 0.45313 0.9375 0.45313 2.0625 0 2.1094-1.3438 3.3438-1.3438 1.2188-3.7188 1.2188h-0.17188q-2.2812 0-3.625-1.2188-1.3594-1.2188-1.3594-3.3281 0-1.8438 1.0469-2.9531 1.0469-1.125 2.7969-1.1406v2.4688q-0.76563 0.0156-1.2344 0.46875-0.48437 0.45313-0.48437 1.2031 0 0.92187 0.67187 1.3906 0.67188 0.46875 2.1719 0.46875h0.26562q1.5312 0 2.2031-0.45312 0.65625-0.46875 0.65625-1.4219zm-10.344-8.7758h2.4219v-1.6875h1.9375v1.6875h4.9219q0.54687 0 0.78125-0.20313 0.23437-0.21875 0.23437-0.8125 0-0.4375-0.0625-0.78125h2q0.23438 0.78125 0.23438 1.5938 0 2.7812-2.7969 2.8281h-5.3125v1.4375h-1.9375v-1.4375h-2.4219zm7.4375-16.684q2.2812 0 3.6562 1.0469 1.375 1.0312 1.375 2.7812 0 1.5-1.0469 2.4219h4.6562v2.625h-13.656v-2.4375l0.96875-0.0937q-1.1406-0.95313-1.1406-2.5 0-1.8125 1.3438-2.8281 1.3438-1.0156 3.7188-1.0156zm-0.1875 2.6406q-1.375 0-2.1094 0.48438-0.75 0.48437-0.75 1.4219 0 1.2344 0.9375 1.7031h4.0312q0.98438-0.48438 0.98438-1.7188 0-1.8906-3.0938-1.8906zm-2.3594-9.8001q-0.0625 0.53125-0.0625 0.9375 0 1.5 1 1.9688h6.4531v2.625h-9.8594v-2.4844l1.1719-0.0781q-1.3438-0.78125-1.3438-2.1875 0-0.4375 0.10937-0.82812zm2.375-0.52353q-1.4688 0-2.6094-0.5625-1.1562-0.57812-1.7812-1.6406t-0.625-2.4531q0-2 1.2188-3.2656 1.2188-1.2656 3.3125-1.4062l0.67187-0.0156q2.2656 0 3.6406 1.2656 1.375 1.2656 1.375 3.4062 0 2.125-1.3594 3.4062-1.375 1.2656-3.7344 1.2656zm0.1875-2.6406q1.4062 0 2.1562-0.53125 0.73438-0.53125 0.73438-1.5156 0-0.95312-0.73438-1.4844-0.73437-0.54688-2.3438-0.54688-1.375 0-2.125 0.54688-0.76562 0.53125-0.76562 1.5156 0 0.95313 0.75 1.4844t2.3281 0.53125zm2.8906-12.424q0-0.73438-0.39063-1.1875-0.40625-0.45313-1.0781-0.46875v-2.4688q1 0 1.8438 0.54687 0.82812 0.53125 1.2969 1.4688 0.45313 0.9375 0.45313 2.0625 0 2.1094-1.3438 3.3438-1.3438 1.2188-3.7188 1.2188h-0.17188q-2.2812 0-3.625-1.2188-1.3594-1.2188-1.3594-3.3281 0-1.8438 1.0469-2.9531 1.0469-1.125 2.7969-1.1406v2.4688q-0.76563 0.0156-1.2344 0.46875-0.48437 0.45312-0.48437 1.2031 0 0.92188 0.67187 1.3906 0.67188 0.46875 2.1719 0.46875h0.26562q1.5312 0 2.2031-0.45313 0.65625-0.46875 0.65625-1.4219z" clip-path="url(#clipPath93)" fill="#004065"/>
 <g fill="#fff" fill-rule="evenodd">
  <path transform="translate(-209.37 -16.98)" d="m493.78 240.7c0-4.2096 3.4125-7.622 7.622-7.622 2.0215 0 3.9602 0.80303 5.3896 2.2324 1.4294 1.4294 2.2324 3.3681 2.2324 5.3896 0 4.2095-3.4125 7.622-7.622 7.622s-7.622-3.4125-7.622-7.622z" clip-path="url(#clipPath92)"/>
  <path transform="translate(-209.37 -16.98)" d="m517.78 240.7c0-4.2096 3.4125-7.622 7.6221-7.622 2.0215 0 3.9601 0.80303 5.3896 2.2324 1.4294 1.4294 2.2324 3.3681 2.2324 5.3896 0 4.2095-3.4125 7.622-7.622 7.622-4.2096 0-7.6221-3.4125-7.6221-7.622z" clip-path="url(#clipPath91)"/>
  <path transform="translate(-209.37 -16.98)" d="m541.78 240.7c0-4.2096 3.4125-7.622 7.6221-7.622 2.0215 0 3.9601 0.80303 5.3896 2.2324 1.4294 1.4294 2.2324 3.3681 2.2324 5.3896 0 4.2095-3.4125 7.622-7.622 7.622-4.2096 0-7.6221-3.4125-7.6221-7.622z" clip-path="url(#clipPath90)"/>
 </g>
 <g fill="#039be5" fill-rule="evenodd">
  <path transform="translate(-209.37 -16.98)" d="m501.78 376.7c0-4.2095 3.4125-7.622 7.622-7.622 2.0215 0 3.9602 0.80304 5.3896 2.2324 1.4294 1.4294 2.2324 3.3681 2.2324 5.3896 0 4.2096-3.4125 7.6221-7.622 7.6221-4.2095 0-7.622-3.4125-7.622-7.6221z" clip-path="url(#clipPath89)"/>
  <path transform="translate(-209.37 -16.98)" d="m525.78 376.7c0-4.2095 3.4125-7.622 7.6221-7.622 2.0215 0 3.9601 0.80304 5.3896 2.2324 1.4294 1.4294 2.2324 3.3681 2.2324 5.3896 0 4.2096-3.4125 7.6221-7.622 7.6221-4.2096 0-7.6221-3.4125-7.6221-7.6221z" clip-path="url(#clipPath88)"/>
  <path transform="translate(-209.37 -16.98)" d="m477.78 376.7c0-4.2095 3.4125-7.622 7.622-7.622 2.0215 0 3.9602 0.80304 5.3896 2.2324 1.4294 1.4294 2.2324 3.3681 2.2324 5.3896 0 4.2096-3.4125 7.6221-7.622 7.6221s-7.622-3.4125-7.622-7.6221z" clip-path="url(#clipPath87)"/>
 </g>
 <g fill-rule="evenodd">
  <path transform="translate(-209.37 -16.98)" d="m286.01 187.21 67.276-68.409" clip-path="url(#clipPath86)" fill="#000" fill-opacity="0"/>
  <path transform="translate(-209.37 -16.98)" d="m286.01 187.21 58.862-59.854" clip-path="url(#clipPath85)" stroke="#004065" stroke-linecap="butt" stroke-linejoin="round" stroke-width="2"/>
  <path transform="translate(-209.37 -16.98)" d="m347.22 129.68 4.0087-8.7875-8.7193 4.1549z" clip-path="url(#clipPath84)" fill="#004065" stroke="#004065" stroke-linecap="butt" stroke-width="2"/>
  <path transform="translate(-209.37 -16.98)" d="m279.9 375.78c0-4.2096 3.4125-7.6221 7.622-7.6221 2.0215 0 3.9602 0.80304 5.3896 2.2324s2.2324 3.3681 2.2324 5.3896c0 4.2095-3.4125 7.622-7.6221 7.622-4.2095 0-7.622-3.4125-7.622-7.622z" clip-path="url(#clipPath83)" fill="#004065"/>
  <path transform="translate(-209.37 -16.98)" d="m287.86 375.54-4.441-76.85" clip-path="url(#clipPath82)" fill="#000" fill-opacity="0"/>
  <path transform="translate(-209.37 -16.98)" d="m287.86 375.54-3.4025-58.88" clip-path="url(#clipPath81)" stroke="#004065" stroke-linecap="butt" stroke-linejoin="round" stroke-width="3"/>
  <path transform="translate(-209.37 -16.98)" d="m289.4 316.37-5.7324-13.306-4.1615 13.877z" clip-path="url(#clipPath80)" fill="#004065" stroke="#004065" stroke-linecap="butt" stroke-width="3"/>
  <path transform="translate(-209.37 -16.98)" d="m336.1 375.22 43.496-80.504" clip-path="url(#clipPath79)" fill="#000" fill-opacity="0"/>
  <path transform="translate(-209.37 -16.98)" d="m336.1 375.22 34.94-64.668" clip-path="url(#clipPath78)" stroke="#ffeb38" stroke-linecap="butt" stroke-linejoin="round" stroke-width="3"/>
  <path transform="translate(-209.37 -16.98)" d="m375.4 312.91 2.112-14.333-10.831 9.6223z" clip-path="url(#clipPath77)" fill="#ffeb38" stroke="#ffeb38" stroke-linecap="butt" stroke-width="3"/>
  <path transform="translate(-209.37 -16.98)" d="m327.9 375.78c0-4.2096 3.4125-7.6221 7.622-7.6221 2.0215 0 3.9602 0.80304 5.3896 2.2324s2.2324 3.3681 2.2324 5.3896c0 4.2095-3.4125 7.622-7.6221 7.622-4.2095 0-7.622-3.4125-7.622-7.622z" clip-path="url(#clipPath76)" fill="#ffeb38"/>
  <path transform="translate(-209.37 -16.98)" d="m410.5 187.21-57.228-68.409" clip-path="url(#clipPath75)" fill="#000" fill-opacity="0"/>
  <path transform="translate(-209.37 -16.98)" d="m410.5 187.21-49.529-59.205" clip-path="url(#clipPath74)" stroke="#004065" stroke-linecap="butt" stroke-linejoin="round" stroke-width="2"/>
  <path transform="translate(-209.37 -16.98)" d="m363.51 125.89-8.3574-4.8418 3.2899 9.0811z" clip-path="url(#clipPath73)" fill="#004065" stroke="#004065" stroke-linecap="butt" stroke-width="2"/>
  <path transform="translate(-209.37 -16.98)" d="m302.84 17.48h100.85v84.514l-16.809 16.809h-84.042z" clip-path="url(#clipPath72)" fill="#fff"/>
  <path transform="translate(-209.37 -16.98)" d="m386.88 118.8 3.3617-13.447 13.447-3.3618z" clip-path="url(#clipPath71)" fill="#cbcbcb"/>
  <path transform="translate(-209.37 -16.98)" d="m386.88 118.8 3.3617-13.447 13.447-3.3618-16.809 16.809h-84.042v-101.32h100.85v84.514" clip-path="url(#clipPath70)" fill="#000" fill-opacity="0"/>
  <path transform="translate(-209.37 -16.98)" d="m386.88 118.8 3.3617-13.447 13.447-3.3618-16.809 16.809h-84.042v-101.32h100.85v84.514" clip-path="url(#clipPath69)" stroke="#004065" stroke-linecap="butt" stroke-linejoin="round"/>
 </g>
 <g fill="#000">
  <path transform="translate(-209.37 -16.98)" d="m334.76 26.854v-1.6094h1.4062v1.6094zm0 9.8438v-8.2969h1.4062v8.2969zm3.5547 0v-8.2969h1.2656v1.1719q0.90625-1.3594 2.6406-1.3594 0.75 0 1.375 0.26562t0.9375 0.70312 0.4375 1.0469q0.0781 0.39062 0.0781 1.3594v5.1094h-1.4062v-5.0469q0-0.85938-0.17187-1.2812-0.15625-0.4375-0.57813-0.6875-0.40625-0.25-0.96875-0.25-0.90625 0-1.5625 0.57812-0.64062 0.5625-0.64062 2.1563v4.5312zm8.3672-4.1562q0-2.2969 1.2812-3.4063 1.0781-0.92188 2.6094-0.92188 1.7188 0 2.7969 1.125 1.0938 1.1094 1.0938 3.0938 0 1.5938-0.48437 2.5156-0.48438 0.92188-1.4062 1.4375-0.90625 0.5-2 0.5-1.7344 0-2.8125-1.1094-1.0781-1.125-1.0781-3.2344zm1.4531 0q0 1.5938 0.6875 2.3906 0.70312 0.79688 1.75 0.79688 1.0469 0 1.7344-0.79688 0.70313-0.79688 0.70313-2.4375 0-1.5313-0.70313-2.3281-0.6875-0.79688-1.7344-0.79688-1.0469 0-1.75 0.79688-0.6875 0.78125-0.6875 2.375zm13.352 4.1562v-1.0469q-0.78125 1.2344-2.3125 1.2344-1 0-1.8281-0.54688-0.82813-0.54688-1.2969-1.5312-0.45312-0.98438-0.45312-2.25 0-1.25 0.40625-2.25 0.42187-1.0156 1.25-1.5469 0.82812-0.54688 1.8594-0.54688 0.75 0 1.3281 0.3125 0.59375 0.3125 0.95312 0.82812v-4.1094h1.4062v11.453zm-4.4375-4.1406q0 1.5938 0.67188 2.3906 0.67187 0.78125 1.5781 0.78125 0.92188 0 1.5625-0.75 0.65625-0.76562 0.65625-2.3125 0-1.7031-0.65625-2.5t-1.625-0.79688q-0.9375 0-1.5625 0.76562t-0.625 2.4219zm13.633 1.4688 1.4531 0.17188q-0.34375 1.2812-1.2812 1.9844-0.92188 0.70312-2.3594 0.70312-1.8281 0-2.8906-1.125t-1.0625-3.1406q0-2.0938 1.0781-3.25 1.0781-1.1562 2.7969-1.1562 1.6562 0 2.7031 1.1406 1.0625 1.125 1.0625 3.1719 0 0.125 0 0.375h-6.1875q0.0781 1.375 0.76563 2.1094 0.70312 0.71875 1.7344 0.71875 0.78125 0 1.3281-0.40625 0.54687-0.40625 0.85937-1.2969zm-4.6094-2.2813h4.625q-0.0937-1.0469-0.53125-1.5625-0.67188-0.8125-1.7344-0.8125-0.96875 0-1.6406 0.65625-0.65625 0.64062-0.71875 1.7188z" clip-path="url(#clipPath68)"/>
  <path transform="translate(-209.37 -16.98)" d="m329.2 46.366v1.625h-1.5v-1.2812q0-1.0469 0.25-1.5156 0.32812-0.625 1.0312-0.95312l0.34375 0.54688q-0.42188 0.1875-0.625 0.54688-0.20313 0.34375-0.23438 1.0312zm2.4219 0v1.625h-1.5v-1.2812q0-1.0469 0.25-1.5156 0.32813-0.625 1.0312-0.95312l0.34375 0.54688q-0.42187 0.1875-0.625 0.54688-0.20312 0.34375-0.23437 1.0312zm2.1406 9.5312v-7.2031h-1.2344v-1.0938h1.2344v-0.89062q0-0.82812 0.15625-1.2344 0.20312-0.54688 0.70312-0.89062 0.51563-0.34375 1.4375-0.34375 0.59375 0 1.3125 0.14062l-0.20312 1.2344q-0.4375-0.07813-0.82813-0.07813-0.64062 0-0.90625 0.28125-0.26562 0.26562-0.26562 1.0156v0.76562h1.6094v1.0938h-1.6094v7.2031zm4.1172-9.8438v-1.6094h1.4062v1.6094zm0 9.8438v-8.2969h1.4062v8.2969zm3.5234 0v-11.453h1.4062v11.453zm9.2578-2.6719 1.4531 0.17188q-0.34375 1.2812-1.2812 1.9844-0.92187 0.70312-2.3594 0.70312-1.8281 0-2.8906-1.125t-1.0625-3.1406q0-2.0938 1.0781-3.25 1.0781-1.1562 2.7969-1.1562 1.6562 0 2.7031 1.1406 1.0625 1.125 1.0625 3.1719 0 0.125 0 0.375h-6.1875q0.0781 1.375 0.76562 2.1094 0.70313 0.71875 1.7344 0.71875 0.78125 0 1.3281-0.40625 0.54688-0.40625 0.85938-1.2969zm-4.6094-2.2812h4.625q-0.0937-1.0469-0.53125-1.5625-0.67187-0.8125-1.7344-0.8125-0.96875 0-1.6406 0.65625-0.65625 0.64062-0.71875 1.7188zm8.2266 4.9531v-1.6094h1.6094v1.6094zm7.1172-1.2656 0.20313 1.25q-0.59375 0.125-1.0625 0.125-0.76563 0-1.1875-0.23438-0.42188-0.25-0.59375-0.64062-0.17188-0.40625-0.17188-1.6719v-4.7656h-1.0312v-1.0938h1.0312v-2.0625l1.4062-0.84375v2.9062h1.4062v1.0938h-1.4062v4.8438q0 0.60938 0.0625 0.78125 0.0781 0.17188 0.25 0.28125 0.17188 0.09375 0.48438 0.09375 0.23437 0 0.60937-0.0625zm0.44531 1.2656 3.0312-4.3125-2.8125-3.9844h1.7656l1.2656 1.9375q0.35938 0.5625 0.57813 0.9375 0.34375-0.51562 0.64062-0.92188l1.3906-1.9531h1.6875l-2.875 3.9062 3.0938 4.3906h-1.7344l-1.7031-2.5781-0.45313-0.70312-2.1719 3.2812zm12-1.2656 0.20313 1.25q-0.59375 0.125-1.0625 0.125-0.76563 0-1.1875-0.23438-0.42188-0.25-0.59375-0.64062-0.17188-0.40625-0.17188-1.6719v-4.7656h-1.0312v-1.0938h1.0312v-2.0625l1.4062-0.84375v2.9062h1.4062v1.0938h-1.4062v4.8438q0 0.60938 0.0625 0.78125 0.0781 0.17188 0.25 0.28125 0.17188 0.09375 0.48438 0.09375 0.23437 0 0.60937-0.0625zm1.0078-8.6719v-1.6406h1.5v1.2969q0 1.0469-0.23438 1.5-0.34375 0.64062-1.0469 0.95312l-0.34375-0.54688q0.42187-0.17188 0.625-0.54688 0.20312-0.375 0.23437-1.0156zm2.4219 0v-1.6406h1.5v1.2969q0 1.0469-0.23437 1.5-0.34375 0.64062-1.0469 0.95312l-0.34375-0.54688q0.42188-0.17188 0.625-0.54688 0.20313-0.375 0.23438-1.0156z" clip-path="url(#clipPath67)"/>
  <path transform="translate(-209.37 -16.98)" d="m331.19 75.097v-10.109h-3.7812v-1.3437h9.0781v1.3437h-3.7812v10.109zm5.3672 3.1875v-1.0156h9.3281v1.0156zm10.461-3.1875v-11.453h7.7344v1.3437h-6.2188v3.5469h5.375v1.3594h-5.375v5.2031zm9.9609 0v-11.453h1.5156v11.453zm4.1172 0v-11.453h1.5156v10.094h5.6406v1.3594zm8.9922 0v-11.453h8.2812v1.3437h-6.7656v3.5156h6.3438v1.3438h-6.3438v3.8906h7.0312v1.3594z" clip-path="url(#clipPath66)"/>
  <path transform="translate(-209.37 -16.98)" d="m318.74 94.297v-8.2969h1.2656v1.25q0.48438-0.875 0.89063-1.1562t0.90625-0.28125q0.70312 0 1.4375 0.45312l-0.48438 1.2969q-0.51562-0.29688-1.0312-0.29688-0.45312 0-0.82812 0.28125-0.35938 0.26562-0.51563 0.76562-0.23437 0.75-0.23437 1.6406v4.3438zm11.016-2.6719 1.4531 0.17188q-0.34375 1.2812-1.2812 1.9844-0.92188 0.70312-2.3594 0.70312-1.8281 0-2.8906-1.125t-1.0625-3.1406q0-2.0938 1.0781-3.25 1.0781-1.1562 2.7969-1.1562 1.6562 0 2.7031 1.1406 1.0625 1.125 1.0625 3.1719 0 0.125 0 0.375h-6.1875q0.0781 1.375 0.76563 2.1094 0.70312 0.71875 1.7344 0.71875 0.78125 0 1.3281-0.40625 0.54687-0.40625 0.85937-1.2969zm-4.6094-2.2812h4.625q-0.0937-1.0469-0.53125-1.5625-0.67188-0.8125-1.7344-0.8125-0.96875 0-1.6406 0.65625-0.65625 0.64062-0.71875 1.7188zm8.1641 4.9531v-7.2031h-1.2344v-1.0938h1.2344v-0.89062q0-0.82812 0.15625-1.2344 0.20313-0.54688 0.70313-0.89062 0.51562-0.34375 1.4375-0.34375 0.59375 0 1.3125 0.14062l-0.20313 1.2344q-0.4375-0.07813-0.82812-0.07813-0.64063 0-0.90625 0.28125-0.26563 0.26562-0.26563 1.0156v0.76562h1.6094v1.0938h-1.6094v7.2031zm9.5234-3.0469 1.3906 0.1875q-0.23437 1.4219-1.1719 2.2344-0.92188 0.8125-2.2812 0.8125-1.7031 0-2.75-1.1094-1.0312-1.125-1.0312-3.2031 0-1.3438 0.4375-2.3438 0.45312-1.0156 1.3594-1.5156 0.92188-0.5 1.9844-0.5 1.3594 0 2.2188 0.6875 0.85937 0.67188 1.0938 1.9375l-1.3594 0.20312q-0.20312-0.82812-0.70312-1.25-0.48438-0.42188-1.1875-0.42188-1.0625 0-1.7344 0.76562-0.65625 0.75-0.65625 2.4062 0 1.6719 0.64063 2.4375 0.64062 0.75 1.6719 0.75 0.82813 0 1.375-0.5 0.5625-0.51562 0.70313-1.5781zm2.0625-1.1094q0-2.2969 1.2812-3.4062 1.0781-0.92188 2.6094-0.92188 1.7188 0 2.7969 1.125 1.0938 1.1094 1.0938 3.0938 0 1.5938-0.48438 2.5156-0.48437 0.92188-1.4062 1.4375-0.90625 0.5-2 0.5-1.7344 0-2.8125-1.1094-1.0781-1.125-1.0781-3.2344zm1.4531 0q0 1.5938 0.6875 2.3906 0.70313 0.79688 1.75 0.79688 1.0469 0 1.7344-0.79688 0.70312-0.79688 0.70312-2.4375 0-1.5312-0.70312-2.3281-0.6875-0.79688-1.7344-0.79688-1.0469 0-1.75 0.79688-0.6875 0.78125-0.6875 2.375zm13.414 4.1562v-1.2188q-0.96875 1.4062-2.6406 1.4062-0.73437 0-1.375-0.28125-0.625-0.28125-0.9375-0.70312-0.3125-0.4375-0.4375-1.0469-0.0781-0.42188-0.0781-1.3125v-5.1406h1.4062v4.5938q0 1.1094 0.0781 1.4844 0.14063 0.5625 0.5625 0.875 0.4375 0.3125 1.0625 0.3125 0.64063 0 1.1875-0.3125 0.5625-0.32812 0.78125-0.89062 0.23438-0.5625 0.23438-1.625v-4.4375h1.4062v8.2969zm3.4609 0v-8.2969h1.2656v1.1719q0.90625-1.3594 2.6406-1.3594 0.75 0 1.375 0.26562t0.9375 0.70312 0.4375 1.0469q0.0781 0.39062 0.0781 1.3594v5.1094h-1.4062v-5.0469q0-0.85938-0.17188-1.2812-0.15625-0.4375-0.57812-0.6875-0.40625-0.25-0.96875-0.25-0.90625 0-1.5625 0.57812-0.64063 0.5625-0.64063 2.1562v4.5312zm11.961-1.2656 0.20313 1.25q-0.59375 0.125-1.0625 0.125-0.76563 0-1.1875-0.23438-0.42188-0.25-0.59375-0.64062-0.17188-0.40625-0.17188-1.6719v-4.7656h-1.0312v-1.0938h1.0312v-2.0625l1.4062-0.84375v2.9062h1.4062v1.0938h-1.4062v4.8438q0 0.60938 0.0625 0.78125 0.0781 0.17188 0.25 0.28125 0.17188 0.09375 0.48438 0.09375 0.23437 0 0.60937-0.0625zm12.828-0.09375v1.3594h-7.5781q-0.0156-0.51562 0.17188-0.98438 0.28125-0.76562 0.92187-1.5156 0.64063-0.75 1.8438-1.7344 1.8594-1.5312 2.5156-2.4219 0.65625-0.90625 0.65625-1.7031 0-0.82812-0.59375-1.4062t-1.5625-0.57812q-1.0156 0-1.625 0.60938-0.60938 0.60938-0.60938 1.6875l-1.4531-0.14062q0.15625-1.625 1.125-2.4688t2.5938-0.84375q1.6562 0 2.6094 0.92188 0.96875 0.90625 0.96875 2.25 0 0.6875-0.28125 1.3594-0.28125 0.65625-0.9375 1.3906t-2.1719 2.0156q-1.2656 1.0625-1.625 1.4531-0.35938 0.375-0.59375 0.75z" clip-path="url(#clipPath65)"/>
 </g>
</svg>
